{"glyphs":{"0":{"ha":765,"x_min":65,"x_max":700,"o":"m 65 499 q 144 882 65 754 q 380 1009 222 1009 q 621 882 543 1009 q 700 499 700 754 q 621 117 700 244 q 380 -11 543 -11 q 144 117 222 -11 q 65 499 65 244 m 575 499 q 524 814 575 727 q 380 901 472 901 q 241 817 293 901 q 190 499 190 732 q 241 176 190 260 q 380 92 293 92 q 524 179 472 92 q 575 499 575 266 z "},"1":{"ha":765,"x_min":119,"x_max":483,"o":"m 483 0 l 363 0 l 363 618 q 369 863 363 749 l 184 705 l 119 787 l 380 993 l 483 993 l 483 0 z "},"2":{"ha":765,"x_min":65,"x_max":684,"o":"m 684 0 l 65 0 l 65 109 l 304 363 q 486 591 450 521 q 521 738 521 662 q 477 857 521 814 q 358 901 434 901 q 146 808 250 901 l 76 890 q 363 1004 206 1004 q 570 933 494 1004 q 646 743 646 863 q 600 570 646 656 q 407 320 553 483 l 217 119 l 217 114 l 684 114 l 684 0 z "},"3":{"ha":765,"x_min":54,"x_max":684,"o":"m 439 521 q 684 282 684 488 q 591 68 684 146 q 320 -11 499 -11 q 54 38 152 -11 l 54 157 q 315 92 179 92 q 494 141 434 92 q 553 288 553 190 q 491 418 553 374 q 298 461 429 461 l 206 461 l 206 564 l 298 564 q 467 616 407 564 q 526 754 526 667 q 480 860 526 819 q 358 901 434 901 q 125 819 233 901 l 60 906 q 358 1004 184 1004 q 575 936 499 1004 q 651 760 651 868 q 439 521 651 564 z "},"4":{"ha":765,"x_min":16,"x_max":738,"o":"m 738 222 l 591 222 l 591 0 l 472 0 l 472 222 l 16 222 l 16 331 l 467 998 l 591 998 l 591 336 l 738 336 l 738 222 m 472 336 l 472 575 q 483 868 472 694 l 477 868 q 418 749 450 798 l 136 336 l 472 336 z "},"5":{"ha":765,"x_min":87,"x_max":689,"o":"m 87 38 l 87 157 q 336 92 184 92 q 502 146 445 92 q 559 304 559 201 q 502 456 559 407 q 326 505 445 505 q 174 488 266 505 l 109 526 l 146 993 l 613 993 l 613 879 l 255 879 l 228 597 q 369 608 298 608 q 602 529 515 608 q 689 320 689 450 q 597 76 689 163 q 331 -11 505 -11 q 87 38 179 -11 z "},"6":{"ha":765,"x_min":76,"x_max":700,"o":"m 629 993 l 629 890 q 515 906 581 906 q 201 505 212 906 l 212 505 q 418 618 277 618 q 624 540 548 618 q 700 320 700 461 q 618 76 700 163 q 401 -11 537 -11 q 165 100 255 -11 q 76 423 76 212 q 184 860 76 716 q 510 1004 293 1004 q 629 993 581 1004 m 401 526 q 258 469 315 526 q 201 342 201 412 q 258 163 201 233 q 401 92 315 92 q 534 149 488 92 q 581 320 581 206 q 537 475 581 423 q 401 526 494 526 z "},"7":{"ha":765,"x_min":60,"x_max":700,"o":"m 190 0 l 575 879 l 60 879 l 60 993 l 700 993 l 700 895 l 320 0 l 190 0 z "},"8":{"ha":765,"x_min":71,"x_max":694,"o":"m 483 526 q 694 260 694 412 q 610 65 694 141 q 385 -11 526 -11 q 152 60 233 -11 q 71 255 71 130 q 266 521 71 429 q 103 770 103 618 q 179 941 103 873 q 385 1009 255 1009 q 586 941 510 1009 q 662 770 662 873 q 483 526 662 613 m 385 575 q 543 765 543 646 q 502 871 543 836 q 380 906 461 906 q 266 871 304 906 q 228 765 228 836 q 385 575 228 646 m 363 472 q 195 250 195 391 q 241 127 195 168 q 380 87 288 87 q 526 130 477 87 q 575 255 575 174 q 537 361 575 315 q 385 461 499 407 l 363 472 z "},"9":{"ha":765,"x_min":71,"x_max":700,"o":"m 146 0 l 146 103 q 260 87 195 87 q 570 488 559 87 l 564 488 q 353 369 499 369 q 146 450 222 369 q 71 673 71 532 q 155 917 71 830 q 374 1004 239 1004 q 608 892 515 1004 q 700 570 700 781 q 591 133 700 277 q 266 -11 483 -11 q 146 0 190 -11 m 369 467 q 515 521 456 467 q 575 651 575 575 q 515 830 575 760 q 374 901 456 901 q 236 844 282 901 q 190 673 190 787 q 236 518 190 570 q 369 467 282 467 z "}," ":{"ha":363,"x_min":0,"x_max":0,"o":""},"\"":{"ha":559,"x_min":92,"x_max":467,"o":"m 222 993 l 195 635 l 119 635 l 92 993 l 222 993 m 467 993 l 439 635 l 363 635 l 336 993 l 467 993 z "},"'":{"ha":315,"x_min":92,"x_max":222,"o":"m 222 993 l 195 635 l 119 635 l 92 993 l 222 993 z "},",":{"ha":347,"x_min":43,"x_max":255,"o":"m 244 163 l 255 146 q 136 -179 217 5 l 43 -179 q 114 163 87 11 l 244 163 z "},".":{"ha":374,"x_min":98,"x_max":271,"o":"m 271 76 q 250 3 271 27 q 184 -22 228 -22 q 119 3 141 -22 q 98 76 98 27 q 119 146 98 125 q 184 168 141 168 q 250 146 228 168 q 271 76 271 125 z "},"/":{"ha":521,"x_min":16,"x_max":505,"o":"m 505 993 l 136 0 l 16 0 l 385 993 l 505 993 z "},":":{"ha":374,"x_min":98,"x_max":271,"o":"m 271 667 q 250 600 271 624 q 184 575 228 575 q 119 600 141 575 q 98 667 98 624 q 119 741 98 716 q 184 765 141 765 q 250 741 228 765 q 271 667 271 716 m 271 76 q 250 3 271 27 q 184 -22 228 -22 q 119 3 141 -22 q 98 76 98 27 q 119 146 98 125 q 184 168 141 168 q 250 146 228 168 q 271 76 271 125 z "},";":{"ha":374,"x_min":43,"x_max":271,"o":"m 271 667 q 250 600 271 624 q 184 575 228 575 q 119 600 141 575 q 98 667 98 624 q 119 741 98 716 q 184 765 141 765 q 250 741 228 765 q 271 667 271 716 m 244 163 l 255 146 q 136 -179 217 5 l 43 -179 q 114 163 87 11 l 244 163 z "},"?":{"ha":591,"x_min":27,"x_max":548,"o":"m 190 282 l 190 304 q 212 431 190 385 q 309 543 233 477 q 407 648 385 608 q 429 754 429 689 q 388 857 429 819 q 271 895 347 895 q 71 841 190 895 l 27 939 q 271 1004 163 1004 q 475 936 401 1004 q 548 754 548 868 q 521 624 548 678 q 410 494 494 570 q 307 385 326 418 q 288 293 288 353 l 288 282 l 190 282 m 331 76 q 309 3 331 27 q 244 -22 288 -22 q 179 3 201 -22 q 157 76 157 27 q 179 146 157 125 q 244 168 201 168 q 309 146 288 168 q 331 76 331 125 z "},"A":{"ha":846,"x_min":0,"x_max":846,"o":"m 716 0 l 608 309 l 239 309 l 130 0 l 0 0 l 363 998 l 477 998 l 846 0 l 716 0 m 570 418 l 467 705 q 423 863 434 798 q 374 705 407 787 l 277 418 l 570 418 z "},"B":{"ha":863,"x_min":136,"x_max":787,"o":"m 136 993 l 407 993 q 681 930 602 993 q 760 743 760 868 q 559 526 760 559 l 559 521 q 787 288 787 483 q 703 79 787 157 q 467 0 618 0 l 136 0 l 136 993 m 260 570 l 429 570 q 583 610 537 570 q 629 732 629 651 q 575 846 629 808 q 412 884 521 884 l 260 884 l 260 570 m 260 467 l 260 109 l 439 109 q 600 155 548 109 q 651 293 651 201 q 597 423 651 380 q 434 467 543 467 l 260 467 z "},"C":{"ha":836,"x_min":87,"x_max":798,"o":"m 760 136 l 760 27 q 515 -11 662 -11 q 201 117 315 -11 q 87 499 87 244 q 209 871 87 738 q 537 1004 331 1004 q 798 949 689 1004 l 743 841 q 537 895 640 895 q 307 789 396 895 q 217 494 217 684 q 298 198 217 298 q 537 98 380 98 q 760 136 624 98 z "},"D":{"ha":949,"x_min":136,"x_max":868,"o":"m 136 0 l 136 993 l 412 993 q 746 865 624 993 q 868 505 868 738 q 741 130 868 260 q 385 0 613 0 l 136 0 m 260 884 l 260 109 l 369 109 q 643 206 553 109 q 732 499 732 304 q 648 789 732 694 q 396 884 564 884 l 260 884 z "},"E":{"ha":732,"x_min":136,"x_max":651,"o":"m 651 0 l 136 0 l 136 993 l 651 993 l 651 879 l 260 879 l 260 575 l 624 575 l 624 467 l 260 467 l 260 114 l 651 114 l 651 0 z "},"F":{"ha":684,"x_min":136,"x_max":651,"o":"m 260 0 l 136 0 l 136 993 l 651 993 l 651 879 l 260 879 l 260 532 l 624 532 l 624 418 l 260 418 l 260 0 z "},"G":{"ha":960,"x_min":87,"x_max":857,"o":"m 532 526 l 857 526 l 857 38 q 526 -11 705 -11 q 206 119 326 -11 q 87 499 87 250 q 214 871 87 738 q 570 1004 342 1004 q 841 949 722 1004 l 792 836 q 559 895 673 895 q 309 792 401 895 q 217 494 217 689 q 301 198 217 298 q 559 98 385 98 q 732 119 640 98 l 732 412 l 532 412 l 532 526 z "},"H":{"ha":977,"x_min":136,"x_max":841,"o":"m 841 0 l 711 0 l 711 461 l 260 461 l 260 0 l 136 0 l 136 993 l 260 993 l 260 575 l 711 575 l 711 993 l 841 993 l 841 0 z "},"I":{"ha":472,"x_min":54,"x_max":418,"o":"m 418 0 l 54 0 l 54 71 l 174 98 l 174 895 l 54 922 l 54 993 l 418 993 l 418 922 l 298 895 l 298 98 l 418 71 l 418 0 z "},"J":{"ha":374,"x_min":-125,"x_max":250,"o":"m -125 -250 l -125 -141 q -16 -152 -71 -152 q 90 -114 54 -152 q 125 0 125 -76 l 125 993 l 250 993 l 250 16 q 179 -193 250 -119 q -22 -266 109 -266 q -125 -250 -81 -266 z "},"K":{"ha":803,"x_min":136,"x_max":803,"o":"m 803 0 l 662 0 l 358 472 l 260 396 l 260 0 l 136 0 l 136 993 l 260 993 l 260 494 l 651 993 l 792 993 l 439 559 l 803 0 z "},"L":{"ha":684,"x_min":136,"x_max":651,"o":"m 136 0 l 136 993 l 260 993 l 260 114 l 651 114 l 651 0 l 136 0 z "},"M":{"ha":1210,"x_min":136,"x_max":1074,"o":"m 543 0 l 244 868 l 239 868 q 250 591 250 678 l 250 0 l 136 0 l 136 993 l 320 993 l 602 184 l 608 184 l 884 993 l 1074 993 l 1074 0 l 949 0 l 949 602 q 955 868 949 694 l 949 868 l 651 0 l 543 0 z "},"N":{"ha":1015,"x_min":136,"x_max":879,"o":"m 879 0 l 732 0 l 244 819 l 239 819 q 250 537 250 624 l 250 0 l 136 0 l 136 993 l 282 993 l 765 174 l 770 174 q 760 450 760 353 l 760 993 l 879 993 l 879 0 z "},"O":{"ha":1031,"x_min":87,"x_max":944,"o":"m 87 499 q 201 879 87 749 q 515 1009 315 1009 q 827 876 711 1009 q 944 499 944 743 q 827 119 944 250 q 515 -11 711 -11 q 201 117 315 -11 q 87 499 87 244 m 814 499 q 738 795 814 694 q 515 895 662 895 q 293 795 369 895 q 217 499 217 694 q 293 198 217 298 q 515 98 369 98 q 738 198 662 98 q 814 499 814 298 z "},"P":{"ha":803,"x_min":136,"x_max":727,"o":"m 260 385 l 260 0 l 136 0 l 136 993 l 380 993 q 640 920 553 993 q 727 700 727 846 q 635 469 727 553 q 363 385 543 385 l 260 385 m 260 494 l 347 494 q 540 543 483 494 q 597 694 597 591 q 540 836 597 787 q 369 884 483 884 l 260 884 l 260 494 z "},"Q":{"ha":1031,"x_min":87,"x_max":944,"o":"m 689 16 q 873 -184 738 -92 l 787 -282 q 570 -11 629 -163 l 515 -11 q 201 117 315 -11 q 87 499 87 244 q 201 879 87 749 q 515 1009 315 1009 q 827 876 711 1009 q 944 499 944 743 q 689 16 944 125 m 814 499 q 738 795 814 694 q 515 895 662 895 q 293 795 369 895 q 217 499 217 694 q 293 198 217 298 q 515 98 369 98 q 738 198 662 98 q 814 499 814 298 z "},"R":{"ha":819,"x_min":136,"x_max":803,"o":"m 260 412 l 260 0 l 136 0 l 136 993 l 374 993 q 640 922 553 993 q 727 711 727 852 q 532 445 727 515 l 803 0 l 656 0 l 418 412 l 260 412 m 260 515 l 374 515 q 543 564 488 515 q 597 705 597 613 q 545 841 597 798 q 369 884 494 884 l 260 884 l 260 515 z "},"S":{"ha":722,"x_min":71,"x_max":656,"o":"m 71 33 l 71 152 q 320 98 201 98 q 480 136 429 98 q 532 255 532 174 q 494 363 532 320 q 293 467 467 391 q 130 586 179 521 q 81 754 81 651 q 160 936 81 868 q 380 1004 239 1004 q 640 949 526 1004 l 597 846 q 380 895 483 895 q 250 857 293 895 q 206 754 206 819 q 241 643 206 678 q 420 545 277 608 q 610 420 564 483 q 656 266 656 358 q 570 65 656 141 q 320 -11 483 -11 q 71 33 163 -11 z "},"T":{"ha":722,"x_min":16,"x_max":705,"o":"m 423 0 l 298 0 l 298 879 l 16 879 l 16 993 l 705 993 l 705 879 l 423 879 l 423 0 z "},"U":{"ha":971,"x_min":125,"x_max":846,"o":"m 846 993 l 846 353 q 749 84 846 179 q 483 -11 651 -11 q 220 84 315 -11 q 125 353 125 179 l 125 993 l 250 993 l 250 347 q 309 160 250 222 q 488 98 369 98 q 659 160 602 98 q 716 347 716 222 l 716 993 l 846 993 z "},"V":{"ha":787,"x_min":0,"x_max":787,"o":"m 656 993 l 787 993 l 456 0 l 331 0 l 0 993 l 136 993 l 336 363 q 396 136 363 271 q 456 369 412 233 l 656 993 z "},"W":{"ha":1226,"x_min":16,"x_max":1215,"o":"m 548 993 l 684 993 l 836 412 q 901 136 890 222 q 944 396 917 271 l 1080 993 l 1215 993 l 966 0 l 836 0 l 667 635 q 613 846 640 727 q 570 635 586 694 l 401 0 l 277 0 l 16 993 l 146 993 l 298 391 q 347 136 326 288 q 396 412 369 298 l 548 993 z "},"X":{"ha":760,"x_min":0,"x_max":760,"o":"m 760 0 l 618 0 l 374 429 l 130 0 l 0 0 l 309 521 l 22 993 l 157 993 l 380 613 l 608 993 l 738 993 l 450 521 l 760 0 z "},"Y":{"ha":732,"x_min":0,"x_max":732,"o":"m 363 488 l 597 993 l 732 993 l 429 385 l 429 0 l 304 0 l 304 380 l 0 993 l 136 993 l 363 488 z "},"Z":{"ha":749,"x_min":54,"x_max":694,"o":"m 694 0 l 54 0 l 54 98 l 537 879 l 71 879 l 71 993 l 678 993 l 678 895 l 195 114 l 694 114 l 694 0 z "},"a":{"ha":738,"x_min":65,"x_max":629,"o":"m 537 0 l 515 103 l 510 103 q 282 -11 429 -11 q 122 46 179 -11 q 65 206 65 103 q 380 445 65 434 l 505 450 l 505 494 q 469 616 505 575 q 358 656 434 656 q 163 602 266 656 l 119 694 q 358 760 239 760 q 564 700 499 760 q 629 510 629 640 l 629 0 l 537 0 m 505 363 l 407 358 q 236 315 282 353 q 190 206 190 277 q 220 117 190 146 q 309 87 250 87 q 453 141 401 87 q 505 298 505 195 l 505 363 z "},"b":{"ha":814,"x_min":119,"x_max":738,"o":"m 244 92 l 233 92 l 206 0 l 119 0 l 119 1058 l 244 1058 l 244 803 q 239 646 244 743 l 244 646 q 456 760 315 760 q 659 662 581 760 q 738 374 738 564 q 659 87 738 184 q 456 -11 581 -11 q 244 92 315 -11 m 434 87 q 564 160 521 87 q 608 374 608 233 q 564 586 608 515 q 429 656 521 656 q 290 597 336 656 q 244 374 244 537 q 290 149 244 212 q 434 87 336 87 z "},"c":{"ha":646,"x_min":76,"x_max":597,"o":"m 597 716 l 559 613 q 407 651 472 651 q 255 581 304 651 q 206 369 206 510 q 255 163 206 233 q 401 92 304 92 q 586 136 494 92 l 586 27 q 401 -11 510 -11 q 163 84 250 -11 q 76 369 76 179 q 165 662 76 564 q 407 760 255 760 q 597 716 510 760 z "},"d":{"ha":814,"x_min":76,"x_max":694,"o":"m 581 98 l 575 98 q 358 -11 499 -11 q 155 84 233 -11 q 76 369 76 179 q 155 662 76 564 q 358 760 233 760 q 575 651 494 760 l 581 651 l 575 760 l 575 1058 l 694 1058 l 694 0 l 597 0 l 581 98 m 575 342 l 575 369 q 526 594 575 532 q 380 656 477 656 q 250 586 293 656 q 206 369 206 515 q 250 157 206 228 q 385 87 293 87 q 526 146 477 87 q 575 342 575 206 z "},"e":{"ha":743,"x_min":76,"x_max":673,"o":"m 673 347 l 206 347 q 258 157 206 222 q 412 92 309 92 q 640 146 532 92 l 640 38 q 412 -11 537 -11 q 168 87 260 -11 q 76 369 76 184 q 163 656 76 553 q 385 760 250 760 q 594 670 515 760 q 673 423 673 581 l 673 347 m 206 450 l 543 450 q 502 605 543 553 q 380 656 461 656 q 206 450 222 656 z "},"f":{"ha":456,"x_min":22,"x_max":510,"o":"m 439 651 l 277 651 l 277 0 l 152 0 l 152 651 l 22 651 l 22 705 l 152 749 l 152 814 q 206 1006 152 949 q 374 1063 260 1063 q 510 1036 439 1063 l 477 944 q 380 960 423 960 q 301 930 326 960 q 277 814 277 901 l 277 743 l 439 743 l 439 651 z "},"g":{"ha":722,"x_min":27,"x_max":694,"o":"m 694 743 l 694 667 l 559 651 q 602 505 602 591 q 534 331 602 396 q 347 266 467 266 q 293 271 304 266 q 233 179 233 233 q 258 138 233 152 q 336 125 282 125 l 456 125 q 627 73 570 125 q 684 -76 684 22 q 591 -269 684 -206 q 315 -331 499 -331 q 98 -279 168 -331 q 27 -125 27 -228 q 190 60 27 16 q 125 163 125 87 q 212 293 125 239 q 81 499 81 347 q 152 692 81 624 q 347 760 222 760 q 445 743 407 760 l 694 743 m 483 510 q 448 627 483 586 q 342 667 412 667 q 239 627 271 667 q 206 505 206 586 q 241 391 206 429 q 347 353 277 353 q 448 391 412 353 q 483 510 483 429 m 407 11 l 288 11 q 179 -22 217 11 q 141 -119 141 -54 q 184 -209 141 -179 q 315 -239 228 -239 q 502 -201 439 -239 q 564 -87 564 -163 q 534 -11 564 -33 q 407 11 505 11 z "},"h":{"ha":819,"x_min":119,"x_max":705,"o":"m 586 0 l 586 477 q 548 613 586 570 q 434 656 510 656 q 293 594 342 656 q 244 385 244 532 l 244 0 l 119 0 l 119 1058 l 244 1058 l 244 743 l 239 646 l 244 646 q 456 760 309 760 q 643 692 581 760 q 705 488 705 624 l 705 0 l 586 0 z "},"i":{"ha":358,"x_min":109,"x_max":255,"o":"m 255 944 q 236 887 255 906 q 179 868 217 868 q 127 887 146 868 q 109 944 109 906 q 127 1006 109 987 q 179 1025 146 1025 q 236 1006 217 1025 q 255 944 255 987 m 244 0 l 119 0 l 119 743 l 244 743 l 244 0 z "},"j":{"ha":358,"x_min":-43,"x_max":255,"o":"m 255 944 q 236 887 255 906 q 179 868 217 868 q 127 887 146 868 q 109 944 109 906 q 127 1006 109 987 q 179 1025 146 1025 q 236 1006 217 1025 q 255 944 255 987 m -43 -315 l -43 -217 q 33 -228 -11 -228 q 98 -201 76 -228 q 119 -114 119 -174 l 119 743 l 244 743 l 244 -109 q 193 -277 244 -222 q 43 -331 141 -331 q -43 -315 -11 -331 z "},"k":{"ha":689,"x_min":119,"x_max":684,"o":"m 233 385 l 521 743 l 667 743 l 396 423 l 684 0 l 543 0 l 315 342 l 239 288 l 239 0 l 119 0 l 119 1058 l 239 1058 l 239 570 l 228 385 l 233 385 z "},"l":{"ha":358,"x_min":119,"x_max":244,"o":"m 244 0 l 119 0 l 119 1058 l 244 1058 l 244 0 z "},"m":{"ha":1242,"x_min":119,"x_max":1134,"o":"m 1009 0 l 1009 477 q 974 613 1009 570 q 873 656 939 656 q 735 594 781 656 q 689 412 689 532 l 689 0 l 564 0 l 564 477 q 529 613 564 570 q 423 656 494 656 q 290 597 336 656 q 244 385 244 537 l 244 0 l 119 0 l 119 743 l 217 743 l 239 646 l 244 646 q 450 760 309 760 q 662 635 613 760 l 667 635 q 895 760 738 760 q 1074 692 1015 760 q 1134 488 1134 624 l 1134 0 l 1009 0 z "},"n":{"ha":819,"x_min":119,"x_max":705,"o":"m 586 0 l 586 477 q 548 613 586 570 q 434 656 510 656 q 293 594 342 656 q 244 385 244 532 l 244 0 l 119 0 l 119 743 l 217 743 l 239 646 l 244 646 q 456 760 309 760 q 643 692 581 760 q 705 488 705 624 l 705 0 l 586 0 z "},"o":{"ha":803,"x_min":76,"x_max":727,"o":"m 76 374 q 165 659 76 559 q 401 760 255 760 q 635 656 543 760 q 727 374 727 553 q 637 87 727 184 q 401 -11 548 -11 q 165 90 255 -11 q 76 374 76 190 m 597 374 q 548 586 597 515 q 401 656 499 656 q 255 586 304 656 q 206 374 206 515 q 255 160 206 233 q 401 87 304 87 q 548 160 499 87 q 597 374 597 233 z "},"p":{"ha":814,"x_min":119,"x_max":738,"o":"m 244 92 l 233 92 q 244 -16 244 5 l 244 -331 l 119 -331 l 119 743 l 217 743 l 239 646 l 244 646 q 456 760 315 760 q 659 662 581 760 q 738 374 738 564 q 659 87 738 184 q 456 -11 581 -11 q 244 92 315 -11 m 244 401 l 244 374 q 290 149 244 212 q 434 87 336 87 q 564 160 521 87 q 608 374 608 233 q 564 586 608 515 q 429 656 521 656 q 290 600 336 656 q 244 401 244 543 z "},"q":{"ha":814,"x_min":76,"x_max":694,"o":"m 575 646 l 581 646 l 597 743 l 694 743 l 694 -331 l 575 -331 l 575 -16 l 581 98 l 575 98 q 358 -11 499 -11 q 155 84 233 -11 q 76 369 76 179 q 155 662 76 564 q 358 760 233 760 q 575 646 494 760 m 575 342 l 575 369 q 526 594 575 532 q 380 656 477 656 q 250 586 293 656 q 206 369 206 515 q 250 157 206 228 q 385 87 293 87 q 526 146 477 87 q 575 342 575 206 z "},"r":{"ha":553,"x_min":119,"x_max":526,"o":"m 526 754 l 510 640 q 434 646 467 646 q 298 581 353 646 q 244 401 244 515 l 244 0 l 119 0 l 119 743 l 217 743 l 233 608 l 239 608 q 439 760 326 760 q 526 754 488 760 z "},"s":{"ha":629,"x_min":60,"x_max":564,"o":"m 60 33 l 60 146 q 282 87 179 87 q 404 114 363 87 q 445 195 445 141 q 415 263 445 239 q 263 345 385 288 q 106 448 141 401 q 71 559 71 494 q 138 705 71 651 q 331 760 206 760 q 553 705 445 760 l 510 608 q 326 656 401 656 q 225 635 260 656 q 190 570 190 613 q 217 502 190 526 q 369 423 244 477 q 529 320 494 369 q 564 206 564 271 q 494 46 564 103 q 282 -11 423 -11 q 60 33 141 -11 z "},"t":{"ha":472,"x_min":22,"x_max":445,"o":"m 445 103 l 445 11 q 326 -11 396 -11 q 179 46 228 -11 q 130 222 130 103 l 130 651 l 22 651 l 22 705 l 130 760 l 179 917 l 250 917 l 250 743 l 439 743 l 439 651 l 250 651 l 250 222 q 274 119 250 152 q 342 87 298 87 q 445 103 396 87 z "},"u":{"ha":819,"x_min":114,"x_max":700,"o":"m 602 0 l 581 98 l 575 98 q 363 -11 510 -11 q 176 57 239 -11 q 114 260 114 125 l 114 743 l 233 743 l 233 266 q 271 133 233 179 q 380 87 309 87 q 526 149 477 87 q 575 358 575 212 l 575 743 l 700 743 l 700 0 l 602 0 z "},"v":{"ha":667,"x_min":0,"x_max":667,"o":"m 255 0 l 0 743 l 130 743 l 260 331 q 331 81 304 201 l 336 81 q 401 331 353 179 l 537 743 l 667 743 l 412 0 l 255 0 z "},"w":{"ha":1036,"x_min":16,"x_max":1020,"o":"m 684 0 l 570 418 q 521 629 564 434 l 515 629 l 347 0 l 206 0 l 16 743 l 141 743 l 233 347 q 277 98 255 239 l 282 98 q 331 326 309 250 l 456 743 l 586 743 l 705 326 q 754 98 732 212 l 760 98 q 803 347 776 233 l 895 743 l 1020 743 l 830 0 l 684 0 z "},"x":{"ha":694,"x_min":22,"x_max":667,"o":"m 277 380 l 38 743 l 179 743 l 347 467 l 515 743 l 656 743 l 418 380 l 667 0 l 532 0 l 347 298 l 163 0 l 22 0 l 277 380 z "},"y":{"ha":678,"x_min":5,"x_max":673,"o":"m 5 743 l 136 743 l 282 331 q 342 103 331 179 l 347 103 q 412 331 363 184 l 543 743 l 673 743 l 380 -98 q 271 -282 331 -233 q 125 -331 212 -331 q 16 -320 71 -331 l 16 -222 q 98 -233 54 -233 q 250 -114 206 -233 l 288 -5 l 5 743 z "},"z":{"ha":613,"x_min":54,"x_max":559,"o":"m 559 0 l 54 0 l 54 87 l 418 651 l 76 651 l 76 743 l 543 743 l 543 646 l 190 92 l 559 92 l 559 0 z "},"，":{"ha":1389,"x_min":586,"x_max":803,"o":"m 792 163 l 803 146 q 684 -179 765 5 l 586 -179 q 656 163 635 11 l 792 163 z "},"：":{"ha":1389,"x_min":608,"x_max":781,"o":"m 781 667 q 760 600 781 624 q 694 575 738 575 q 629 600 651 575 q 608 667 608 624 q 629 741 608 716 q 694 765 651 765 q 760 741 738 765 q 781 667 781 716 m 781 76 q 760 3 781 27 q 694 -22 738 -22 q 629 3 651 -22 q 608 76 608 27 q 629 146 608 125 q 694 168 651 168 q 760 146 738 168 q 781 76 781 125 z "},"。":{"ha":1389,"x_min":33,"x_max":407,"o":"m 33 27 q 87 157 33 103 q 222 212 141 212 q 353 157 298 212 q 407 27 407 103 q 353 -103 407 -49 q 222 -157 298 -157 q 87 -103 141 -157 q 33 27 33 -49 m 119 27 q 149 -46 119 -16 q 222 -76 179 -76 q 290 -46 260 -76 q 320 27 320 -16 q 290 98 320 71 q 222 125 260 125 q 149 98 179 125 q 119 27 119 71 z "},"《":{"ha":1389,"x_min":694,"x_max":1237,"o":"m 1237 -60 l 1161 -103 l 868 499 l 1161 1107 l 1237 1069 l 966 499 l 1237 -60 m 1063 -60 l 982 -103 l 694 499 l 982 1107 l 1063 1069 l 792 499 l 1063 -60 z "},"》":{"ha":1389,"x_min":146,"x_max":694,"o":"m 694 499 l 407 -103 l 326 -60 l 597 499 l 326 1069 l 407 1107 l 694 499 m 521 499 l 228 -103 l 146 -60 l 423 499 l 146 1069 l 228 1107 l 521 499 z "},"一":{"ha":1389,"x_min":114,"x_max":1270,"o":"m 114 608 l 1270 608 l 1270 505 l 114 505 l 114 608 z "},"丁":{"ha":1389,"x_min":87,"x_max":1297,"o":"m 87 1063 l 1297 1063 l 1297 960 l 781 960 l 781 27 q 749 -81 781 -49 q 613 -114 716 -114 q 456 -103 532 -114 l 434 5 q 597 -11 515 -11 q 656 3 640 -11 q 673 54 673 16 l 673 960 l 87 960 l 87 1063 z "},"七":{"ha":1389,"x_min":71,"x_max":1318,"o":"m 1308 770 l 1318 667 l 597 586 l 597 81 q 624 38 597 49 q 868 27 651 27 q 1134 54 1090 27 q 1183 244 1166 76 l 1297 212 q 1226 -38 1275 5 q 868 -81 1177 -81 q 559 -71 591 -81 q 483 60 483 -43 l 483 575 l 87 532 l 71 635 l 483 678 l 483 1090 l 597 1090 l 597 694 l 1308 770 z "},"万":{"ha":1389,"x_min":81,"x_max":1297,"o":"m 439 944 l 87 944 l 87 1047 l 1297 1047 l 1297 944 l 548 944 q 537 684 548 798 l 1150 684 q 1109 5 1150 114 q 949 -103 1069 -103 q 787 -81 884 -103 l 770 22 q 933 0 868 0 q 1006 65 982 0 q 1042 581 1031 130 l 532 581 q 426 171 510 331 q 157 -125 342 11 l 81 -38 q 336 239 233 60 q 439 944 439 418 z "},"丈":{"ha":1389,"x_min":71,"x_max":1318,"o":"m 119 857 l 770 857 l 770 1090 l 879 1090 l 879 857 l 1270 857 l 1270 760 l 873 760 q 868 700 873 705 q 727 239 868 429 q 1318 -16 987 76 l 1270 -114 q 656 157 928 -27 q 130 -119 461 -22 l 71 -22 q 564 228 391 76 q 260 597 385 374 l 353 640 q 640 309 472 445 q 765 738 765 477 l 765 760 l 119 760 l 119 857 z "},"三":{"ha":1389,"x_min":109,"x_max":1280,"o":"m 174 1020 l 1215 1020 l 1215 917 l 174 917 l 174 1020 m 233 553 l 1156 553 l 1156 450 l 233 450 l 233 553 m 109 76 l 1280 76 l 1280 -27 l 109 -27 l 109 76 z "},"上":{"ha":1389,"x_min":109,"x_max":1291,"o":"m 581 1101 l 694 1101 l 694 722 l 1226 722 l 1226 613 l 694 613 l 694 43 l 1291 43 l 1291 -65 l 109 -65 l 109 43 l 581 43 l 581 1101 z "},"下":{"ha":1389,"x_min":98,"x_max":1297,"o":"m 597 944 l 98 944 l 98 1047 l 1297 1047 l 1297 944 l 705 944 l 705 640 q 1156 331 971 483 l 1080 228 q 705 515 901 391 l 705 -125 l 597 -125 l 597 944 z "},"不":{"ha":1389,"x_min":60,"x_max":1329,"o":"m 103 1058 l 1280 1058 l 1280 949 l 819 949 q 727 798 781 879 l 727 -125 l 608 -125 l 608 640 q 141 195 401 380 l 60 277 q 694 949 423 526 l 103 949 l 103 1058 m 884 716 q 1329 277 1112 532 l 1242 190 q 798 656 1053 423 l 884 716 z "},"与":{"ha":1389,"x_min":109,"x_max":1270,"o":"m 391 819 l 391 564 l 1210 564 q 1145 -16 1194 81 q 971 -114 1096 -114 q 732 -92 895 -114 l 711 11 q 960 -11 890 -11 q 1053 49 1031 -11 q 1101 461 1080 141 l 282 461 l 282 1123 l 391 1123 l 391 922 l 1270 922 l 1270 819 l 391 819 m 109 282 l 944 282 l 944 179 l 109 179 l 109 282 z "},"丐":{"ha":1389,"x_min":109,"x_max":1280,"o":"m 727 656 l 727 439 l 1259 439 q 1207 -35 1248 43 q 1063 -114 1166 -114 q 819 -81 987 -114 l 798 22 q 1053 -11 982 -11 q 1115 30 1096 -11 q 1150 336 1134 71 l 206 336 l 206 803 l 315 803 l 315 439 l 618 439 l 618 977 l 109 977 l 109 1080 l 1280 1080 l 1280 977 l 727 977 l 727 760 l 1172 760 l 1172 656 l 727 656 z "},"丑":{"ha":1389,"x_min":92,"x_max":1297,"o":"m 239 1063 l 1161 1063 l 1080 5 l 1297 5 l 1297 -98 l 92 -98 l 92 5 l 380 5 l 434 429 l 222 429 l 222 532 l 445 532 l 499 960 l 239 960 l 239 1063 m 553 532 l 1015 532 l 1047 960 l 608 960 l 553 532 m 488 5 l 971 5 l 1004 429 l 543 429 l 488 5 z "},"专":{"ha":1389,"x_min":98,"x_max":1280,"o":"m 98 711 l 510 711 l 548 863 l 201 863 l 201 966 l 575 966 l 597 1123 l 716 1112 l 689 966 l 1177 966 l 1177 863 l 667 863 l 629 711 l 1280 711 l 1280 608 l 602 608 l 553 456 l 1128 456 l 1128 347 q 852 76 1009 190 q 1015 -22 939 27 l 944 -119 q 347 163 700 38 l 396 260 q 743 130 586 201 q 982 353 873 222 l 461 353 l 418 456 q 483 608 456 521 l 98 608 l 98 711 z "},"且":{"ha":1389,"x_min":76,"x_max":1318,"o":"m 1107 1074 l 1107 16 l 1318 16 l 1318 -87 l 76 -87 l 76 16 l 298 16 l 298 1074 l 1107 1074 m 407 722 l 998 722 l 998 966 l 407 966 l 407 722 m 407 369 l 998 369 l 998 618 l 407 618 l 407 369 m 407 16 l 998 16 l 998 266 l 407 266 l 407 16 z "},"世":{"ha":1389,"x_min":81,"x_max":1308,"o":"m 81 792 l 260 792 l 260 1063 l 363 1063 l 363 792 l 575 792 l 575 1128 l 673 1128 l 673 792 l 939 792 l 939 1128 l 1042 1128 l 1042 792 l 1308 792 l 1308 689 l 1042 689 l 1042 222 l 575 222 l 575 689 l 363 689 l 363 60 l 1291 60 l 1291 -43 l 260 -43 l 260 689 l 81 689 l 81 792 m 939 326 l 939 689 l 673 689 l 673 326 l 939 326 z "},"丘":{"ha":1389,"x_min":71,"x_max":1313,"o":"m 1128 1107 l 1226 1009 q 358 928 754 944 l 358 684 l 1264 684 l 1264 581 l 987 581 l 987 5 l 1313 5 l 1313 -98 l 71 -98 l 71 5 l 239 5 l 239 1020 q 1128 1107 732 1042 m 358 5 l 879 5 l 879 581 l 358 581 l 358 5 z "},"丙":{"ha":1389,"x_min":81,"x_max":1308,"o":"m 1226 781 l 1226 16 q 1191 -84 1226 -49 q 1090 -119 1156 -119 q 933 -98 1025 -119 l 906 11 q 1085 -11 1025 -11 q 1118 43 1118 -11 l 1118 678 l 738 678 q 722 564 727 618 q 1074 206 901 407 l 987 125 q 689 461 857 293 q 374 119 608 266 l 298 206 q 629 678 597 374 l 266 678 l 266 -130 l 157 -130 l 157 781 l 635 781 q 646 955 646 857 l 81 955 l 81 1058 l 1308 1058 l 1308 955 l 754 955 q 749 781 754 857 l 1226 781 z "},"业":{"ha":1389,"x_min":81,"x_max":1308,"o":"m 81 54 l 499 54 l 499 1096 l 608 1096 l 608 54 l 781 54 l 781 1096 l 890 1096 l 890 54 l 1308 54 l 1308 -49 l 81 -49 l 81 54 m 1150 857 l 1259 819 q 1047 250 1177 505 l 944 304 q 1150 857 1063 553 m 260 841 q 423 298 369 597 l 298 255 q 146 808 250 559 l 260 841 z "},"丛":{"ha":1389,"x_min":65,"x_max":1308,"o":"m 868 1123 l 977 1123 l 977 765 l 977 743 q 1308 222 1069 374 l 1226 103 q 939 537 1020 277 q 581 109 846 277 l 521 217 q 868 765 868 439 l 868 1123 m 353 1112 l 461 1112 l 461 884 q 445 694 461 787 q 705 483 597 602 l 629 374 q 423 570 543 483 q 163 109 342 282 l 65 184 q 353 884 353 467 l 353 1112 m 81 27 l 1308 27 l 1308 -76 l 81 -76 l 81 27 z "},"东":{"ha":1389,"x_min":92,"x_max":1324,"o":"m 689 754 l 798 754 l 798 505 l 1253 505 l 1253 401 l 798 401 l 798 22 q 770 -90 798 -60 q 667 -119 743 -119 q 532 -109 597 -119 l 510 -5 q 651 -16 581 -16 q 689 43 689 -16 l 689 401 l 206 401 l 179 505 q 423 841 320 646 l 103 841 l 103 944 l 477 944 q 553 1123 521 1031 l 667 1101 l 602 944 l 1280 944 l 1280 841 l 553 841 q 331 505 456 646 l 689 505 l 689 754 m 1004 331 q 1324 22 1177 201 l 1248 -71 q 933 260 1101 119 l 1004 331 m 407 326 l 499 271 q 163 -71 391 81 l 92 16 q 407 326 309 157 z "},"丝":{"ha":1389,"x_min":103,"x_max":1291,"o":"m 1145 841 l 1242 803 q 873 293 1069 477 q 1237 374 1074 331 l 1264 293 q 738 179 1031 217 l 711 266 q 982 581 852 396 q 689 537 841 553 l 667 646 q 982 1118 857 825 l 1080 1085 q 803 651 977 819 q 1047 678 944 662 q 1145 841 1096 754 m 591 846 l 689 808 q 315 288 515 477 q 656 369 505 326 l 684 288 q 179 168 461 212 l 152 255 q 423 570 293 385 q 146 543 288 553 l 125 651 q 423 1112 304 825 l 521 1080 q 255 651 423 819 q 488 673 391 656 q 591 846 543 754 m 103 54 l 1291 54 l 1291 -49 l 103 -49 l 103 54 z "},"丢":{"ha":1389,"x_min":81,"x_max":1302,"o":"m 1161 1107 l 1215 1009 q 749 960 1004 982 l 749 776 l 1177 776 l 1177 673 l 749 673 l 749 483 l 1302 483 l 1302 380 l 629 380 q 380 27 505 130 q 1025 81 689 38 q 901 266 971 179 l 1004 315 q 1242 -76 1145 141 l 1128 -130 l 1074 -11 q 233 -81 678 -65 l 201 16 q 499 380 374 141 l 81 380 l 81 483 l 640 483 l 640 673 l 222 673 l 222 776 l 640 776 l 640 955 q 206 939 434 939 l 174 1031 q 1161 1107 667 1031 z "},"两":{"ha":1389,"x_min":81,"x_max":1308,"o":"m 1226 749 l 1226 0 q 1188 -98 1226 -65 q 1080 -130 1150 -130 q 955 -125 1025 -130 l 928 -22 q 1074 -27 1025 -27 q 1118 27 1118 -27 l 1118 646 l 922 646 q 890 412 911 515 q 1080 250 998 331 l 1009 152 q 868 320 939 244 q 722 60 830 168 l 646 136 q 808 646 792 293 l 602 646 q 581 477 597 553 q 738 353 673 412 l 667 255 q 553 385 613 326 q 385 114 510 222 l 309 190 q 494 646 472 336 l 277 646 l 277 -130 l 168 -130 l 168 749 l 499 749 l 499 955 l 81 955 l 81 1058 l 1308 1058 l 1308 955 l 922 955 l 922 749 l 1226 749 m 814 955 l 608 955 l 608 749 l 814 749 l 814 955 z "},"严":{"ha":1389,"x_min":54,"x_max":1286,"o":"m 184 1080 l 1264 1080 l 1264 977 l 928 977 l 928 602 l 1286 602 l 1286 499 l 326 499 l 326 369 q 146 -125 326 109 l 54 -54 q 217 369 217 136 l 217 602 l 537 602 l 537 977 l 184 977 l 184 1080 m 646 602 l 819 602 l 819 977 l 646 977 l 646 602 m 353 911 q 467 716 423 825 l 363 656 q 255 852 326 760 l 353 911 m 1101 901 l 1204 868 q 1096 662 1156 743 l 993 716 q 1101 901 1063 814 z "},"丧":{"ha":1389,"x_min":81,"x_max":1329,"o":"m 738 537 l 1302 537 l 1302 434 l 765 434 q 895 212 825 282 q 1150 385 1053 298 l 1221 304 q 971 141 1118 217 q 1329 -22 1123 27 l 1280 -125 q 876 81 1020 -49 q 662 434 732 212 l 412 434 l 412 0 q 678 109 559 49 l 694 5 q 358 -125 553 -65 l 309 -76 l 309 434 l 81 434 l 81 537 l 629 537 l 629 895 l 152 895 l 152 998 l 629 998 l 629 1123 l 738 1123 l 738 998 l 1221 998 l 1221 895 l 738 895 l 738 537 m 342 852 q 499 618 439 743 l 401 564 q 250 798 347 684 l 342 852 m 1047 852 l 1139 798 q 949 575 1047 656 l 868 651 q 1047 852 982 743 z "},"个":{"ha":1389,"x_min":65,"x_max":1335,"o":"m 684 1123 l 798 1096 l 770 1047 q 1335 581 960 711 l 1270 461 q 705 944 906 618 q 141 439 488 635 l 65 526 q 439 803 309 673 q 684 1123 570 933 m 640 662 l 749 662 l 749 -125 l 640 -125 l 640 662 z "},"中":{"ha":1389,"x_min":152,"x_max":1242,"o":"m 1242 917 l 1242 250 l 1134 250 l 1134 336 l 743 336 l 743 -136 l 635 -136 l 635 336 l 260 336 l 260 239 l 152 239 l 152 917 l 635 917 l 635 1128 l 743 1128 l 743 917 l 1242 917 m 260 439 l 635 439 l 635 814 l 260 814 l 260 439 m 743 814 l 743 439 l 1134 439 l 1134 814 l 743 814 z "},"丰":{"ha":1389,"x_min":98,"x_max":1297,"o":"m 157 922 l 635 922 l 635 1134 l 743 1134 l 743 922 l 1237 922 l 1237 819 l 743 819 l 743 635 l 1177 635 l 1177 532 l 743 532 l 743 336 l 1297 336 l 1297 233 l 743 233 l 743 -141 l 635 -141 l 635 233 l 98 233 l 98 336 l 635 336 l 635 532 l 206 532 l 206 635 l 635 635 l 635 819 l 157 819 l 157 922 z "},"串":{"ha":1389,"x_min":157,"x_max":1237,"o":"m 212 1009 l 640 1009 l 640 1123 l 754 1123 l 754 1009 l 1183 1009 l 1183 635 l 754 635 l 754 515 l 1237 515 l 1237 49 l 1128 49 l 1128 130 l 754 130 l 754 -125 l 640 -125 l 640 130 l 266 130 l 266 27 l 157 27 l 157 515 l 640 515 l 640 635 l 212 635 l 212 1009 m 320 732 l 640 732 l 640 906 l 320 906 l 320 732 m 754 906 l 754 732 l 1074 732 l 1074 906 l 754 906 m 266 233 l 640 233 l 640 412 l 266 412 l 266 233 m 754 412 l 754 233 l 1128 233 l 1128 412 l 754 412 z "},"临":{"ha":1389,"x_min":119,"x_max":1291,"o":"m 358 1101 l 461 1101 l 461 -103 l 358 -103 l 358 1101 m 119 987 l 228 987 l 228 92 l 119 92 l 119 987 m 765 1123 l 873 1101 q 814 917 852 1004 l 1291 917 l 1291 814 l 765 814 q 581 553 684 656 l 499 629 q 765 1123 684 836 m 949 770 q 1080 597 1031 689 l 977 537 q 852 711 928 629 l 949 770 m 705 0 l 705 -119 l 597 -119 l 597 510 l 1259 510 l 1259 -130 l 1150 -130 l 1150 0 l 705 0 m 868 407 l 705 407 l 705 103 l 868 103 l 868 407 m 1150 103 l 1150 407 l 977 407 l 977 103 l 1150 103 z "},"丸":{"ha":1389,"x_min":92,"x_max":1329,"o":"m 168 922 l 543 922 l 543 1123 l 656 1123 l 656 922 l 1058 922 q 1009 87 1009 429 q 1025 14 1009 33 q 1090 -5 1042 -5 l 1145 -5 q 1194 30 1177 -5 q 1215 206 1210 65 l 1329 168 q 1283 -60 1324 -5 q 1150 -114 1242 -114 l 1101 -114 q 936 -76 977 -114 q 895 76 895 -38 q 939 819 895 369 l 651 819 q 602 445 635 591 q 830 244 727 353 l 760 141 q 564 326 667 239 q 157 -125 467 65 l 92 -22 q 467 401 385 163 q 201 570 342 494 l 250 667 q 499 521 380 597 q 537 819 521 646 l 168 819 l 168 922 z "},"丹":{"ha":1389,"x_min":76,"x_max":1313,"o":"m 1101 1053 l 1101 494 l 1313 494 l 1313 391 l 1101 391 l 1101 11 q 1074 -90 1101 -54 q 993 -125 1047 -125 q 798 -109 922 -125 l 770 11 q 960 -5 911 -5 q 993 33 993 -5 l 993 391 l 396 391 q 179 -130 358 87 l 76 -71 q 282 391 255 174 l 81 391 l 81 494 l 293 494 l 293 1053 l 1101 1053 m 401 494 l 993 494 l 993 949 l 401 949 l 401 494 m 705 873 q 781 602 754 749 l 678 564 q 602 841 651 722 l 705 873 z "},"为":{"ha":1389,"x_min":119,"x_max":1237,"o":"m 184 754 l 575 754 q 586 1123 586 911 l 700 1123 q 694 754 700 911 l 1237 754 q 1218 127 1237 271 q 1147 -65 1199 -16 q 977 -114 1096 -114 q 836 -98 906 -114 l 808 11 q 977 -5 895 -5 q 1074 22 1047 -5 q 1115 203 1101 49 q 1128 651 1128 358 l 684 651 q 179 -125 640 119 l 119 -22 q 570 651 521 184 l 184 651 l 184 754 m 353 1074 q 494 852 439 971 l 380 808 q 250 1025 331 928 l 353 1074 m 798 505 q 939 250 884 385 l 819 195 q 694 450 770 336 l 798 505 z "},"主":{"ha":1389,"x_min":81,"x_max":1308,"o":"m 689 1134 q 781 960 749 1058 l 667 922 q 581 1101 635 1020 l 689 1134 m 119 895 l 1270 895 l 1270 792 l 743 792 l 743 499 l 1199 499 l 1199 396 l 743 396 l 743 27 l 1308 27 l 1308 -76 l 81 -76 l 81 27 l 635 27 l 635 396 l 184 396 l 184 499 l 635 499 l 635 792 l 119 792 l 119 895 z "},"丽":{"ha":1389,"x_min":87,"x_max":1297,"o":"m 87 1053 l 1297 1053 l 1297 949 l 87 949 l 87 1053 m 635 836 l 635 16 q 600 -84 635 -49 q 494 -119 564 -119 q 407 -114 456 -119 l 380 -5 l 488 -11 q 526 43 526 -11 l 526 732 l 266 732 l 266 -136 l 157 -136 l 157 836 l 635 836 m 1237 836 l 1237 16 q 1199 -84 1237 -49 q 1090 -119 1161 -119 q 993 -114 1047 -119 l 966 -5 q 1085 -11 1047 -11 q 1128 43 1128 -11 l 1128 732 l 836 732 l 836 -136 l 727 -136 l 727 836 l 1237 836 m 423 581 q 461 217 450 401 l 369 190 q 326 559 358 385 l 423 581 m 998 575 q 1047 212 1036 396 l 955 184 q 901 553 939 385 l 998 575 z "},"举":{"ha":1389,"x_min":71,"x_max":1324,"o":"m 656 1128 q 743 901 722 1015 l 618 863 q 543 1101 602 993 l 656 1128 m 814 700 l 581 700 q 125 326 439 445 l 71 434 q 450 700 336 532 l 119 700 l 119 803 l 890 803 q 1020 1118 966 955 l 1156 1080 q 1009 803 1085 922 l 1275 803 l 1275 700 l 933 700 q 1324 434 1085 521 l 1264 320 q 814 700 987 450 m 315 1096 q 467 890 407 1004 l 363 830 q 217 1036 309 939 l 315 1096 m 407 477 l 640 477 l 640 618 l 749 618 l 749 477 l 998 477 l 998 374 l 749 374 l 749 228 l 1237 228 l 1237 125 l 749 125 l 749 -130 l 640 -130 l 640 125 l 163 125 l 163 228 l 640 228 l 640 374 l 407 374 l 407 477 z "},"乃":{"ha":1389,"x_min":81,"x_max":1291,"o":"m 168 1053 l 1053 1053 l 987 651 l 1291 651 q 1207 -11 1270 103 q 1004 -125 1145 -125 q 803 -92 922 -125 l 776 38 q 1004 -5 922 -5 q 1107 65 1085 -5 q 1166 548 1150 174 l 841 548 l 911 949 l 543 949 q 445 244 521 450 q 174 -125 369 38 l 81 -43 q 334 293 260 103 q 429 949 407 483 l 168 949 l 168 1053 z "},"久":{"ha":1389,"x_min":81,"x_max":1329,"o":"m 521 1134 l 629 1112 q 559 922 602 1015 l 1009 922 l 1009 814 q 958 659 1009 798 q 846 423 906 521 q 1329 -11 1042 119 l 1270 -130 q 781 326 971 16 q 130 -130 553 5 l 81 -11 q 890 814 732 174 l 499 814 q 201 450 374 591 l 114 537 q 521 1134 391 776 z "},"么":{"ha":1389,"x_min":92,"x_max":1275,"o":"m 591 1112 l 700 1074 q 195 336 510 640 l 92 396 q 591 1112 418 716 m 841 879 l 949 836 q 380 33 662 250 q 1047 125 684 43 q 906 358 982 250 l 1004 407 q 1275 -71 1166 190 l 1156 -119 q 1096 27 1128 -43 q 260 -71 678 -60 l 212 33 q 841 879 613 363 z "},"义":{"ha":1389,"x_min":109,"x_max":1302,"o":"m 689 1096 q 781 776 760 939 l 673 743 q 575 1069 646 917 l 689 1096 m 347 960 q 722 331 418 651 q 1053 993 982 570 l 1156 966 q 808 255 1090 526 q 1302 -22 1004 98 l 1242 -130 q 722 179 944 -16 q 163 -130 499 -5 l 109 -27 q 635 260 429 98 q 239 933 331 564 l 347 960 z "},"之":{"ha":1389,"x_min":76,"x_max":1324,"o":"m 646 1123 q 754 863 716 1004 l 1215 863 l 1215 765 q 488 136 884 412 q 700 49 581 76 q 1069 22 819 22 l 1324 22 l 1291 -103 q 735 -76 911 -103 q 464 14 559 -49 q 347 76 369 76 q 307 52 331 76 q 163 -130 282 27 l 76 -43 q 260 160 217 125 q 342 195 304 195 l 363 195 q 1042 754 803 505 l 152 754 l 152 863 l 629 863 q 532 1085 591 987 l 646 1123 z "},"乌":{"ha":1389,"x_min":125,"x_max":1237,"o":"m 564 1128 l 684 1090 q 635 982 667 1042 l 1107 982 q 1072 618 1107 678 q 933 559 1036 559 q 765 570 863 559 l 749 667 q 922 656 846 656 q 971 689 960 656 q 993 879 982 722 l 391 879 l 391 461 l 1237 461 q 1199 -41 1237 38 q 1058 -119 1161 -119 q 906 -109 993 -119 l 884 0 q 1042 -11 977 -11 q 1099 30 1085 -11 q 1123 358 1112 71 l 282 358 l 282 982 l 515 982 q 564 1128 543 1047 m 125 212 l 993 212 l 993 109 l 125 109 l 125 212 z "},"乍":{"ha":1389,"x_min":81,"x_max":1318,"o":"m 445 1123 l 559 1096 q 488 933 526 1009 l 1318 933 l 1318 830 l 673 830 l 673 624 l 1204 624 l 1204 521 l 673 521 l 673 309 l 1226 309 l 1226 206 l 673 206 l 673 -125 l 570 -125 l 570 830 l 429 830 l 391 776 q 157 526 293 635 l 81 613 q 296 846 217 738 q 445 1123 374 955 z "},"乎":{"ha":1389,"x_min":60,"x_max":1329,"o":"m 1194 1107 l 1248 1009 q 754 955 1025 977 l 754 483 l 1329 483 l 1329 380 l 754 380 l 754 22 q 724 -87 754 -54 q 613 -119 694 -119 q 418 -103 510 -119 l 396 5 q 597 -16 494 -16 q 632 -5 624 -16 q 640 49 640 5 l 640 380 l 60 380 l 60 483 l 640 483 l 640 949 q 179 928 423 933 l 146 1031 q 1194 1107 667 1031 m 1058 906 l 1172 868 q 987 532 1090 667 l 890 586 q 1058 906 1004 749 m 304 879 q 483 586 407 743 l 374 532 q 206 830 309 689 l 304 879 z "},"乏":{"ha":1389,"x_min":71,"x_max":1329,"o":"m 1183 1101 l 1253 1009 q 174 852 765 911 l 114 960 q 1183 1101 646 1009 m 678 879 q 825 716 765 803 l 727 656 q 586 825 673 743 l 678 879 m 206 635 l 1210 635 l 1210 537 q 499 98 933 271 q 1074 11 662 11 l 1329 11 l 1302 -103 q 735 -79 911 -103 q 461 -3 559 -54 q 342 49 363 49 q 298 27 326 49 q 152 -130 271 5 l 71 -49 q 258 127 212 98 q 336 157 304 157 l 369 157 q 1042 532 770 304 l 206 532 l 206 635 z "},"乐":{"ha":1389,"x_min":103,"x_max":1286,"o":"m 667 868 l 776 868 l 776 586 l 1215 586 l 1215 488 l 776 488 l 776 22 q 746 -90 776 -60 q 635 -119 716 -119 q 488 -103 559 -119 l 467 0 q 618 -16 543 -16 q 667 43 667 -16 l 667 488 l 244 488 l 190 559 q 239 1020 228 803 q 1101 1123 754 1042 l 1145 1025 q 342 928 776 955 q 304 586 326 743 l 667 586 l 667 868 m 374 391 l 477 336 q 190 -43 363 136 l 103 38 q 374 391 266 212 m 1015 385 q 1286 38 1150 239 l 1183 -38 q 928 326 1074 146 l 1015 385 z "},"乒":{"ha":1389,"x_min":76,"x_max":1318,"o":"m 1063 1107 l 1166 1004 q 407 906 781 928 l 407 765 l 1221 765 l 1221 662 l 960 662 l 960 358 l 1318 358 l 1318 255 l 76 255 l 76 358 l 298 358 l 298 998 q 1063 1107 743 1031 m 407 358 l 852 358 l 852 662 l 407 662 l 407 358 m 543 212 l 635 141 q 217 -130 461 -22 l 136 -22 q 543 212 363 65 z "},"乓":{"ha":1389,"x_min":76,"x_max":1318,"o":"m 1063 1107 l 1166 1004 q 407 906 781 928 l 407 765 l 1221 765 l 1221 662 l 960 662 l 960 358 l 1318 358 l 1318 255 l 76 255 l 76 358 l 298 358 l 298 998 q 1063 1107 743 1031 m 407 358 l 852 358 l 852 662 l 407 662 l 407 358 m 846 206 q 1204 -33 1042 103 l 1118 -125 q 776 119 960 16 l 846 206 z "},"乔":{"ha":1389,"x_min":71,"x_max":1313,"o":"m 1112 1123 l 1161 1025 l 689 971 q 646 798 673 879 l 1270 798 l 1270 694 l 939 694 q 1313 434 1053 515 l 1259 331 q 819 694 944 434 l 608 694 q 125 358 483 439 l 71 450 q 483 694 369 521 l 119 694 l 119 798 l 532 798 q 575 966 559 873 q 239 939 407 949 l 195 1042 q 1112 1123 705 1069 m 852 445 l 960 445 l 960 -119 l 852 -119 l 852 445 m 423 445 l 532 445 q 477 79 532 190 q 255 -125 423 -33 l 174 -33 q 372 127 320 33 q 423 445 423 222 z "},"乖":{"ha":1389,"x_min":87,"x_max":1324,"o":"m 1139 1128 l 1194 1036 q 760 987 998 1004 l 760 868 l 1297 868 l 1297 765 l 760 765 l 760 -130 l 651 -130 l 651 765 l 98 765 l 98 868 l 651 868 l 651 982 q 244 960 461 966 l 212 1063 q 1139 1128 678 1063 m 103 559 l 418 559 l 418 689 l 521 689 l 521 11 l 418 11 l 418 174 q 125 87 288 125 l 87 195 q 418 277 271 233 l 418 456 l 103 456 l 103 559 m 884 689 l 987 689 l 987 494 q 1237 646 1128 553 l 1308 559 q 987 374 1172 450 l 987 174 q 1001 141 987 152 q 1069 130 1015 130 q 1194 152 1172 130 q 1221 326 1215 174 l 1324 293 q 1299 106 1318 152 q 1245 43 1280 60 q 1069 27 1210 27 q 920 52 955 27 q 884 136 884 76 l 884 689 z "},"乘":{"ha":1389,"x_min":65,"x_max":1318,"o":"m 1156 1123 l 1204 1031 q 754 987 1004 1004 l 754 873 l 1297 873 l 1297 776 l 754 776 l 754 391 q 1318 43 987 141 l 1264 -65 q 754 271 955 49 l 754 -125 l 646 -125 l 646 260 q 125 -65 418 38 l 65 27 q 646 391 412 146 l 646 776 l 92 776 l 92 873 l 646 873 l 646 977 q 233 960 450 966 l 201 1058 q 1156 1123 678 1058 m 130 656 l 434 656 l 434 722 l 543 722 l 543 336 l 434 336 l 434 385 q 141 298 298 336 l 103 401 q 434 483 282 439 l 434 559 l 130 559 l 130 656 m 863 722 l 971 722 l 971 591 q 1215 700 1101 640 l 1280 613 q 971 494 1139 543 l 971 456 q 985 423 971 434 q 1047 412 998 412 q 1172 429 1150 412 q 1204 515 1194 445 l 1308 483 q 1256 342 1291 369 q 1047 315 1221 315 q 892 336 922 315 q 863 423 863 358 l 863 722 z "},"乙":{"ha":1389,"x_min":136,"x_max":1302,"o":"m 146 1053 l 1156 1053 l 1156 960 q 396 323 526 461 q 266 125 266 184 q 339 54 266 76 q 716 33 412 33 l 792 33 q 1115 76 1063 33 q 1177 266 1166 119 l 1302 222 q 1202 -16 1275 43 q 857 -76 1128 -76 l 716 -76 q 233 -27 331 -76 q 136 125 136 22 q 228 315 136 212 q 960 949 407 510 l 146 949 l 146 1053 z "},"九":{"ha":1389,"x_min":71,"x_max":1329,"o":"m 146 852 l 472 852 q 483 1123 483 977 l 591 1123 q 581 852 591 977 l 1025 852 l 1025 65 q 1039 22 1025 33 q 1096 11 1053 11 q 1188 43 1166 11 q 1215 239 1210 76 l 1329 201 q 1270 -43 1318 16 q 1085 -98 1226 -98 q 944 -71 971 -98 q 917 33 917 -43 l 917 749 l 575 749 q 456 222 548 391 q 130 -125 347 22 l 71 -27 q 358 288 260 98 q 467 749 445 450 l 146 749 l 146 852 z "},"乞":{"ha":1389,"x_min":65,"x_max":1264,"o":"m 391 1134 l 494 1101 l 434 982 l 1210 982 l 1210 879 l 374 879 q 152 608 260 711 l 65 673 q 391 1134 282 879 m 304 694 l 1053 694 l 1053 602 q 461 182 564 271 q 358 49 358 92 q 429 0 358 16 q 765 -16 499 -16 l 841 -16 q 1101 33 1058 -16 q 1156 250 1145 81 l 1264 212 q 1177 -49 1242 11 q 895 -109 1112 -109 l 765 -109 q 323 -68 407 -109 q 239 49 239 -27 q 309 179 239 109 q 857 591 439 298 l 304 591 l 304 694 z "},"也":{"ha":1389,"x_min":81,"x_max":1313,"o":"m 266 987 l 374 987 l 374 678 l 656 760 l 656 1123 l 765 1123 l 765 787 l 1194 901 q 1156 320 1194 401 q 993 239 1118 239 q 884 244 944 239 l 868 353 q 993 336 933 336 q 1053 391 1042 336 q 1074 760 1074 477 l 765 673 l 765 195 l 656 195 l 656 646 l 374 564 l 374 54 q 412 16 374 22 q 754 11 450 11 q 1145 38 1074 11 q 1210 222 1188 54 l 1313 174 q 1218 -57 1286 -16 q 754 -98 1150 -98 q 336 -76 385 -98 q 266 27 266 -54 l 266 537 l 125 499 l 81 602 l 266 651 l 266 987 z "},"习":{"ha":1389,"x_min":174,"x_max":1204,"o":"m 174 1042 l 1204 1042 q 1188 187 1204 396 q 1123 -76 1172 -22 q 993 -130 1074 -130 q 836 -114 917 -130 l 808 5 q 993 -11 901 -11 q 1063 76 1053 -11 q 1090 939 1090 244 l 174 939 l 174 1042 m 401 808 q 776 635 591 754 l 716 537 q 336 722 526 662 l 401 808 m 901 467 l 922 369 q 228 76 613 201 l 184 195 q 901 467 586 315 z "},"乡":{"ha":1389,"x_min":168,"x_max":1107,"o":"m 890 955 l 998 911 q 472 353 760 564 q 939 445 732 391 q 993 646 977 537 l 1107 618 q 852 127 1053 304 q 212 -125 651 -49 l 168 -11 q 879 326 705 71 q 282 228 602 266 l 250 320 q 602 613 434 439 q 212 575 412 586 l 190 678 q 591 1123 434 846 l 700 1090 q 363 684 570 841 q 694 711 559 694 q 890 955 798 819 z "},"书":{"ha":1389,"x_min":98,"x_max":1259,"o":"m 553 1123 l 662 1123 l 662 879 l 1042 879 l 1042 787 q 1023 673 1042 776 q 982 494 1004 570 l 1248 494 q 1207 46 1248 130 q 1080 -38 1166 -38 q 906 -22 998 -38 l 884 87 q 1069 71 982 71 q 1109 98 1101 71 q 1134 391 1118 125 l 662 391 l 662 -125 l 553 -125 l 553 391 l 98 391 l 98 494 l 553 494 l 553 776 l 217 776 l 217 879 l 553 879 l 553 1123 m 868 494 q 933 776 906 608 l 662 776 l 662 494 l 868 494 m 998 1107 q 1259 917 1139 1025 l 1183 830 q 928 1031 1063 949 l 998 1107 z "},"买":{"ha":1389,"x_min":109,"x_max":1286,"o":"m 130 1058 l 1259 1058 l 1259 960 q 1128 711 1210 836 l 1036 765 q 1128 955 1096 857 l 130 955 l 130 1058 m 412 884 q 656 694 548 803 l 581 602 q 336 808 467 727 l 412 884 m 109 385 l 700 385 q 743 608 738 483 l 743 857 l 852 857 l 852 591 q 819 385 852 488 l 1286 385 l 1286 282 l 781 282 q 212 -125 651 16 l 125 -33 q 646 282 515 81 l 109 282 l 109 385 m 271 705 q 510 515 401 624 l 434 423 q 195 629 320 548 l 271 705 m 857 212 q 1259 -33 1074 109 l 1172 -125 q 787 125 998 22 l 857 212 z "},"乱":{"ha":1389,"x_min":81,"x_max":1318,"o":"m 873 1123 l 982 1123 l 982 38 q 996 8 982 16 q 1080 0 1009 0 q 1180 27 1156 0 q 1215 179 1204 54 l 1318 141 q 1253 -65 1297 -27 q 1080 -103 1210 -103 q 911 -76 949 -103 q 873 16 873 -49 l 873 1123 m 716 1101 l 765 1009 l 477 966 l 477 765 l 765 765 l 765 662 l 477 662 l 477 439 l 705 439 l 705 -125 l 597 -125 l 597 -33 l 250 -33 l 250 -125 l 141 -125 l 141 439 l 369 439 l 369 662 l 81 662 l 81 765 l 369 765 l 369 949 q 119 922 250 933 l 81 1025 q 716 1101 429 1053 m 250 71 l 597 71 l 597 336 l 250 336 l 250 71 z "},"乳":{"ha":1389,"x_min":81,"x_max":1318,"o":"m 716 1134 l 770 1031 q 146 955 515 966 l 114 1053 q 716 1134 412 1053 m 700 939 l 798 906 q 689 673 749 765 l 597 722 q 700 939 662 830 m 461 917 q 505 705 494 814 l 401 673 q 369 895 391 792 l 461 917 m 190 901 q 293 711 255 814 l 195 667 q 103 857 163 776 l 190 901 m 803 353 l 825 255 l 515 201 l 515 -22 q 477 -98 515 -71 q 369 -125 439 -125 q 260 -109 315 -125 l 244 -5 q 342 -22 288 -22 q 407 0 407 -22 l 407 184 q 119 146 266 163 l 81 255 q 407 293 250 271 l 407 385 q 586 526 505 456 l 130 526 l 130 624 l 738 624 l 738 510 q 515 326 635 412 l 515 309 l 803 353 m 873 1123 l 982 1123 l 982 38 q 996 8 982 16 q 1080 0 1009 0 q 1180 27 1156 0 q 1215 179 1204 54 l 1318 141 q 1253 -65 1297 -27 q 1080 -103 1210 -103 q 911 -76 949 -103 q 873 16 873 -49 l 873 1123 z "},"乾":{"ha":1389,"x_min":71,"x_max":1329,"o":"m 87 1004 l 326 1004 l 326 1123 l 434 1123 l 434 1004 l 673 1004 l 673 906 l 434 906 l 434 792 l 640 792 l 640 293 l 434 293 l 434 174 l 694 174 l 694 76 l 434 76 l 434 -125 l 326 -125 l 326 76 l 71 76 l 71 174 l 326 174 l 326 293 l 119 293 l 119 792 l 326 792 l 326 906 l 87 906 l 87 1004 m 222 586 l 537 586 l 537 700 l 222 700 l 222 586 m 222 385 l 537 385 l 537 494 l 222 494 l 222 385 m 863 1128 l 971 1107 q 933 960 955 1031 l 1318 960 l 1318 857 l 890 857 l 825 727 q 738 597 787 651 l 656 667 q 863 1128 798 846 m 819 673 l 1237 673 l 1237 591 l 906 157 q 846 38 846 76 q 873 8 846 16 q 1031 0 901 0 l 1101 0 q 1191 22 1172 0 q 1215 130 1210 43 l 1329 98 q 1270 -65 1313 -33 q 1101 -98 1226 -98 l 998 -98 q 776 -65 830 -98 q 722 38 722 -33 q 819 217 722 92 l 1090 570 l 819 570 l 819 673 z "},"了":{"ha":1389,"x_min":146,"x_max":1232,"o":"m 146 1053 l 1232 1053 l 1232 939 q 770 629 1025 770 l 770 -22 q 732 -103 770 -76 q 624 -130 694 -130 q 429 -109 526 -130 l 412 0 q 597 -22 494 -22 q 662 0 662 -22 l 662 684 q 1074 949 895 819 l 146 949 l 146 1053 z "},"予":{"ha":1389,"x_min":103,"x_max":1286,"o":"m 244 1080 l 1134 1080 l 1134 982 q 776 700 939 798 q 873 640 825 667 l 1286 640 l 1286 543 q 1090 260 1204 401 l 993 315 q 1150 537 1090 423 l 787 537 l 787 11 q 757 -98 787 -65 q 640 -130 727 -130 q 521 -114 581 -130 l 499 -11 q 629 -27 559 -27 q 670 -14 656 -27 q 684 38 684 0 l 684 537 l 103 537 l 103 640 l 667 640 q 369 776 521 716 l 439 852 q 656 760 553 808 q 966 971 819 846 l 244 971 l 244 1080 z "},"争":{"ha":1389,"x_min":71,"x_max":1329,"o":"m 423 933 q 136 711 298 798 l 71 798 q 456 1134 331 955 l 548 1080 l 505 1025 l 1009 1025 l 1009 939 q 911 803 960 863 l 1183 803 l 1183 553 l 1329 553 l 1329 450 l 1183 450 l 1183 141 l 1074 141 l 1074 201 l 743 201 l 743 11 q 713 -95 743 -65 q 586 -125 684 -125 q 434 -114 505 -125 l 412 -5 q 586 -22 499 -22 q 635 33 635 -22 l 635 201 l 212 201 l 212 304 l 635 304 l 635 450 l 71 450 l 71 553 l 635 553 l 635 700 l 293 700 l 293 803 l 776 803 q 868 933 836 868 l 423 933 m 743 700 l 743 553 l 1074 553 l 1074 700 l 743 700 m 743 450 l 743 304 l 1074 304 l 1074 450 l 743 450 z "},"事":{"ha":1389,"x_min":71,"x_max":1318,"o":"m 87 1058 l 624 1058 l 624 1123 l 732 1123 l 732 1058 l 1286 1058 l 1286 955 l 732 955 l 732 895 l 1177 895 l 1177 618 l 732 618 l 732 553 l 1194 553 l 1194 374 l 1318 374 l 1318 271 l 1194 271 l 1194 43 l 1085 43 l 1085 87 l 732 87 l 732 11 q 700 -98 732 -65 q 586 -130 667 -130 q 385 -119 477 -130 l 363 -16 q 570 -27 467 -27 q 613 -14 602 -27 q 624 38 624 0 l 624 87 l 130 87 l 130 190 l 624 190 l 624 271 l 71 271 l 71 374 l 624 374 l 624 450 l 130 450 l 130 553 l 624 553 l 624 618 l 184 618 l 184 895 l 624 895 l 624 955 l 87 955 l 87 1058 m 293 722 l 624 722 l 624 792 l 293 792 l 293 722 m 732 792 l 732 722 l 1069 722 l 1069 792 l 732 792 m 732 450 l 732 374 l 1085 374 l 1085 450 l 732 450 m 732 271 l 732 190 l 1085 190 l 1085 271 l 732 271 z "},"二":{"ha":1389,"x_min":76,"x_max":1308,"o":"m 195 966 l 1188 966 l 1188 863 l 195 863 l 195 966 m 76 103 l 1308 103 l 1308 0 l 76 0 l 76 103 z "},"于":{"ha":1389,"x_min":87,"x_max":1302,"o":"m 179 1042 l 1204 1042 l 1204 939 l 765 939 l 765 586 l 1302 586 l 1302 483 l 765 483 l 765 16 q 735 -92 765 -60 q 608 -125 705 -125 q 429 -109 515 -125 l 407 -5 q 591 -22 499 -22 q 640 -11 624 -22 q 656 43 656 0 l 656 483 l 87 483 l 87 586 l 656 586 l 656 939 l 179 939 l 179 1042 z "},"亏":{"ha":1389,"x_min":87,"x_max":1297,"o":"m 271 1074 l 1139 1074 l 1139 971 l 271 971 l 271 1074 m 412 646 l 87 646 l 87 743 l 1297 743 l 1297 646 l 532 646 l 461 418 l 1139 418 q 1093 -41 1139 38 q 906 -119 1047 -119 q 738 -109 825 -119 l 705 -5 q 895 -16 814 -16 q 998 27 977 -16 q 1036 315 1036 103 l 315 315 l 412 646 z "},"云":{"ha":1389,"x_min":81,"x_max":1302,"o":"m 201 1031 l 1183 1031 l 1183 928 l 201 928 l 201 1031 m 81 656 l 1302 656 l 1302 553 l 678 553 q 358 33 515 184 q 1004 109 651 43 q 873 363 944 244 l 977 407 q 1204 -76 1112 190 l 1090 -125 l 1047 5 q 244 -81 646 -76 l 195 27 q 548 553 423 250 l 81 553 l 81 656 z "},"互":{"ha":1389,"x_min":65,"x_max":1324,"o":"m 119 1047 l 1275 1047 l 1275 944 l 548 944 l 494 754 l 1156 754 l 1156 651 l 993 33 l 1324 33 l 1324 -71 l 65 -71 l 65 33 l 873 33 l 944 277 l 315 277 l 271 363 l 434 944 l 119 944 l 119 1047 m 971 380 l 1053 651 l 467 651 l 391 380 l 971 380 z "},"五":{"ha":1389,"x_min":87,"x_max":1302,"o":"m 141 1047 l 1248 1047 l 1248 944 l 684 944 l 608 618 l 1128 618 l 1128 38 l 1302 38 l 1302 -65 l 87 -65 l 87 38 l 374 38 l 477 515 l 190 515 l 190 618 l 499 618 l 575 944 l 141 944 l 141 1047 m 483 38 l 1020 38 l 1020 515 l 586 515 l 483 38 z "},"井":{"ha":1389,"x_min":92,"x_max":1297,"o":"m 125 873 l 401 873 l 401 1123 l 510 1123 l 510 873 l 884 873 l 884 1123 l 993 1123 l 993 873 l 1264 873 l 1264 770 l 993 770 l 993 429 l 1297 429 l 1297 326 l 993 326 l 993 -125 l 884 -125 l 884 326 l 505 326 q 179 -136 472 43 l 119 -33 q 396 326 363 114 l 92 326 l 92 429 l 401 429 l 401 770 l 125 770 l 125 873 m 884 429 l 884 770 l 510 770 l 510 429 l 884 429 z "},"亚":{"ha":1389,"x_min":65,"x_max":1313,"o":"m 119 1063 l 1248 1063 l 1248 960 l 879 960 l 879 22 l 1313 22 l 1313 -81 l 65 -81 l 65 22 l 488 22 l 488 960 l 119 960 l 119 1063 m 770 22 l 770 960 l 597 960 l 597 22 l 770 22 m 1096 770 l 1204 732 q 1031 206 1139 439 l 928 260 q 1096 770 1025 488 m 288 760 q 396 271 369 521 l 288 239 q 179 732 260 505 l 288 760 z "},"些":{"ha":1389,"x_min":71,"x_max":1324,"o":"m 385 1123 l 494 1123 l 494 922 l 705 922 l 705 819 l 494 819 l 494 526 l 705 559 l 727 472 q 114 358 450 407 l 76 467 l 146 477 l 146 982 l 255 982 l 255 488 l 385 510 l 385 1123 m 770 1123 l 879 1123 l 879 863 q 1194 1015 1063 922 l 1270 928 q 879 754 1101 825 l 879 537 q 895 507 879 515 q 998 499 911 499 q 1164 510 1134 499 q 1204 551 1194 521 q 1221 689 1215 581 l 1324 656 q 1259 434 1313 477 q 998 396 1215 396 q 811 420 852 396 q 770 505 770 445 l 770 1123 m 217 288 l 1156 288 l 1156 184 l 217 184 l 217 288 m 71 22 l 1313 22 l 1313 -81 l 71 -81 l 71 22 z "},"亡":{"ha":1389,"x_min":81,"x_max":1308,"o":"m 81 873 l 684 873 q 586 1074 640 982 l 689 1123 q 798 873 754 1004 l 1308 873 l 1308 770 l 380 770 l 380 22 l 1253 22 l 1253 -81 l 271 -81 l 271 770 l 81 770 l 81 873 z "},"交":{"ha":1389,"x_min":65,"x_max":1329,"o":"m 98 944 l 629 944 q 559 1090 602 1025 l 673 1128 q 754 944 722 1042 l 1286 944 l 1286 841 l 98 841 l 98 944 m 439 803 l 526 732 q 163 450 385 559 l 98 553 q 439 803 288 640 m 944 792 q 1270 543 1123 684 l 1188 445 q 868 716 1036 602 l 944 792 m 928 526 l 1031 483 q 803 190 944 315 q 1329 -16 1058 43 l 1264 -130 q 711 114 917 -27 q 119 -136 450 -54 l 65 -27 q 608 184 401 43 q 331 450 450 304 l 423 521 q 700 255 537 369 q 928 526 836 369 z "},"亥":{"ha":1389,"x_min":98,"x_max":1297,"o":"m 711 1128 q 787 960 760 1053 l 1297 960 l 1297 857 l 629 857 q 385 575 532 689 q 760 618 608 586 q 906 792 841 700 l 993 716 q 665 377 841 505 q 184 152 488 250 l 130 255 q 640 505 483 369 q 250 456 456 472 l 228 564 q 505 857 391 678 l 98 857 l 98 960 l 662 960 q 597 1090 635 1031 l 711 1128 m 1080 548 l 1172 472 q 928 217 1053 326 q 1275 -49 1123 92 l 1183 -141 q 836 152 1031 16 q 174 -130 575 -22 l 119 -27 q 703 212 494 81 q 1080 548 911 342 z "},"亦":{"ha":1389,"x_min":76,"x_max":1313,"o":"m 678 1128 q 770 895 738 1020 l 1313 895 l 1313 792 l 933 792 l 933 27 q 906 -81 933 -49 q 798 -114 879 -114 q 700 -109 743 -114 l 678 5 q 798 -5 738 -5 q 825 49 825 -5 l 825 792 l 608 792 q 591 353 608 445 q 469 71 559 190 q 206 -125 380 -49 l 136 -33 q 358 122 277 33 q 469 326 439 212 q 499 792 499 439 l 76 792 l 76 895 l 646 895 q 564 1090 618 1004 l 678 1128 m 1101 651 q 1313 212 1226 450 l 1199 157 q 998 602 1123 391 l 1101 651 m 304 635 l 412 597 q 201 168 331 358 l 98 228 q 304 635 217 407 z "},"产":{"ha":1389,"x_min":60,"x_max":1280,"o":"m 700 1112 q 754 971 738 1042 l 1270 971 l 1270 868 l 152 868 l 152 971 l 629 971 q 586 1085 613 1031 l 700 1112 m 922 841 l 1047 803 q 939 608 1009 711 l 1280 608 l 1280 505 l 320 505 l 320 244 q 163 -136 320 33 l 60 -76 q 212 304 212 98 l 212 608 l 814 608 q 922 841 879 705 m 499 836 q 586 662 559 760 l 477 624 q 391 803 445 722 l 499 836 z "},"亩":{"ha":1389,"x_min":76,"x_max":1313,"o":"m 1204 738 l 1204 -130 l 1096 -130 l 1096 -43 l 288 -43 l 288 -130 l 179 -130 l 179 738 l 1204 738 m 288 396 l 635 396 l 635 635 l 288 635 l 288 396 m 743 635 l 743 396 l 1096 396 l 1096 635 l 743 635 m 288 60 l 635 60 l 635 298 l 288 298 l 288 60 m 743 60 l 1096 60 l 1096 298 l 743 298 l 743 60 m 711 1128 q 776 987 754 1063 l 1313 987 l 1313 884 l 76 884 l 76 987 l 640 987 q 597 1090 624 1047 l 711 1128 z "},"享":{"ha":1389,"x_min":76,"x_max":1313,"o":"m 716 1128 q 781 1025 760 1080 l 1313 1025 l 1313 933 l 76 933 l 76 1025 l 651 1025 q 608 1096 635 1063 l 716 1128 m 260 857 l 1172 857 l 1172 570 l 260 570 l 260 857 m 369 673 l 1063 673 l 1063 760 l 369 760 l 369 673 m 212 505 l 1172 505 l 1172 385 q 770 260 993 320 l 770 222 l 1297 222 l 1297 119 l 770 119 l 770 -27 q 732 -103 770 -76 q 624 -130 694 -130 q 483 -114 553 -130 l 467 -11 q 597 -27 521 -27 q 662 -5 662 -27 l 662 119 l 87 119 l 87 222 l 662 222 l 662 315 q 939 401 814 358 l 212 401 l 212 505 z "},"京":{"ha":1389,"x_min":71,"x_max":1313,"o":"m 711 1128 q 776 987 754 1063 l 1313 987 l 1313 884 l 76 884 l 76 987 l 640 987 q 597 1090 624 1047 l 711 1128 m 239 781 l 1123 781 l 1123 363 l 749 363 l 749 16 q 722 -95 749 -65 q 624 -125 694 -125 q 445 -109 526 -125 l 423 0 q 608 -22 515 -22 q 640 43 640 -22 l 640 363 l 239 363 l 239 781 m 347 467 l 1015 467 l 1015 678 l 347 678 l 347 467 m 401 315 l 499 260 q 136 -71 374 65 l 71 16 q 401 315 288 152 m 960 315 q 1286 22 1123 190 l 1199 -71 q 868 255 1058 92 l 960 315 z "},"亭":{"ha":1389,"x_min":92,"x_max":1291,"o":"m 92 1020 l 646 1020 q 613 1107 635 1069 l 727 1139 q 781 1020 760 1085 l 1291 1020 l 1291 928 l 92 928 l 92 1020 m 271 857 l 1118 857 l 1118 591 l 271 591 l 271 857 m 380 678 l 1009 678 l 1009 770 l 380 770 l 380 678 m 1291 526 l 1291 260 l 1183 260 l 1183 434 l 212 434 l 212 271 l 103 271 l 103 526 l 1291 526 m 277 353 l 1128 353 l 1128 255 l 781 255 l 781 11 q 751 -95 781 -65 q 624 -125 722 -125 q 429 -103 521 -125 l 407 5 q 624 -22 515 -22 q 673 27 673 -22 l 673 255 l 277 255 l 277 353 z "},"亮":{"ha":1389,"x_min":76,"x_max":1313,"o":"m 716 1128 q 781 1025 760 1080 l 1313 1025 l 1313 933 l 76 933 l 76 1025 l 651 1025 q 608 1096 635 1063 l 716 1128 m 282 868 l 1112 868 l 1112 608 l 282 608 l 282 868 m 380 700 l 1009 700 l 1009 776 l 380 776 l 380 700 m 1248 537 l 1248 277 l 1150 277 l 1150 439 l 244 439 l 244 266 l 141 266 l 141 537 l 1248 537 m 949 353 l 949 54 q 966 16 949 27 q 1042 5 982 5 q 1175 27 1150 5 q 1210 141 1199 49 l 1313 103 q 1259 -57 1308 -16 q 1036 -98 1210 -98 q 876 -73 906 -98 q 846 27 846 -49 l 846 255 l 532 255 l 532 212 q 450 -14 532 60 q 141 -125 369 -87 l 76 -22 q 361 65 298 11 q 423 239 423 119 l 423 353 l 949 353 z "},"亲":{"ha":1389,"x_min":92,"x_max":1297,"o":"m 716 1128 q 776 982 760 1053 l 1242 982 l 1242 879 l 152 879 l 152 982 l 651 982 q 602 1096 635 1042 l 716 1128 m 960 868 l 1085 825 q 982 662 1036 727 l 1286 662 l 1286 559 l 754 559 l 754 396 l 1248 396 l 1248 293 l 754 293 l 754 5 q 727 -95 754 -65 q 602 -125 700 -125 q 483 -109 543 -125 l 467 -11 q 602 -22 537 -22 q 646 22 646 -22 l 646 293 l 152 293 l 152 396 l 646 396 l 646 559 l 98 559 l 98 662 l 401 662 q 315 819 369 749 l 418 852 q 521 662 483 765 l 857 662 q 960 868 922 754 m 456 255 l 521 163 q 146 -65 353 22 l 92 38 q 456 255 271 109 m 928 250 q 1297 16 1128 146 l 1215 -71 q 857 157 1053 65 l 928 250 z "},"人":{"ha":1389,"x_min":60,"x_max":1329,"o":"m 629 1096 l 743 1096 l 743 798 q 868 412 743 662 q 1329 -11 993 163 l 1270 -125 q 700 532 852 92 q 119 -125 575 130 l 60 -22 q 629 798 629 315 l 629 1096 z "},"亿":{"ha":1389,"x_min":54,"x_max":1318,"o":"m 385 1123 l 494 1090 q 353 781 434 933 l 353 -125 l 244 -125 l 244 608 q 109 445 179 521 l 54 553 q 385 1123 288 825 m 543 1058 l 1226 1058 l 1226 971 l 732 298 q 640 103 640 168 q 675 43 640 60 q 917 27 711 27 l 1020 27 q 1161 65 1134 27 q 1204 255 1188 103 l 1318 222 q 1240 -30 1297 16 q 1020 -76 1183 -76 l 879 -76 q 589 -35 656 -76 q 521 103 521 5 q 656 385 521 190 l 1080 955 l 543 955 l 543 1058 z "},"什":{"ha":1389,"x_min":54,"x_max":1318,"o":"m 445 700 l 830 700 l 830 1123 l 939 1123 l 939 700 l 1318 700 l 1318 597 l 939 597 l 939 -136 l 830 -136 l 830 597 l 445 597 l 445 700 m 385 1123 l 494 1090 q 353 781 434 933 l 353 -125 l 244 -125 l 244 608 q 109 445 179 521 l 54 553 q 385 1123 288 825 z "},"仁":{"ha":1389,"x_min":54,"x_max":1318,"o":"m 385 1123 l 494 1090 q 353 781 434 933 l 353 -125 l 244 -125 l 244 608 q 109 445 179 521 l 54 553 q 385 1123 288 825 m 505 966 l 1248 966 l 1248 863 l 505 863 l 505 966 m 423 92 l 1318 92 l 1318 -11 l 423 -11 l 423 92 z "},"仅":{"ha":1389,"x_min":54,"x_max":1318,"o":"m 483 1042 l 1166 1042 q 933 298 1134 608 q 1318 -22 1080 114 l 1264 -125 q 868 195 1031 0 q 467 -125 711 0 l 401 -27 q 792 293 651 98 q 543 939 613 559 l 483 939 l 483 1042 m 651 939 q 863 391 716 613 q 1047 939 1009 651 l 651 939 m 342 1123 l 450 1090 q 353 841 407 966 l 353 -125 l 244 -125 l 244 635 q 109 445 179 532 l 54 553 q 342 1123 255 825 z "},"仆":{"ha":1389,"x_min":54,"x_max":1248,"o":"m 385 1123 l 494 1090 q 353 781 434 933 l 353 -125 l 244 -125 l 244 608 q 109 445 179 521 l 54 553 q 385 1123 288 825 m 857 581 l 857 -125 l 743 -125 l 743 1128 l 857 1128 l 857 716 q 1248 391 1085 548 l 1172 282 q 857 581 1015 450 z "},"仇":{"ha":1389,"x_min":54,"x_max":1324,"o":"m 326 1123 l 434 1090 q 320 792 385 939 l 320 -125 l 212 -125 l 212 586 q 109 445 163 510 l 54 553 q 326 1123 239 825 m 662 1118 l 770 1118 l 770 852 l 1107 852 q 1069 54 1069 380 q 1101 -5 1069 -5 l 1150 -5 q 1194 24 1177 -5 q 1215 179 1210 54 l 1324 146 q 1278 -57 1313 -11 q 1156 -109 1242 -103 l 1107 -109 q 990 -79 1020 -109 q 960 38 960 -49 q 987 749 960 320 l 770 749 q 765 722 770 722 q 407 -114 765 109 l 336 -22 q 575 258 494 81 q 656 749 656 434 l 461 749 l 461 852 l 662 852 l 662 1118 z "},"今":{"ha":1389,"x_min":49,"x_max":1335,"o":"m 694 949 q 119 526 456 689 l 49 618 q 689 1128 472 846 l 787 1069 q 760 1031 776 1047 q 1335 640 1031 770 l 1270 532 q 694 949 966 673 m 700 765 q 781 548 754 667 l 678 510 q 597 732 651 635 l 700 765 m 206 439 l 1134 439 l 1134 342 q 716 -125 906 27 l 629 -43 q 977 336 814 103 l 206 336 l 206 439 z "},"介":{"ha":1389,"x_min":65,"x_max":1335,"o":"m 673 1123 l 781 1090 l 754 1053 q 1335 640 1031 781 l 1270 532 q 694 977 987 678 q 125 532 445 700 l 65 629 q 673 1123 488 863 m 873 640 l 982 640 l 982 -125 l 873 -125 l 873 640 m 401 635 l 510 635 l 510 309 q 201 -130 510 38 l 141 -33 q 401 309 401 103 l 401 635 z "},"仍":{"ha":1389,"x_min":54,"x_max":1308,"o":"m 342 1123 l 450 1090 q 353 841 407 966 l 353 -125 l 244 -125 l 244 635 q 109 445 179 532 l 54 553 q 342 1123 255 825 m 505 1053 l 1128 1053 l 1074 651 l 1308 651 q 1226 5 1286 146 q 1036 -114 1177 -114 q 933 -103 993 -114 l 906 16 q 1036 0 987 0 q 1134 76 1101 0 q 1183 548 1166 152 l 949 548 l 998 949 l 749 949 q 675 236 732 439 q 488 -125 618 33 l 391 -43 q 570 288 521 98 q 635 949 618 477 l 505 949 l 505 1053 z "},"从":{"ha":1389,"x_min":60,"x_max":1329,"o":"m 901 434 q 532 -136 846 114 l 456 -49 q 751 334 667 109 q 836 1123 836 559 l 949 1123 q 944 808 949 960 l 933 673 q 993 456 933 635 q 1128 171 1053 277 q 1329 -33 1204 65 l 1237 -119 q 901 434 1004 92 m 336 1128 l 445 1128 l 445 798 q 423 515 445 651 q 651 298 553 418 l 586 201 q 401 396 510 304 q 152 -119 320 76 l 60 -43 q 336 798 336 298 l 336 1128 z "},"仑":{"ha":1389,"x_min":60,"x_max":1329,"o":"m 667 1128 l 776 1096 q 743 1053 760 1069 q 1329 651 1004 798 l 1264 537 q 678 971 966 684 q 119 532 439 700 l 60 635 q 667 1128 483 868 m 363 608 l 483 608 l 483 418 q 982 581 798 483 l 1058 499 q 483 315 830 380 l 483 49 q 526 16 483 27 q 743 5 570 5 q 998 33 960 5 q 1053 184 1036 60 l 1172 152 q 1096 -54 1150 -5 q 743 -98 1047 -98 q 423 -73 483 -98 q 363 16 363 -49 l 363 608 z "},"仓":{"ha":1389,"x_min":60,"x_max":1329,"o":"m 906 526 l 445 526 l 445 38 q 467 3 445 11 q 656 -5 488 -5 q 1088 24 1042 -5 q 1145 168 1134 54 l 1253 130 q 1145 -71 1221 -27 q 656 -109 1090 -109 q 374 -87 412 -109 q 336 16 336 -65 l 336 629 l 1015 629 q 974 244 1009 320 q 857 168 939 168 q 711 179 787 168 l 694 288 q 846 277 770 277 q 882 298 873 277 q 906 526 890 320 m 667 1128 l 776 1096 q 743 1053 760 1069 q 1329 651 1004 798 l 1264 537 q 678 971 966 684 q 119 532 439 700 l 60 635 q 667 1128 483 868 z "},"仔":{"ha":1389,"x_min":54,"x_max":1324,"o":"m 532 1074 l 1226 1074 l 1226 960 q 939 700 1101 819 l 939 575 l 1324 575 l 1324 472 l 939 472 l 939 -27 q 903 -100 939 -76 q 803 -125 868 -125 q 667 -114 732 -125 l 651 -16 q 776 -27 705 -27 q 841 -11 841 -27 l 841 472 l 434 472 l 434 575 l 841 575 l 841 754 q 1096 971 982 863 l 532 971 l 532 1074 m 342 1123 l 450 1090 q 353 841 407 966 l 353 -125 l 244 -125 l 244 635 q 109 445 179 532 l 54 553 q 342 1123 255 825 z "},"他":{"ha":1389,"x_min":54,"x_max":1313,"o":"m 326 1123 l 434 1090 q 320 792 385 939 l 320 -125 l 212 -125 l 212 586 q 109 445 163 510 l 54 553 q 326 1123 239 825 m 1232 857 q 1202 307 1232 385 q 1107 228 1172 228 q 1004 239 1058 228 l 982 353 q 1080 342 1031 342 q 1109 404 1096 342 q 1128 722 1123 467 l 906 667 l 906 157 l 808 157 l 808 640 l 613 591 l 613 65 q 651 19 613 33 q 901 5 689 5 q 1090 11 993 5 q 1177 41 1156 16 q 1210 184 1199 65 l 1313 141 q 1232 -65 1286 -43 q 901 -98 1161 -98 l 814 -98 q 572 -68 629 -98 q 515 27 515 -38 l 515 570 l 412 543 l 385 629 l 515 667 l 515 982 l 613 982 l 613 694 l 808 743 l 808 1112 l 906 1112 l 906 770 l 1232 857 z "},"仗":{"ha":1389,"x_min":54,"x_max":1318,"o":"m 342 1123 l 450 1090 q 353 841 407 966 l 353 -125 l 244 -125 l 244 635 q 109 445 179 532 l 54 553 q 342 1123 255 825 m 461 863 l 928 863 l 928 1123 l 1036 1123 l 1036 863 l 1308 863 l 1308 760 l 1036 760 l 1036 624 q 917 239 1036 418 q 1318 -5 1058 98 l 1253 -119 q 841 141 1009 -22 q 477 -130 694 -22 l 418 -33 q 765 222 640 87 q 553 618 602 418 l 662 646 q 836 320 705 477 q 928 624 928 467 l 928 760 l 461 760 l 461 863 z "},"付":{"ha":1389,"x_min":54,"x_max":1313,"o":"m 385 1123 l 494 1090 q 353 781 434 933 l 353 -125 l 244 -125 l 244 608 q 109 445 179 521 l 54 553 q 385 1123 288 825 m 472 841 l 1004 841 l 1004 1128 l 1118 1128 l 1118 841 l 1313 841 l 1313 738 l 1118 738 l 1118 16 q 1085 -92 1118 -60 q 960 -125 1053 -125 q 808 -109 879 -125 l 787 0 q 944 -22 863 -22 q 990 -8 977 -22 q 1004 43 1004 5 l 1004 738 l 472 738 l 472 841 m 635 646 q 830 293 754 483 l 727 233 q 537 586 656 418 l 635 646 z "},"仙":{"ha":1389,"x_min":54,"x_max":1270,"o":"m 342 1123 l 450 1090 q 353 841 407 966 l 353 -125 l 244 -125 l 244 635 q 109 445 179 532 l 54 553 q 342 1123 255 825 m 1161 836 l 1270 836 l 1270 -119 l 1161 -119 l 1161 -43 l 494 -43 l 494 836 l 602 836 l 602 60 l 825 60 l 825 1123 l 933 1123 l 933 60 l 1161 60 l 1161 836 z "},"代":{"ha":1389,"x_min":54,"x_max":1324,"o":"m 385 1123 l 494 1090 q 353 781 434 933 l 353 -125 l 244 -125 l 244 608 q 109 445 179 521 l 54 553 q 385 1123 288 825 m 1286 798 l 1297 694 l 819 635 q 977 163 868 315 q 1128 11 1085 11 q 1194 49 1172 11 q 1226 201 1215 87 l 1324 168 q 1267 -60 1308 -5 q 1145 -114 1226 -114 q 906 54 1036 -114 q 711 618 776 222 l 467 591 l 450 694 l 694 727 q 651 1123 667 901 l 760 1123 q 803 738 781 901 l 1286 798 m 982 1101 q 1145 895 1080 1004 l 1053 841 q 890 1042 993 949 l 982 1101 z "},"令":{"ha":1389,"x_min":49,"x_max":1335,"o":"m 694 955 q 119 543 450 705 l 49 640 q 689 1128 472 857 l 787 1069 l 760 1031 q 1335 656 1020 792 l 1270 548 q 694 955 977 684 m 694 792 q 781 597 754 705 l 678 559 q 597 760 651 673 l 694 792 m 217 499 l 1145 499 l 1145 401 q 814 60 966 179 l 955 -33 l 884 -136 q 353 157 673 33 l 407 255 q 711 119 570 190 q 987 396 857 233 l 217 396 l 217 499 z "},"以":{"ha":1389,"x_min":179,"x_max":1318,"o":"m 977 1123 l 1085 1123 q 1074 581 1085 689 q 1031 363 1063 472 q 1318 -22 1194 179 l 1226 -114 q 982 250 1118 81 q 553 -125 852 5 l 483 -33 q 822 222 732 76 q 977 732 911 369 l 977 1123 m 179 1069 l 288 1069 l 288 212 q 629 396 467 293 l 678 304 q 250 71 488 184 l 179 146 l 179 1069 m 515 993 q 743 618 656 814 l 640 559 q 423 933 559 754 l 515 993 z "},"仪":{"ha":1389,"x_min":54,"x_max":1329,"o":"m 342 1123 l 450 1090 q 353 841 407 966 l 353 -125 l 244 -125 l 244 635 q 109 445 179 532 l 54 553 q 342 1123 255 825 m 803 1123 q 944 830 906 982 l 825 798 q 694 1096 792 960 l 803 1123 m 1139 944 l 1242 922 q 955 233 1188 488 q 1329 -38 1112 76 l 1259 -130 q 884 157 1047 -11 q 434 -125 705 -11 l 385 -27 q 808 244 640 87 q 488 911 559 532 l 597 911 q 879 315 662 564 q 1139 944 1085 521 z "},"们":{"ha":1389,"x_min":54,"x_max":1286,"o":"m 689 1128 q 808 966 760 1053 l 711 906 q 597 1074 667 998 l 689 1128 m 884 1063 l 1286 1063 l 1286 16 q 1256 -87 1286 -54 q 1166 -119 1226 -119 q 1047 -114 1118 -119 l 1025 -16 q 1150 -22 1101 -22 q 1183 43 1183 -22 l 1183 971 l 884 971 l 884 1063 m 532 868 l 640 868 l 640 -125 l 532 -125 l 532 868 m 342 1123 l 450 1090 q 353 841 407 966 l 353 -125 l 244 -125 l 244 635 q 109 445 179 532 l 54 553 q 342 1123 255 825 z "},"仰":{"ha":1389,"x_min":54,"x_max":1275,"o":"m 1166 939 l 949 939 l 949 -125 l 841 -125 l 841 1042 l 1275 1042 l 1275 179 q 1248 90 1275 119 q 1166 60 1221 60 q 1031 65 1112 60 l 1004 168 l 1134 163 q 1166 201 1166 163 l 1166 939 m 282 1123 l 385 1090 q 288 792 347 939 l 288 -125 l 184 -125 l 184 570 l 109 445 l 54 553 q 282 1123 212 825 m 754 1085 l 792 987 q 543 890 694 933 l 543 190 q 754 271 646 222 l 787 179 q 477 60 646 119 l 429 119 l 429 977 q 754 1085 602 1015 z "},"仲":{"ha":1389,"x_min":54,"x_max":1275,"o":"m 342 1123 l 450 1090 q 353 841 407 966 l 353 -125 l 244 -125 l 244 635 q 109 445 179 532 l 54 553 q 342 1123 255 825 m 1275 873 l 1275 244 l 1166 244 l 1166 342 l 928 342 l 928 -125 l 819 -125 l 819 342 l 586 342 l 586 244 l 477 244 l 477 873 l 819 873 l 819 1123 l 928 1123 l 928 873 l 1275 873 m 586 445 l 819 445 l 819 770 l 586 770 l 586 445 m 928 770 l 928 445 l 1166 445 l 1166 770 l 928 770 z "},"件":{"ha":1389,"x_min":54,"x_max":1324,"o":"m 326 1123 l 434 1090 q 320 792 385 939 l 320 -125 l 212 -125 l 212 586 q 109 445 163 510 l 54 553 q 326 1123 239 825 m 613 1074 l 716 1042 q 651 863 689 949 l 841 863 l 841 1123 l 949 1123 l 949 863 l 1275 863 l 1275 760 l 949 760 l 949 439 l 1324 439 l 1324 336 l 949 336 l 949 -125 l 841 -125 l 841 336 l 412 336 l 412 439 l 841 439 l 841 760 l 608 760 q 472 532 548 629 l 380 602 q 613 1074 537 808 z "},"价":{"ha":1389,"x_min":54,"x_max":1335,"o":"m 385 1123 l 494 1090 q 353 781 434 933 l 353 -125 l 244 -125 l 244 608 q 109 445 179 521 l 54 553 q 385 1123 288 825 m 852 1123 l 955 1090 q 917 1025 939 1058 q 1335 662 1101 814 l 1270 564 q 857 944 1042 722 q 439 553 678 711 l 385 646 q 852 1123 711 873 m 998 618 l 1107 618 l 1107 -130 l 998 -130 l 998 618 m 597 608 l 705 608 l 705 407 q 483 -130 705 22 l 407 -49 q 543 122 494 16 q 597 423 591 228 l 597 608 z "},"任":{"ha":1389,"x_min":54,"x_max":1308,"o":"m 342 1123 l 450 1090 q 353 841 407 966 l 353 -125 l 244 -125 l 244 635 q 109 445 179 532 l 54 553 q 342 1123 255 825 m 1226 1085 l 1280 987 q 928 944 1123 960 l 928 553 l 1308 553 l 1308 450 l 928 450 l 928 22 l 1280 22 l 1280 -81 l 467 -81 l 467 22 l 819 22 l 819 450 l 445 450 l 445 553 l 819 553 l 819 939 q 510 922 673 928 l 472 1031 q 1226 1085 846 1031 z "},"份":{"ha":1389,"x_min":54,"x_max":1324,"o":"m 342 1123 l 450 1090 q 353 841 407 966 l 353 -125 l 244 -125 l 244 635 q 109 445 179 532 l 54 553 q 342 1123 255 825 m 998 1123 q 1324 635 1156 792 l 1232 559 q 911 1074 1053 749 l 998 1123 m 705 1118 l 808 1096 q 477 537 711 760 l 401 613 q 705 1118 602 808 m 564 586 l 1150 586 q 1115 -24 1150 65 q 998 -114 1080 -114 q 884 -103 949 -114 l 868 0 q 982 -11 933 -11 q 1023 49 1009 -11 q 1042 483 1036 109 l 803 483 q 716 109 792 244 q 477 -125 640 -27 l 401 -43 q 621 163 559 49 q 700 483 684 277 l 564 483 l 564 586 z "},"仿":{"ha":1389,"x_min":54,"x_max":1313,"o":"m 342 1123 l 450 1090 q 353 841 407 966 l 353 -125 l 244 -125 l 244 635 q 109 445 179 532 l 54 553 q 342 1123 255 825 m 890 1123 q 960 911 933 1025 l 1313 911 l 1313 803 l 765 803 q 760 586 765 684 l 1226 586 q 1185 -5 1226 87 q 1031 -98 1145 -98 q 852 -71 955 -98 l 830 43 q 1015 16 939 16 q 1082 68 1063 16 q 1112 477 1101 119 l 754 477 q 667 127 738 271 q 461 -125 597 -16 l 385 -33 q 589 247 526 76 q 651 803 651 418 l 467 803 l 467 911 l 836 911 q 776 1085 814 1009 l 890 1123 z "},"企":{"ha":1389,"x_min":54,"x_max":1340,"o":"m 684 1134 l 803 1101 l 765 1053 q 1340 678 1036 808 l 1275 570 q 694 977 977 711 q 114 548 445 716 l 54 646 q 684 1134 494 879 m 667 770 l 776 770 l 776 456 l 1194 456 l 1194 353 l 776 353 l 776 27 l 1297 27 l 1297 -76 l 92 -76 l 92 27 l 304 27 l 304 570 l 412 570 l 412 27 l 667 27 l 667 770 z "},"伊":{"ha":1389,"x_min":54,"x_max":1324,"o":"m 326 1123 l 434 1090 q 320 792 385 939 l 320 -125 l 212 -125 l 212 586 q 109 445 163 510 l 54 553 q 326 1123 239 825 m 385 727 l 716 727 l 716 944 l 456 944 l 456 1047 l 1221 1047 l 1221 727 l 1324 727 l 1324 618 l 1221 618 l 1221 298 l 787 298 q 450 -125 700 43 l 391 -27 q 667 298 597 119 l 472 298 l 472 401 l 700 401 q 716 526 716 461 l 716 618 l 385 618 l 385 727 m 1112 727 l 1112 944 l 825 944 l 825 727 l 1112 727 m 814 401 l 1112 401 l 1112 618 l 825 618 l 825 526 q 814 401 825 461 z "},"伍":{"ha":1389,"x_min":54,"x_max":1313,"o":"m 288 1123 l 396 1090 q 315 846 363 966 l 315 -125 l 212 -125 l 212 618 q 109 445 163 521 l 54 553 q 288 1123 217 825 m 434 1047 l 1237 1047 l 1237 944 l 836 944 l 787 618 l 1172 618 l 1172 43 l 1313 43 l 1313 -60 l 369 -60 l 369 43 l 581 43 l 651 515 l 445 515 l 445 618 l 667 618 l 722 944 l 434 944 l 434 1047 m 1063 43 l 1063 515 l 770 515 l 694 43 l 1063 43 z "},"伏":{"ha":1389,"x_min":54,"x_max":1335,"o":"m 342 1123 l 450 1090 q 353 841 407 966 l 353 -125 l 244 -125 l 244 635 q 109 445 179 532 l 54 553 q 342 1123 255 825 m 450 749 l 770 749 l 770 1123 l 879 1123 l 879 749 l 1297 749 l 1297 646 l 901 646 q 1335 -16 982 228 l 1253 -125 q 841 494 955 109 q 429 -114 749 130 l 369 -11 q 760 646 705 260 l 450 646 l 450 749 m 1058 1074 q 1226 884 1156 982 l 1139 798 q 966 1004 1069 911 l 1058 1074 z "},"伐":{"ha":1389,"x_min":54,"x_max":1318,"o":"m 385 1123 l 494 1090 q 353 781 434 933 l 353 -125 l 244 -125 l 244 608 q 109 445 179 521 l 54 553 q 385 1123 288 825 m 1280 836 l 1291 732 l 879 678 q 955 358 906 505 q 1156 640 1069 483 l 1253 591 q 998 239 1134 380 q 1166 5 1096 5 q 1221 201 1204 5 l 1318 163 q 1259 -68 1297 -16 q 1166 -119 1221 -119 q 911 163 1036 -119 q 488 -76 727 16 l 434 27 q 868 271 722 136 q 770 662 798 467 l 472 624 l 456 727 l 760 765 q 743 1123 743 933 l 857 1123 q 868 781 857 933 l 1280 836 m 1004 1101 q 1204 960 1112 1042 l 1128 879 q 939 1020 1042 960 l 1004 1101 z "},"休":{"ha":1389,"x_min":54,"x_max":1340,"o":"m 326 1123 l 434 1090 q 320 792 385 939 l 320 -125 l 212 -125 l 212 586 q 109 445 163 510 l 54 553 q 326 1123 239 825 m 412 852 l 798 852 l 798 1123 l 906 1123 l 906 852 l 1297 852 l 1297 749 l 933 749 q 1340 146 1090 331 l 1275 22 q 906 553 1063 201 l 906 -125 l 798 -125 l 798 564 q 418 22 646 228 l 347 114 q 578 388 456 206 q 765 749 700 570 l 412 749 l 412 852 z "},"众":{"ha":1389,"x_min":81,"x_max":1308,"o":"m 646 1139 l 754 1107 q 732 1069 743 1085 q 1286 667 895 803 l 1204 559 q 684 971 852 711 q 136 526 499 678 l 81 635 q 646 1139 483 803 m 846 602 l 955 602 l 955 412 q 1039 228 955 380 q 1308 -22 1123 76 l 1232 -136 q 928 212 1015 5 q 618 -136 852 5 l 559 -33 q 846 385 846 141 l 846 602 m 331 602 l 439 602 l 439 434 q 429 320 439 374 q 651 136 559 239 l 586 38 q 407 212 510 130 q 174 -114 336 11 l 81 -38 q 331 434 331 152 l 331 602 z "},"优":{"ha":1389,"x_min":54,"x_max":1324,"o":"m 450 814 l 743 814 l 765 1123 l 873 1123 q 857 814 868 955 l 1270 814 l 1270 711 l 846 711 q 732 203 814 391 q 488 -130 651 16 l 401 -54 q 627 244 548 71 q 732 711 705 418 l 450 711 l 450 814 m 1020 1090 q 1210 944 1123 1025 l 1139 857 q 949 1020 1047 955 l 1020 1090 m 884 591 l 993 591 l 993 54 q 1006 19 993 27 q 1096 11 1020 11 q 1194 43 1172 11 q 1221 195 1215 76 l 1324 152 q 1261 -57 1302 -16 q 1096 -98 1221 -98 q 922 -68 960 -98 q 884 33 884 -38 l 884 591 m 385 1123 l 494 1090 q 353 781 434 933 l 353 -125 l 244 -125 l 244 608 q 109 445 179 521 l 54 553 q 385 1123 288 825 z "},"伙":{"ha":1389,"x_min":54,"x_max":1329,"o":"m 819 1123 l 928 1123 l 922 646 q 944 570 922 635 q 1177 846 1096 700 l 1270 776 q 977 461 1156 597 q 1329 -22 1096 130 l 1259 -130 q 890 401 993 81 q 477 -125 808 43 l 418 -33 q 667 182 575 60 q 789 450 760 304 q 819 1123 819 597 m 608 873 l 705 836 q 548 369 646 559 l 456 429 q 608 873 553 624 m 385 1123 l 494 1090 q 353 781 434 933 l 353 -125 l 244 -125 l 244 608 q 109 445 179 521 l 54 553 q 385 1123 288 825 z "},"会":{"ha":1389,"x_min":71,"x_max":1324,"o":"m 694 1134 l 808 1096 q 760 1036 787 1063 q 1324 662 1031 792 l 1259 553 q 694 966 977 684 q 125 553 456 716 l 71 651 q 694 1134 505 879 m 412 689 l 982 689 l 982 586 l 412 586 l 412 689 m 510 331 l 125 331 l 125 434 l 1264 434 l 1264 331 l 646 331 q 407 27 526 119 q 966 98 678 43 q 846 222 906 157 l 939 288 q 1237 -38 1090 152 l 1150 -125 q 1042 11 1101 -54 q 250 -87 667 -65 l 217 11 q 510 331 385 125 z "},"伞":{"ha":1389,"x_min":60,"x_max":1329,"o":"m 667 1128 l 776 1096 q 743 1053 760 1069 q 1329 651 1004 798 l 1264 537 q 678 971 966 684 q 119 532 439 700 l 60 635 q 667 1128 483 868 m 103 271 l 635 271 l 635 781 l 743 781 l 743 271 l 1259 271 l 1259 168 l 743 168 l 743 -119 l 635 -119 l 635 168 l 103 168 l 103 271 m 374 608 q 515 369 461 499 l 418 309 q 282 553 369 439 l 374 608 m 982 608 l 1080 570 q 949 304 1031 423 l 857 353 q 982 608 928 467 z "},"伟":{"ha":1389,"x_min":54,"x_max":1275,"o":"m 505 700 l 787 700 l 787 863 l 505 863 l 505 966 l 787 966 l 787 1123 l 895 1123 l 895 966 l 1237 966 l 1237 863 l 895 863 l 895 700 l 1215 700 l 1215 597 l 895 597 l 895 439 l 1275 439 q 1229 43 1270 119 q 1096 -33 1188 -33 q 998 -22 1047 -33 l 982 76 q 1085 71 1036 71 q 1139 109 1128 71 q 1161 336 1150 146 l 895 336 l 895 -130 l 787 -130 l 787 336 l 450 336 l 450 439 l 787 439 l 787 597 l 505 597 l 505 700 m 385 1123 l 494 1090 q 353 781 434 933 l 353 -125 l 244 -125 l 244 608 q 109 445 179 521 l 54 553 q 385 1123 288 825 z "},"传":{"ha":1389,"x_min":54,"x_max":1313,"o":"m 385 1123 l 494 1090 q 353 781 434 933 l 353 -125 l 244 -125 l 244 608 q 109 445 179 521 l 54 553 q 385 1123 288 825 m 803 1128 l 922 1112 l 890 966 l 1270 966 l 1270 863 l 863 863 l 819 711 l 1313 711 l 1313 608 l 787 608 q 727 456 760 526 l 1237 456 l 1237 353 q 1009 81 1139 195 q 1161 -22 1090 33 l 1096 -119 q 559 163 879 38 l 608 260 q 906 130 770 201 q 1107 353 1015 228 l 635 353 l 591 456 q 667 608 635 521 l 429 608 l 429 711 l 700 711 l 749 863 l 499 863 l 499 966 l 776 966 q 803 1128 792 1047 z "},"伤":{"ha":1389,"x_min":54,"x_max":1324,"o":"m 342 1123 l 450 1090 q 353 841 407 966 l 353 -125 l 244 -125 l 244 635 q 109 445 179 532 l 54 553 q 342 1123 255 825 m 656 836 q 488 624 586 716 l 407 694 q 678 1123 597 890 l 781 1090 q 711 939 754 1009 l 1324 939 l 1324 836 l 656 836 m 754 754 l 863 754 q 857 564 863 651 l 1275 564 q 1226 -33 1270 65 q 1058 -114 1183 -114 q 890 -98 987 -114 l 873 5 q 1053 -16 982 -16 q 1118 38 1101 -16 q 1156 461 1156 163 l 852 461 q 735 95 830 233 q 445 -130 640 -43 l 385 -33 q 743 461 711 114 l 505 461 l 505 564 l 749 564 q 754 754 754 646 z "},"伦":{"ha":1389,"x_min":54,"x_max":1329,"o":"m 385 1123 l 494 1090 q 353 781 434 933 l 353 -125 l 244 -125 l 244 608 q 109 445 179 521 l 54 553 q 385 1123 288 825 m 857 939 q 461 543 694 700 l 391 629 q 841 1123 700 863 l 939 1069 q 911 1025 928 1047 q 1329 651 1112 781 l 1270 548 q 857 939 1069 673 m 618 597 l 732 597 l 732 336 q 1101 537 933 423 l 1177 434 q 732 233 977 315 l 732 38 q 762 0 732 11 q 901 -11 792 -11 q 1112 16 1080 -11 q 1156 168 1145 43 l 1264 136 q 1188 -71 1242 -27 q 901 -109 1139 -109 q 665 -84 711 -109 q 618 5 618 -60 l 618 597 z "},"伪":{"ha":1389,"x_min":54,"x_max":1275,"o":"m 450 754 l 760 754 q 781 1123 776 917 l 890 1123 q 868 754 884 917 l 1275 754 q 1256 127 1275 277 q 1188 -68 1237 -22 q 1036 -114 1139 -114 q 863 -103 949 -114 l 836 16 q 1036 5 939 5 q 1123 71 1107 5 q 1150 651 1150 195 l 857 651 q 743 187 830 369 q 510 -125 656 5 l 412 -43 q 637 241 553 76 q 749 651 722 407 l 450 651 l 450 754 m 635 1080 q 716 852 689 977 l 613 819 q 532 1053 586 949 l 635 1080 m 955 494 q 1080 255 1031 380 l 982 201 q 868 434 939 326 l 955 494 m 385 1123 l 494 1090 q 353 781 434 933 l 353 -125 l 244 -125 l 244 608 q 109 445 179 521 l 54 553 q 385 1123 288 825 z "},"伯":{"ha":1389,"x_min":54,"x_max":1253,"o":"m 385 1123 l 494 1090 q 353 781 434 933 l 353 -125 l 244 -125 l 244 608 q 109 445 179 521 l 54 553 q 385 1123 288 825 m 830 1134 l 949 1107 q 884 944 922 1020 l 1253 944 l 1253 -125 l 1145 -125 l 1145 5 l 646 5 l 646 -125 l 537 -125 l 537 944 l 765 944 q 830 1134 808 1036 m 646 526 l 1145 526 l 1145 841 l 646 841 l 646 526 m 646 103 l 1145 103 l 1145 423 l 646 423 l 646 103 z "},"估":{"ha":1389,"x_min":54,"x_max":1313,"o":"m 342 1123 l 450 1090 q 353 841 407 966 l 353 -125 l 244 -125 l 244 635 q 109 445 179 532 l 54 553 q 342 1123 255 825 m 439 852 l 819 852 l 819 1123 l 928 1123 l 928 852 l 1313 852 l 1313 754 l 928 754 l 928 483 l 1232 483 l 1232 -125 l 1123 -125 l 1123 -33 l 646 -33 l 646 -125 l 537 -125 l 537 483 l 819 483 l 819 754 l 439 754 l 439 852 m 646 71 l 1123 71 l 1123 380 l 646 380 l 646 71 z "},"伴":{"ha":1389,"x_min":54,"x_max":1318,"o":"m 326 1123 l 434 1090 q 320 792 385 939 l 320 -125 l 212 -125 l 212 586 q 109 445 163 510 l 54 553 q 326 1123 239 825 m 450 705 l 803 705 l 803 1123 l 911 1123 l 911 705 l 1270 705 l 1270 602 l 911 602 l 911 374 l 1318 374 l 1318 271 l 911 271 l 911 -130 l 803 -130 l 803 271 l 391 271 l 391 374 l 803 374 l 803 602 l 450 602 l 450 705 m 1128 1063 l 1232 1025 q 1107 754 1183 879 l 1009 808 q 1128 1063 1080 922 m 575 1063 q 716 808 656 949 l 613 760 q 483 1020 564 895 l 575 1063 z "},"伶":{"ha":1389,"x_min":54,"x_max":1329,"o":"m 342 1123 l 450 1090 q 353 841 407 966 l 353 -125 l 244 -125 l 244 635 q 109 445 179 532 l 54 553 q 342 1123 255 825 m 825 1123 l 933 1090 l 906 1042 q 1329 662 1112 787 l 1270 553 q 852 944 1058 684 q 467 543 689 689 l 391 618 q 825 1123 673 836 m 841 732 q 982 575 928 662 l 879 521 q 749 673 830 602 l 841 732 m 526 456 l 1194 456 l 1194 363 q 949 49 1090 195 l 1074 -38 l 993 -130 q 581 146 803 33 l 646 228 q 857 109 754 174 q 1058 358 982 233 l 526 358 l 526 456 z "},"伸":{"ha":1389,"x_min":54,"x_max":1270,"o":"m 326 1123 l 434 1090 q 320 792 385 939 l 320 -125 l 212 -125 l 212 586 q 109 445 163 510 l 54 553 q 326 1123 239 825 m 1270 879 l 1270 168 l 1161 168 l 1161 250 l 917 250 l 917 -125 l 808 -125 l 808 250 l 559 250 l 559 168 l 450 168 l 450 879 l 808 879 l 808 1123 l 917 1123 l 917 879 l 1270 879 m 559 613 l 808 613 l 808 781 l 559 781 l 559 613 m 917 781 l 917 613 l 1161 613 l 1161 781 l 917 781 m 559 347 l 808 347 l 808 515 l 559 515 l 559 347 m 917 515 l 917 347 l 1161 347 l 1161 515 l 917 515 z "},"伺":{"ha":1389,"x_min":54,"x_max":1270,"o":"m 326 1123 l 434 1090 q 320 792 385 939 l 320 -125 l 212 -125 l 212 586 q 109 445 163 510 l 54 553 q 326 1123 239 825 m 499 1069 l 1270 1069 l 1270 22 q 1240 -87 1270 -49 q 1145 -125 1210 -125 q 971 -119 1074 -125 l 944 -16 q 1123 -22 1058 -22 q 1161 54 1161 -22 l 1161 971 l 499 971 l 499 1069 m 461 830 l 1020 830 l 1020 732 l 461 732 l 461 830 m 966 586 l 966 168 l 618 168 l 618 98 l 515 98 l 515 586 l 966 586 m 618 260 l 863 260 l 863 494 l 618 494 l 618 260 z "},"似":{"ha":1389,"x_min":54,"x_max":1313,"o":"m 326 1123 l 434 1090 q 320 792 385 939 l 320 -125 l 212 -125 l 212 586 q 109 445 163 510 l 54 553 q 326 1123 239 825 m 749 1090 q 922 684 852 906 l 819 640 q 656 1047 754 868 l 749 1090 m 1053 1085 l 1161 1085 q 1085 315 1161 515 q 1313 -27 1210 163 l 1237 -114 q 1042 201 1145 65 q 727 -119 944 11 l 673 -22 q 982 363 895 114 q 1053 1085 1053 559 m 477 982 l 586 982 l 586 174 q 770 288 678 228 l 814 206 q 548 43 694 119 l 477 114 l 477 982 z "},"佃":{"ha":1389,"x_min":54,"x_max":1259,"o":"m 326 1123 l 434 1090 q 320 792 385 939 l 320 -125 l 212 -125 l 212 586 q 109 445 163 510 l 54 553 q 326 1123 239 825 m 1259 1020 l 1259 -125 l 1150 -125 l 1150 -11 l 586 -11 l 586 -125 l 477 -125 l 477 1020 l 1259 1020 m 586 559 l 814 559 l 814 917 l 586 917 l 586 559 m 922 917 l 922 559 l 1150 559 l 1150 917 l 922 917 m 586 98 l 814 98 l 814 456 l 586 456 l 586 98 m 922 98 l 1150 98 l 1150 456 l 922 456 l 922 98 z "},"但":{"ha":1389,"x_min":54,"x_max":1340,"o":"m 326 1123 l 434 1090 q 320 792 385 939 l 320 -125 l 212 -125 l 212 586 q 109 445 163 510 l 54 553 q 326 1123 239 825 m 521 1063 l 1215 1063 l 1215 217 l 521 217 l 521 1063 m 629 689 l 1107 689 l 1107 960 l 629 960 l 629 689 m 629 320 l 1107 320 l 1107 586 l 629 586 l 629 320 m 391 43 l 1340 43 l 1340 -60 l 391 -60 l 391 43 z "},"位":{"ha":1389,"x_min":54,"x_max":1318,"o":"m 385 1123 l 494 1090 q 353 781 434 933 l 353 -125 l 244 -125 l 244 608 q 109 445 179 521 l 54 553 q 385 1123 288 825 m 472 890 l 819 890 q 738 1090 787 998 l 852 1128 q 939 890 906 1020 l 1280 890 l 1280 787 l 472 787 l 472 890 m 1090 738 l 1215 700 q 1015 33 1118 315 l 1318 33 l 1318 -71 l 429 -71 l 429 33 l 895 33 q 1090 738 1009 369 m 656 711 q 770 130 743 423 l 651 98 q 537 678 624 407 l 656 711 z "},"低":{"ha":1389,"x_min":54,"x_max":1324,"o":"m 342 1123 l 450 1090 q 353 841 407 966 l 353 -125 l 244 -125 l 244 635 q 109 445 179 532 l 54 553 q 342 1123 255 825 m 618 570 l 618 5 l 743 49 l 770 -49 q 564 -109 662 -87 l 510 -49 l 510 1042 q 1145 1123 949 1058 l 1232 1031 q 982 977 1128 998 q 998 673 987 803 l 1286 673 l 1286 570 l 1009 570 q 1101 109 1031 288 q 1188 -5 1150 -5 q 1215 57 1204 -5 q 1232 239 1226 119 l 1324 217 q 1275 -68 1308 -5 q 1188 -130 1242 -130 q 1031 5 1101 -130 q 895 570 933 190 l 618 570 m 618 944 l 618 673 l 890 673 q 873 960 879 803 q 618 944 760 949 m 884 141 q 977 -76 944 43 l 879 -103 q 792 109 846 11 l 884 141 z "},"住":{"ha":1389,"x_min":54,"x_max":1318,"o":"m 819 1123 q 949 955 901 1047 l 857 901 q 727 1063 808 987 l 819 1123 m 445 863 l 1297 863 l 1297 760 l 922 760 l 922 445 l 1248 445 l 1248 347 l 922 347 l 922 33 l 1318 33 l 1318 -71 l 407 -71 l 407 33 l 814 33 l 814 347 l 488 347 l 488 445 l 814 445 l 814 760 l 445 760 l 445 863 m 342 1123 l 450 1090 q 353 841 407 966 l 353 -125 l 244 -125 l 244 635 q 109 445 179 532 l 54 553 q 342 1123 255 825 z "},"佑":{"ha":1389,"x_min":54,"x_max":1318,"o":"m 342 1123 l 450 1090 q 353 841 407 966 l 353 -125 l 244 -125 l 244 635 q 109 445 179 532 l 54 553 q 342 1123 255 825 m 418 873 l 727 873 q 770 1112 754 982 l 884 1096 q 841 873 868 982 l 1318 873 l 1318 770 l 814 770 q 700 505 770 629 l 1242 505 l 1242 -125 l 1134 -125 l 1134 -38 l 711 -38 l 711 -125 l 602 -125 l 602 358 q 439 195 532 271 l 374 288 q 700 770 613 510 l 418 770 l 418 873 m 711 65 l 1134 65 l 1134 401 l 711 401 l 711 65 z "},"体":{"ha":1389,"x_min":54,"x_max":1329,"o":"m 342 1123 l 450 1090 q 353 841 407 966 l 353 -125 l 244 -125 l 244 635 q 109 445 179 532 l 54 553 q 342 1123 255 825 m 439 884 l 792 884 l 792 1123 l 901 1123 l 901 884 l 1275 884 l 1275 781 l 971 781 q 1329 184 1107 374 l 1270 65 q 901 727 1042 288 l 901 222 l 1096 222 l 1096 130 l 901 130 l 901 -130 l 792 -130 l 792 130 l 602 130 l 602 222 l 792 222 l 792 727 q 450 65 667 315 l 374 163 q 722 781 597 407 l 439 781 l 439 884 z "},"何":{"ha":1389,"x_min":54,"x_max":1313,"o":"m 461 1047 l 1313 1047 l 1313 944 l 1204 944 l 1204 16 q 1177 -92 1204 -60 q 1074 -125 1150 -125 q 949 -109 1009 -125 l 928 -5 q 1058 -22 993 -22 q 1096 43 1096 -22 l 1096 944 l 461 944 l 461 1047 m 939 732 l 939 255 l 629 255 l 629 179 l 526 179 l 526 732 l 939 732 m 629 353 l 836 353 l 836 640 l 629 640 l 629 353 m 342 1123 l 450 1090 q 353 841 407 966 l 353 -125 l 244 -125 l 244 635 q 109 445 179 532 l 54 553 q 342 1123 255 825 z "},"余":{"ha":1389,"x_min":71,"x_max":1324,"o":"m 673 1128 l 781 1096 l 754 1058 q 1324 711 1015 836 l 1259 602 q 684 982 960 732 q 125 564 445 727 l 71 667 q 673 1128 488 890 m 163 461 l 651 461 l 651 608 l 407 608 l 407 711 l 1004 711 l 1004 608 l 760 608 l 760 461 l 1232 461 l 1232 358 l 760 358 l 760 11 q 732 -95 760 -65 q 613 -125 705 -125 q 494 -114 548 -125 l 472 -5 q 613 -22 543 -22 q 651 27 651 -22 l 651 358 l 163 358 l 163 461 m 993 271 q 1270 11 1128 157 l 1177 -76 q 906 212 1063 71 l 993 271 m 385 271 l 467 206 q 163 -81 342 33 l 92 16 q 385 271 255 109 z "},"佛":{"ha":1389,"x_min":54,"x_max":1313,"o":"m 342 1123 l 450 1090 q 353 841 407 966 l 353 -125 l 244 -125 l 244 635 q 109 445 179 532 l 54 553 q 342 1123 255 825 m 445 982 l 673 982 l 673 1123 l 776 1123 l 776 982 l 917 982 l 917 1123 l 1015 1123 l 1015 982 l 1259 982 l 1259 602 l 1015 602 l 1015 423 l 1313 423 q 1275 90 1308 152 q 1177 27 1242 27 q 1069 33 1128 27 l 1053 136 q 1156 130 1112 130 q 1191 155 1183 130 q 1210 320 1199 179 l 1015 320 l 1015 -125 l 917 -125 l 917 320 l 765 320 q 461 -125 711 54 l 401 -33 q 656 320 608 119 l 407 320 l 467 705 l 673 705 l 673 879 l 445 879 l 445 982 m 776 879 l 776 705 l 917 705 l 917 879 l 776 879 m 1015 879 l 1015 705 l 1150 705 l 1150 879 l 1015 879 m 917 423 l 917 602 l 776 602 l 776 423 l 917 423 m 673 423 l 673 456 l 673 602 l 553 602 l 526 423 l 673 423 z "},"作":{"ha":1389,"x_min":54,"x_max":1318,"o":"m 342 1123 l 450 1090 q 353 841 407 966 l 353 -125 l 244 -125 l 244 635 q 109 445 179 532 l 54 553 q 342 1123 255 825 m 629 1123 l 743 1096 q 689 933 722 1009 l 1318 933 l 1318 830 l 841 830 l 841 618 l 1232 618 l 1232 521 l 841 521 l 841 309 l 1248 309 l 1248 206 l 841 206 l 841 -125 l 732 -125 l 732 830 l 646 830 q 456 526 575 662 l 380 613 q 629 1123 543 819 z "},"你":{"ha":1389,"x_min":54,"x_max":1302,"o":"m 385 1123 l 494 1090 q 353 781 434 933 l 353 -125 l 244 -125 l 244 608 q 109 445 179 521 l 54 553 q 385 1123 288 825 m 662 1123 l 765 1090 q 711 917 743 998 l 1302 917 l 1302 814 q 1188 608 1253 705 l 1101 667 q 1183 814 1150 743 l 673 814 q 537 548 624 678 l 445 618 q 662 1123 597 852 m 852 716 l 960 716 l 960 5 q 933 -100 960 -71 q 830 -130 906 -130 q 656 -119 732 -130 l 635 -11 q 830 -27 732 -27 q 852 22 852 -27 l 852 716 m 1166 537 q 1297 81 1264 315 l 1183 49 q 1063 510 1150 298 l 1166 537 m 629 537 l 732 510 q 559 38 700 255 l 461 92 q 629 537 597 315 z "},"佣":{"ha":1389,"x_min":54,"x_max":1259,"o":"m 342 1123 l 450 1090 q 353 841 407 966 l 353 -125 l 244 -125 l 244 635 q 109 445 179 532 l 54 553 q 342 1123 255 825 m 1259 1058 l 1259 33 q 1226 -76 1259 -38 q 1128 -114 1194 -114 q 1047 -103 1101 -114 l 1025 5 q 1107 -5 1074 -5 q 1150 71 1150 -5 l 1150 304 l 939 304 l 939 -60 l 830 -60 l 830 304 l 597 304 q 499 -125 575 60 l 396 -60 q 499 553 499 217 l 499 1058 l 1259 1058 m 608 732 l 830 732 l 830 955 l 608 955 l 608 732 m 939 955 l 939 732 l 1150 732 l 1150 955 l 939 955 m 608 407 l 830 407 l 830 629 l 608 629 l 608 515 l 608 407 m 939 629 l 939 407 l 1150 407 l 1150 629 l 939 629 z "},"佩":{"ha":1389,"x_min":54,"x_max":1356,"o":"m 260 1123 l 369 1090 q 288 830 336 960 l 288 -125 l 184 -125 l 184 581 l 109 445 l 54 553 q 260 1123 195 825 m 1188 1074 l 1188 602 q 1199 171 1188 315 q 1232 27 1210 27 q 1259 206 1248 27 l 1356 184 q 1310 -41 1340 11 q 1232 -92 1280 -92 q 1123 35 1161 -92 q 1080 602 1085 163 l 1080 971 l 548 971 l 548 553 q 429 -114 548 206 l 336 -43 q 439 553 439 228 l 439 1074 l 1188 1074 m 581 857 l 1042 857 l 1042 760 l 868 760 l 868 646 l 1036 646 l 1036 201 q 1009 117 1036 146 q 928 87 982 87 q 895 92 911 87 l 873 179 l 922 179 q 939 222 939 179 l 939 559 l 868 559 l 868 -103 l 765 -103 l 765 559 l 694 559 l 694 71 l 597 71 l 597 646 l 765 646 l 765 760 l 581 760 l 581 857 z "},"佳":{"ha":1389,"x_min":54,"x_max":1329,"o":"m 326 1123 l 434 1090 q 320 792 385 939 l 320 -125 l 212 -125 l 212 586 q 109 445 163 510 l 54 553 q 326 1123 239 825 m 461 939 l 792 939 l 792 1123 l 901 1123 l 901 939 l 1232 939 l 1232 836 l 901 836 l 901 651 l 1297 651 l 1297 548 l 401 548 l 401 651 l 792 651 l 792 836 l 461 836 l 461 939 m 472 304 l 803 304 l 803 499 l 911 499 l 911 304 l 1237 304 l 1237 201 l 911 201 l 911 11 l 1329 11 l 1329 -92 l 374 -92 l 374 11 l 803 11 l 803 201 l 472 201 l 472 304 z "},"使":{"ha":1389,"x_min":54,"x_max":1318,"o":"m 326 1123 l 434 1090 q 320 792 385 939 l 320 -125 l 212 -125 l 212 586 q 109 445 163 510 l 54 553 q 326 1123 239 825 m 439 1004 l 819 1004 l 819 1128 l 928 1128 l 928 1004 l 1318 1004 l 1318 901 l 928 901 l 928 776 l 1270 776 l 1270 374 l 917 374 q 836 136 895 228 q 1318 -5 1009 43 l 1264 -119 q 770 49 971 -65 q 423 -119 651 -76 l 369 -11 q 667 119 564 27 q 488 277 559 195 l 553 347 q 738 195 629 266 q 803 374 781 266 l 472 374 l 472 776 l 819 776 l 819 901 l 439 901 l 439 1004 m 581 477 l 814 477 q 819 559 819 515 l 819 673 l 581 673 l 581 477 m 928 673 l 928 559 l 928 477 l 1161 477 l 1161 673 l 928 673 z "},"侄":{"ha":1389,"x_min":54,"x_max":1318,"o":"m 342 1123 l 450 1090 q 353 841 407 966 l 353 -125 l 244 -125 l 244 635 q 109 445 179 532 l 54 553 q 342 1123 255 825 m 499 1063 l 1286 1063 l 1286 960 l 906 960 q 694 640 803 743 q 1069 689 873 656 q 960 846 1020 776 l 1063 890 q 1280 537 1194 727 l 1172 488 q 1123 597 1150 548 q 548 526 846 543 l 515 629 q 776 960 667 743 l 499 960 l 499 1063 m 521 326 l 819 326 l 819 499 l 928 499 l 928 326 l 1242 326 l 1242 228 l 928 228 l 928 16 l 1318 16 l 1318 -87 l 439 -87 l 439 16 l 819 16 l 819 228 l 521 228 l 521 326 z "},"侈":{"ha":1389,"x_min":54,"x_max":1280,"o":"m 326 1123 l 434 1090 q 320 792 385 939 l 320 -125 l 212 -125 l 212 586 q 109 445 163 510 l 54 553 q 326 1123 239 825 m 846 1123 l 955 1101 q 879 1004 922 1053 l 1242 1004 l 1242 906 q 472 472 1074 575 l 423 581 q 1123 906 971 651 l 770 906 q 711 863 738 884 l 825 770 l 749 694 q 613 803 689 749 q 510 754 564 776 l 439 830 q 846 1123 716 955 m 901 581 l 993 532 l 939 477 l 1280 477 l 1280 380 q 423 -130 1096 -5 l 380 -22 q 1166 380 1004 71 l 830 380 l 765 326 q 890 228 830 282 l 808 146 q 667 266 743 206 q 505 174 586 217 l 445 266 q 901 581 705 374 z "},"例":{"ha":1389,"x_min":54,"x_max":1280,"o":"m 288 1123 l 396 1090 q 315 846 363 966 l 315 -125 l 212 -125 l 212 618 q 109 445 163 521 l 54 553 q 288 1123 217 825 m 423 1058 l 906 1058 l 906 955 l 684 955 q 635 754 667 852 l 879 754 q 488 -136 857 266 l 407 -65 q 760 651 727 282 l 602 651 q 543 499 564 543 q 667 412 613 461 l 602 320 q 494 407 553 369 q 439 320 472 363 l 374 407 q 575 955 515 640 l 423 955 l 423 1058 m 1177 1123 l 1280 1123 l 1280 22 q 1256 -92 1280 -60 q 1161 -125 1232 -125 q 1004 -103 1074 -125 l 982 11 q 1145 -16 1058 -16 q 1177 49 1177 -16 l 1177 1123 m 960 982 l 1063 982 l 1063 190 l 960 190 l 960 982 z "},"侍":{"ha":1389,"x_min":54,"x_max":1318,"o":"m 326 1123 l 434 1090 q 320 792 385 939 l 320 -125 l 212 -125 l 212 586 q 109 445 163 510 l 54 553 q 326 1123 239 825 m 477 966 l 814 966 l 814 1128 l 922 1128 l 922 966 l 1259 966 l 1259 868 l 922 868 l 922 705 l 1313 705 l 1313 602 l 407 602 l 407 705 l 814 705 l 814 868 l 477 868 l 477 966 m 412 445 l 1031 445 l 1031 564 l 1139 564 l 1139 445 l 1318 445 l 1318 342 l 1139 342 l 1139 16 q 1107 -92 1139 -60 q 966 -125 1074 -125 q 792 -109 873 -125 l 770 5 q 966 -16 868 -16 q 1031 38 1031 -16 l 1031 342 l 412 342 l 412 445 m 629 288 q 765 98 711 201 l 662 49 q 532 244 608 157 l 629 288 z "},"供":{"ha":1389,"x_min":54,"x_max":1297,"o":"m 429 863 l 613 863 l 613 1112 l 722 1112 l 722 863 l 955 863 l 955 1112 l 1063 1112 l 1063 863 l 1275 863 l 1275 760 l 1063 760 l 1063 407 l 1297 407 l 1297 304 l 401 304 l 401 407 l 613 407 l 613 760 l 429 760 l 429 863 m 722 407 l 955 407 l 955 760 l 722 760 l 722 407 m 1020 260 q 1286 -49 1156 130 l 1183 -130 q 928 201 1074 38 l 1020 260 m 640 260 l 743 212 q 461 -130 613 -11 l 369 -49 q 640 260 537 87 m 326 1123 l 434 1090 q 320 792 385 939 l 320 -125 l 212 -125 l 212 586 q 109 445 163 510 l 54 553 q 326 1123 239 825 z "},"依":{"ha":1389,"x_min":54,"x_max":1324,"o":"m 564 407 q 412 271 494 331 l 342 358 q 711 808 586 548 l 423 808 l 423 911 l 792 911 q 711 1085 760 1009 l 825 1123 q 917 911 884 1025 l 1308 911 l 1308 808 l 944 808 q 1009 472 966 613 q 1210 656 1123 543 l 1291 559 q 1047 363 1188 445 q 1324 -11 1123 179 l 1242 -114 q 971 255 1058 60 q 841 808 884 450 l 825 808 q 673 537 770 673 l 673 11 q 933 119 814 65 l 960 27 q 618 -125 781 -65 l 564 -71 l 564 407 m 326 1123 l 434 1090 q 320 792 385 939 l 320 -125 l 212 -125 l 212 586 q 109 445 163 510 l 54 553 q 326 1123 239 825 z "},"侠":{"ha":1389,"x_min":54,"x_max":1335,"o":"m 326 1123 l 434 1090 q 320 792 385 939 l 320 -125 l 212 -125 l 212 586 q 109 445 163 510 l 54 553 q 326 1123 239 825 m 499 949 l 808 949 l 808 1123 l 917 1123 l 917 949 l 1264 949 l 1264 846 l 917 846 l 917 526 q 911 450 917 488 l 1308 450 l 1308 347 l 928 347 q 1335 -22 1096 87 l 1275 -141 q 863 271 1025 0 q 429 -141 743 22 l 369 -38 q 770 347 684 130 l 456 347 l 456 450 l 803 450 q 808 526 808 488 l 808 846 l 499 846 l 499 949 m 602 787 q 722 537 673 673 l 624 494 q 505 743 575 635 l 602 787 m 1118 787 l 1232 749 q 1096 488 1172 597 l 998 543 q 1118 787 1080 667 z "},"侣":{"ha":1389,"x_min":54,"x_max":1242,"o":"m 342 1123 l 450 1090 q 353 841 407 966 l 353 -125 l 244 -125 l 244 635 q 109 445 179 532 l 54 553 q 342 1123 255 825 m 548 1063 l 1204 1063 l 1204 581 l 548 581 l 548 1063 m 651 678 l 1101 678 l 1101 966 l 651 966 l 651 678 m 608 -27 l 608 -130 l 505 -130 l 505 461 l 1242 461 l 1242 -130 l 1139 -130 l 1139 -27 l 608 -27 m 1139 71 l 1139 363 l 608 363 l 608 71 l 1139 71 z "},"侥":{"ha":1389,"x_min":54,"x_max":1324,"o":"m 326 1123 l 434 1090 q 320 792 385 939 l 320 -125 l 212 -125 l 212 586 q 109 445 163 510 l 54 553 q 326 1123 239 825 m 1215 1047 l 1226 944 l 836 873 q 890 760 857 803 q 1128 901 1036 825 l 1188 819 q 966 673 1090 738 q 1123 602 1053 602 q 1161 632 1150 602 q 1177 722 1172 662 l 1280 694 q 1234 540 1270 586 q 1128 494 1199 494 q 868 624 1004 494 q 543 505 700 543 l 483 608 q 798 716 651 651 q 732 852 754 781 l 467 808 l 450 911 l 705 955 q 684 1123 689 1031 l 781 1134 q 808 971 792 1047 l 1215 1047 m 423 434 l 1291 434 l 1291 336 l 1004 336 l 1004 33 q 1063 -5 1004 -5 q 1188 16 1166 -5 q 1215 179 1210 38 l 1324 146 q 1278 -62 1318 -22 q 1063 -103 1237 -103 q 925 -79 955 -103 q 895 0 895 -54 l 895 336 l 749 336 q 665 35 738 146 q 423 -146 591 -76 l 358 -49 q 570 100 510 16 q 640 336 629 184 l 423 336 l 423 434 z "},"侦":{"ha":1389,"x_min":54,"x_max":1286,"o":"m 385 1123 l 494 1090 q 353 781 434 933 l 353 -125 l 244 -125 l 244 608 q 109 445 179 521 l 54 553 q 385 1123 288 825 m 884 911 l 884 765 l 1210 765 l 1210 184 l 1096 184 l 1096 673 l 635 673 l 635 184 l 521 184 l 521 765 l 776 765 l 776 1123 l 884 1123 l 884 1004 l 1286 1004 l 1286 911 l 884 911 m 808 553 l 922 553 q 917 336 922 342 q 499 -125 917 0 l 429 -38 q 673 79 591 11 q 781 220 754 146 q 808 553 808 293 m 1009 206 q 1286 -43 1150 98 l 1204 -130 q 922 146 1085 11 l 1009 206 z "},"侧":{"ha":1389,"x_min":54,"x_max":1275,"o":"m 1172 1123 l 1275 1123 l 1275 11 q 1245 -95 1275 -65 q 1123 -125 1215 -125 q 1009 -109 1058 -125 l 987 0 q 1123 -22 1053 -22 q 1172 33 1172 -22 l 1172 1123 m 987 977 l 1085 977 l 1085 190 l 987 190 l 987 977 m 260 1123 l 369 1090 q 288 830 336 960 l 288 -125 l 184 -125 l 184 581 l 109 445 l 54 553 q 260 1123 195 825 m 873 1047 l 873 212 l 770 212 l 770 955 l 499 955 l 499 206 l 396 206 l 396 1047 l 873 1047 m 586 836 l 689 836 q 667 298 689 418 q 575 41 640 146 q 423 -125 510 -65 l 358 -43 q 496 109 439 16 q 570 317 553 201 q 586 836 586 434 m 743 174 q 901 -65 841 60 l 808 -119 q 662 125 754 5 l 743 174 z "},"侨":{"ha":1389,"x_min":54,"x_max":1335,"o":"m 326 1123 l 434 1090 q 320 792 385 939 l 320 -125 l 212 -125 l 212 586 q 109 445 163 510 l 54 553 q 326 1123 239 825 m 439 798 l 732 798 q 765 971 754 879 l 515 949 l 472 1053 q 1161 1123 857 1080 l 1210 1036 q 873 987 1047 1009 q 846 798 868 884 l 1302 798 l 1302 689 l 1047 689 q 1335 445 1134 521 l 1275 342 q 933 689 1025 445 l 808 689 q 445 353 732 494 l 369 434 q 684 689 597 543 l 439 689 l 439 798 m 651 456 l 760 456 q 719 71 760 179 q 559 -130 678 -38 l 483 -43 q 613 119 575 22 q 651 456 651 217 m 977 450 l 1085 450 l 1085 -130 l 977 -130 l 977 450 z "},"侮":{"ha":1389,"x_min":54,"x_max":1329,"o":"m 326 1123 l 434 1090 q 320 792 385 939 l 320 -125 l 212 -125 l 212 586 q 109 445 163 510 l 54 553 q 326 1123 239 825 m 597 1128 l 711 1101 q 673 1004 694 1053 l 1270 1004 l 1270 906 l 618 906 q 456 705 553 792 l 380 787 q 597 1128 526 922 m 575 792 l 1226 792 l 1215 477 l 1329 477 l 1329 380 l 1210 380 q 1188 157 1204 266 l 1313 157 l 1313 65 l 1183 65 q 1009 -125 1161 -125 q 863 -114 955 -125 l 846 -22 q 1009 -33 949 -33 q 1069 65 1058 -33 l 477 65 q 532 380 510 212 l 412 380 l 412 477 l 548 477 q 575 792 564 629 m 656 477 l 1107 477 q 1112 700 1112 591 l 673 700 q 656 477 667 581 m 846 673 q 966 581 911 635 l 895 499 q 776 608 841 564 l 846 673 m 1080 157 l 1101 380 l 646 380 q 608 157 629 260 l 1080 157 m 830 358 q 960 260 901 315 l 895 179 q 765 288 830 244 l 830 358 z "},"侯":{"ha":1389,"x_min":54,"x_max":1318,"o":"m 326 1123 l 434 1090 q 320 792 385 939 l 320 -125 l 212 -125 l 212 586 q 109 445 163 510 l 54 553 q 326 1123 239 825 m 526 1080 l 1134 1080 l 1134 846 l 1280 846 l 1280 743 l 423 743 l 423 846 l 1031 846 l 1031 982 l 526 982 l 526 1080 m 613 727 l 716 689 l 673 608 l 1232 608 l 1232 510 l 901 510 l 901 342 l 1297 342 l 1297 244 l 939 244 q 1318 -16 1058 54 l 1275 -125 q 863 174 998 -49 q 423 -130 743 -16 l 363 -38 q 781 244 716 81 l 407 244 l 407 342 l 803 342 l 803 510 l 613 510 q 505 380 570 439 l 423 445 q 613 727 548 575 z "},"侵":{"ha":1389,"x_min":54,"x_max":1318,"o":"m 326 1123 l 434 1090 q 320 792 385 939 l 320 -125 l 212 -125 l 212 586 q 109 445 163 510 l 54 553 q 326 1123 239 825 m 483 1080 l 1172 1080 l 1172 667 l 472 667 l 472 765 l 1069 765 l 1069 830 l 494 830 l 494 922 l 1069 922 l 1069 982 l 483 982 l 483 1080 m 1280 602 l 1280 418 l 1177 418 l 1177 505 l 521 505 l 521 412 l 418 412 l 418 602 l 1280 602 m 483 385 l 1166 385 l 1166 309 q 944 71 1074 163 q 1318 -11 1096 22 l 1270 -119 q 830 5 998 -76 q 423 -125 656 -81 l 369 -22 q 716 71 575 11 q 543 201 613 130 l 613 271 q 830 125 716 179 q 1031 288 955 190 l 483 288 l 483 385 z "},"便":{"ha":1389,"x_min":54,"x_max":1340,"o":"m 288 1123 l 396 1090 q 315 846 363 966 l 315 -125 l 212 -125 l 212 618 q 109 445 163 521 l 54 553 q 288 1123 217 825 m 439 1080 l 1297 1080 l 1297 982 l 917 982 l 917 857 l 1242 857 l 1242 326 l 901 326 q 830 109 884 195 q 1340 16 1025 22 l 1308 -98 q 749 16 987 -92 q 396 -130 624 -92 l 353 -22 q 646 76 543 11 q 472 222 543 146 l 537 309 q 727 157 618 217 q 798 326 776 222 l 483 326 l 483 857 l 808 857 l 808 982 l 439 982 l 439 1080 m 586 640 l 808 640 l 808 765 l 586 765 l 586 640 m 917 765 l 917 640 l 1139 640 l 1139 765 l 917 765 m 586 423 l 808 423 l 808 543 l 586 543 l 586 423 m 917 543 l 917 483 q 911 423 917 450 l 1139 423 l 1139 543 l 917 543 z "},"促":{"ha":1389,"x_min":54,"x_max":1335,"o":"m 326 1123 l 434 1090 q 320 792 385 939 l 320 -125 l 212 -125 l 212 586 q 109 445 163 510 l 54 553 q 326 1123 239 825 m 543 1074 l 1210 1074 l 1210 613 l 944 613 l 944 401 l 1242 401 l 1242 304 l 944 304 l 944 22 q 1123 16 1020 16 l 1335 16 l 1297 -98 l 1123 -98 q 751 -52 852 -98 q 586 109 651 -5 q 439 -125 526 -22 l 358 -43 q 586 510 553 201 l 689 488 q 629 212 673 342 q 735 79 678 119 q 841 38 792 38 l 841 613 l 543 613 l 543 1074 m 646 711 l 1107 711 l 1107 977 l 646 977 l 646 711 z "},"俄":{"ha":1389,"x_min":54,"x_max":1345,"o":"m 792 1074 l 841 977 q 700 928 776 949 l 700 727 l 911 727 q 895 1123 901 901 l 1004 1123 q 1020 727 1009 895 l 1318 727 l 1318 624 l 1031 624 q 1074 304 1042 450 q 1188 548 1134 401 l 1286 515 q 1112 163 1215 304 q 1156 43 1112 130 q 1204 0 1183 0 q 1253 103 1248 0 l 1345 81 q 1297 -79 1329 -38 q 1204 -119 1264 -119 q 1031 71 1107 -119 q 830 -87 939 -22 l 776 11 q 987 190 901 87 q 922 624 939 407 l 700 624 l 700 418 l 836 483 l 868 385 l 700 298 l 700 11 q 675 -95 700 -65 q 575 -125 651 -125 q 461 -109 515 -125 l 439 0 q 575 -22 510 -22 q 591 33 591 -22 l 591 250 q 418 184 510 217 l 369 288 q 591 369 488 326 l 591 624 l 369 624 l 369 727 l 591 727 l 591 895 l 461 863 l 423 966 q 792 1074 624 1004 m 1156 1074 q 1280 836 1232 966 l 1183 787 q 1063 1025 1139 911 l 1156 1074 m 282 1123 l 385 1090 q 288 792 347 939 l 288 -125 l 184 -125 l 184 570 l 109 445 l 54 553 q 282 1123 212 825 z "},"俊":{"ha":1389,"x_min":54,"x_max":1324,"o":"m 326 1123 l 434 1090 q 320 792 385 939 l 320 -125 l 212 -125 l 212 586 q 109 445 163 510 l 54 553 q 326 1123 239 825 m 1042 1074 q 1253 787 1166 944 l 1145 732 l 1101 819 q 477 760 808 776 l 450 852 q 700 1134 597 949 l 808 1101 q 635 868 722 944 q 1042 906 830 879 q 949 1031 998 971 l 1042 1074 m 977 754 q 1270 575 1134 678 l 1194 494 q 917 678 1069 602 l 977 754 m 608 727 l 694 673 q 461 439 602 553 l 391 510 q 608 727 521 613 m 700 575 l 808 548 l 765 467 l 1156 467 l 1156 374 q 966 114 1085 212 q 1324 -22 1128 27 l 1275 -130 q 868 38 1047 -71 q 429 -130 684 -76 l 380 -22 q 770 103 613 22 q 613 271 684 179 q 461 146 543 201 l 385 233 q 700 575 597 374 m 684 347 q 873 168 765 244 q 1042 374 982 250 l 705 374 q 684 347 694 358 z "},"俏":{"ha":1389,"x_min":54,"x_max":1253,"o":"m 825 1128 l 928 1128 l 928 798 l 1253 798 l 1253 5 q 1218 -92 1253 -60 q 1107 -125 1183 -125 q 944 -114 1042 -125 l 922 -11 q 1101 -22 1042 -22 q 1156 33 1156 -22 l 1156 195 l 618 195 l 618 -125 l 521 -125 l 521 798 l 825 798 l 825 1128 m 618 548 l 1156 548 l 1156 705 l 618 705 l 618 548 m 618 293 l 1156 293 l 1156 450 l 618 450 l 618 293 m 575 1101 q 722 917 651 1025 l 640 852 q 488 1042 575 949 l 575 1101 m 1150 1101 l 1253 1069 q 1107 846 1188 939 l 1015 901 q 1150 1101 1107 1004 m 342 1123 l 450 1090 q 353 841 407 966 l 353 -125 l 244 -125 l 244 635 q 109 445 179 532 l 54 553 q 342 1123 255 825 z "},"俐":{"ha":1389,"x_min":54,"x_max":1280,"o":"m 282 1123 l 385 1090 q 288 792 347 939 l 288 -125 l 184 -125 l 184 570 l 109 445 l 54 553 q 282 1123 212 825 m 825 1128 l 873 1031 l 694 977 l 694 749 l 873 749 l 873 646 l 694 646 l 694 597 q 884 369 808 477 l 819 271 q 694 461 760 374 l 694 -125 l 586 -125 l 586 429 q 396 103 510 250 l 326 190 q 586 646 499 385 l 380 646 l 380 749 l 586 749 l 586 949 l 434 917 l 401 1020 q 825 1128 629 1058 m 1177 1123 l 1280 1123 l 1280 22 q 1256 -92 1280 -60 q 1161 -125 1232 -125 q 1004 -103 1074 -125 l 982 11 q 1145 -16 1058 -16 q 1177 49 1177 -16 l 1177 1123 m 960 982 l 1063 982 l 1063 190 l 960 190 l 960 982 z "},"俗":{"ha":1389,"x_min":54,"x_max":1340,"o":"m 326 1123 l 434 1090 q 320 792 385 939 l 320 -125 l 212 -125 l 212 586 q 109 445 163 510 l 54 553 q 326 1123 239 825 m 977 1096 q 1308 846 1156 987 l 1226 760 q 906 1009 1080 906 l 977 1096 m 667 1085 l 760 1036 q 456 727 629 846 l 385 830 q 667 1085 537 917 m 808 890 l 906 841 q 879 798 895 819 q 1340 445 1080 597 l 1270 342 l 1177 407 l 1177 -114 l 1074 -114 l 1074 -33 l 597 -33 l 597 -114 l 494 -114 l 494 374 q 412 309 456 342 l 347 407 q 808 890 608 581 m 553 423 l 1150 423 q 819 716 971 553 q 553 423 689 537 m 597 65 l 1074 65 l 1074 326 l 597 326 l 597 65 z "},"俘":{"ha":1389,"x_min":54,"x_max":1318,"o":"m 326 1123 l 434 1090 q 320 792 385 939 l 320 -125 l 212 -125 l 212 586 q 109 445 163 510 l 54 553 q 326 1123 239 825 m 1215 1128 l 1248 1031 q 488 955 928 960 l 472 1058 q 1215 1128 901 1058 m 1199 944 l 1302 906 q 1128 667 1226 765 l 1036 722 q 1199 944 1139 836 m 868 917 q 933 700 917 808 l 836 673 q 781 895 819 792 l 868 917 m 559 901 q 689 711 635 814 l 586 667 q 461 857 537 770 l 559 901 m 483 624 l 1210 624 l 1210 515 q 944 336 1090 418 l 944 315 l 1318 315 l 1318 212 l 944 212 l 944 -22 q 906 -98 944 -71 q 787 -125 868 -125 q 640 -114 711 -125 l 624 -11 q 760 -22 684 -22 q 830 0 830 -22 l 830 212 l 412 212 l 412 315 l 830 315 l 830 391 q 1053 526 955 456 l 483 526 l 483 624 z "},"保":{"ha":1389,"x_min":54,"x_max":1335,"o":"m 342 1123 l 450 1090 q 353 841 407 966 l 353 -125 l 244 -125 l 244 635 q 109 445 179 532 l 54 553 q 342 1123 255 825 m 532 1080 l 1188 1080 l 1188 656 l 917 656 l 917 510 l 1291 510 l 1291 412 l 966 412 q 1335 65 1107 179 l 1280 -43 q 917 309 1063 87 l 917 -125 l 808 -125 l 808 309 q 467 -54 673 81 l 396 38 q 754 412 624 179 l 429 412 l 429 510 l 808 510 l 808 656 l 532 656 l 532 1080 m 640 754 l 1085 754 l 1085 982 l 640 982 l 640 754 z "},"信":{"ha":1389,"x_min":54,"x_max":1318,"o":"m 342 1123 l 450 1090 q 353 841 407 966 l 353 -125 l 244 -125 l 244 635 q 109 445 179 532 l 54 553 q 342 1123 255 825 m 456 966 l 841 966 q 781 1085 814 1031 l 895 1123 q 966 966 939 1053 l 1318 966 l 1318 863 l 456 863 l 456 966 m 526 754 l 1242 754 l 1242 656 l 526 656 l 526 754 m 526 548 l 1242 548 l 1242 450 l 526 450 l 526 548 m 1232 342 l 1232 -114 l 1123 -114 l 1123 -49 l 646 -49 l 646 -119 l 537 -119 l 537 342 l 1232 342 m 646 49 l 1123 49 l 1123 244 l 646 244 l 646 49 z "},"俩":{"ha":1389,"x_min":54,"x_max":1297,"o":"m 456 1047 l 1297 1047 l 1297 949 l 1069 949 l 1069 749 l 1275 749 l 1275 0 q 1240 -95 1275 -65 q 1134 -125 1204 -125 q 1015 -109 1085 -125 l 993 -16 q 1128 -27 1085 -27 q 1166 22 1166 -27 l 1166 651 l 1069 651 l 1069 624 q 1047 374 1069 494 q 1145 222 1101 298 l 1085 136 l 1025 277 q 911 22 982 119 l 830 87 q 977 624 977 304 l 977 651 l 803 651 l 803 586 l 803 494 q 922 369 873 429 l 868 288 q 792 396 830 353 q 678 71 760 190 l 597 136 q 711 586 711 315 l 711 651 l 581 651 l 581 -125 l 472 -125 l 472 749 l 711 749 l 711 949 l 456 949 l 456 1047 m 977 749 l 977 949 l 803 949 l 803 749 l 977 749 m 342 1123 l 450 1090 q 353 841 407 966 l 353 -125 l 244 -125 l 244 635 q 109 445 179 532 l 54 553 q 342 1123 255 825 z "},"俭":{"ha":1389,"x_min":54,"x_max":1329,"o":"m 385 1123 l 494 1090 q 353 781 434 933 l 353 -125 l 244 -125 l 244 608 q 109 445 179 521 l 54 553 q 385 1123 288 825 m 841 1112 l 949 1080 q 906 1015 933 1047 q 1329 727 1101 830 l 1270 624 q 846 939 1058 727 q 472 613 684 738 l 418 711 q 841 1112 711 901 m 591 667 l 1145 667 l 1145 570 l 591 570 l 591 667 m 439 33 l 917 33 q 1101 505 1036 271 l 1221 467 q 1042 33 1134 212 l 1286 33 l 1286 -71 l 439 -71 l 439 33 m 814 488 q 895 174 873 331 l 787 141 q 711 467 765 315 l 814 488 m 581 456 q 678 130 651 293 l 570 98 q 477 434 543 277 l 581 456 z "},"修":{"ha":1389,"x_min":71,"x_max":1324,"o":"m 749 1128 l 852 1096 l 814 1009 l 1221 1009 l 1221 911 q 1025 700 1139 781 q 1153 646 1096 662 q 1324 608 1210 629 l 1275 510 q 933 635 1080 553 q 586 505 798 559 l 553 602 q 841 700 716 640 q 700 830 776 738 q 635 749 667 787 l 543 819 q 749 1128 684 960 m 928 754 q 1090 911 1031 825 l 760 911 q 754 906 754 911 q 928 754 841 808 m 1025 559 l 1090 483 q 651 315 917 374 l 591 412 q 1025 559 873 472 m 1139 391 l 1204 315 q 640 87 977 163 l 575 184 q 1139 391 944 271 m 1242 233 l 1308 157 q 597 -125 1058 -60 l 537 -33 q 1242 233 1020 43 m 315 1134 l 412 1107 q 320 814 374 955 l 320 -125 l 217 -125 l 217 591 q 125 445 174 510 l 71 548 q 315 1134 244 830 m 412 944 l 515 944 l 515 87 l 412 87 l 412 944 z "},"俯":{"ha":1389,"x_min":54,"x_max":1318,"o":"m 282 1123 l 385 1090 q 288 792 347 939 l 288 -125 l 184 -125 l 184 570 l 109 445 l 54 553 q 282 1123 212 825 m 884 1128 q 955 960 933 1053 l 1318 960 l 1318 863 l 543 863 l 543 467 q 439 -119 543 130 l 342 -60 q 439 505 439 201 l 439 960 l 841 960 q 776 1096 814 1036 l 884 1128 m 673 396 q 613 309 646 353 l 564 407 q 743 830 689 608 l 841 798 q 776 613 814 705 l 776 -119 l 673 -119 l 673 396 m 814 635 l 1101 635 l 1101 819 l 1204 819 l 1204 635 l 1318 635 l 1318 537 l 1204 537 l 1204 16 q 1175 -90 1204 -60 q 1058 -119 1145 -119 q 922 -109 982 -119 l 901 0 q 1058 -16 982 -16 q 1101 33 1101 -16 l 1101 537 l 814 537 l 814 635 m 939 450 q 1025 228 987 347 l 928 184 q 846 407 895 309 l 939 450 z "},"俱":{"ha":1389,"x_min":54,"x_max":1297,"o":"m 342 1123 l 450 1090 q 353 841 407 966 l 353 -125 l 244 -125 l 244 635 q 109 445 179 532 l 54 553 q 342 1123 255 825 m 1194 1080 l 1194 255 l 1297 255 l 1297 157 l 429 157 l 429 255 l 543 255 l 543 1080 l 1194 1080 m 651 873 l 1085 873 l 1085 982 l 651 982 l 651 873 m 651 667 l 1085 667 l 1085 776 l 651 776 l 651 667 m 651 461 l 1085 461 l 1085 570 l 651 570 l 651 461 m 651 255 l 1085 255 l 1085 363 l 651 363 l 651 255 m 722 130 l 808 65 q 521 -136 689 -54 l 456 -43 q 722 130 602 22 m 1004 130 q 1297 -33 1161 60 l 1215 -125 q 939 43 1090 -22 l 1004 130 z "},"俺":{"ha":1389,"x_min":54,"x_max":1335,"o":"m 423 966 l 700 966 q 765 1123 738 1042 l 873 1090 q 830 966 857 1025 l 1280 966 l 1280 868 l 1020 868 q 1335 586 1123 716 l 1253 488 l 1177 553 l 1177 130 l 890 130 l 890 22 q 914 -5 890 5 q 1036 -16 939 -16 q 1191 5 1166 -16 q 1215 125 1215 27 l 1324 92 q 1272 -71 1313 -38 q 1036 -103 1232 -103 q 830 -81 873 -103 q 787 -11 787 -60 l 787 130 l 591 130 l 591 60 l 483 60 l 483 537 q 401 483 445 505 l 347 581 q 651 868 537 700 l 423 868 l 423 966 m 618 651 l 787 651 l 787 787 l 890 787 l 890 651 l 1069 651 q 901 868 971 754 l 781 868 q 618 651 716 743 m 591 434 l 787 434 l 787 559 l 591 559 l 591 434 m 890 559 l 890 434 l 1069 434 l 1069 559 l 890 559 m 591 222 l 787 222 l 787 347 l 591 347 l 591 222 m 890 347 l 890 222 l 1069 222 l 1069 347 l 890 347 m 326 1123 l 434 1090 q 320 792 385 939 l 320 -125 l 212 -125 l 212 586 q 109 445 163 510 l 54 553 q 326 1123 239 825 z "},"倍":{"ha":1389,"x_min":54,"x_max":1313,"o":"m 326 1123 l 434 1090 q 320 792 385 939 l 320 -125 l 212 -125 l 212 586 q 109 445 163 510 l 54 553 q 326 1123 239 825 m 472 998 l 792 998 q 749 1096 776 1053 l 857 1128 q 917 998 895 1069 l 1232 998 l 1232 895 l 472 895 l 472 998 m 1047 852 l 1166 819 q 1063 602 1118 700 l 1313 602 l 1313 499 l 412 499 l 412 602 l 939 602 q 1047 852 998 722 m 646 846 q 722 667 694 765 l 613 629 q 537 814 586 732 l 646 846 m 1204 369 l 1204 -125 l 1096 -125 l 1096 -71 l 602 -71 l 602 -125 l 494 -125 l 494 369 l 1204 369 m 602 33 l 1096 33 l 1096 266 l 602 266 l 602 33 z "},"倒":{"ha":1389,"x_min":54,"x_max":1275,"o":"m 553 977 l 396 977 l 396 1069 l 917 1069 l 917 977 l 673 977 q 521 667 597 754 q 765 716 640 678 q 711 836 738 781 l 798 873 q 928 564 873 732 l 830 521 l 798 624 q 423 553 618 570 l 391 651 q 553 977 483 765 m 385 374 l 591 374 l 591 543 l 694 543 l 694 374 l 901 374 l 901 282 l 694 282 l 694 92 l 922 136 l 939 49 q 391 -71 694 -22 l 353 33 q 591 71 477 49 l 591 282 l 385 282 l 385 374 m 260 1123 l 369 1090 q 288 830 336 960 l 288 -125 l 184 -125 l 184 581 l 109 445 l 54 553 q 260 1123 195 825 m 1172 1123 l 1275 1123 l 1275 11 q 1245 -95 1275 -65 q 1123 -125 1215 -125 q 1009 -109 1058 -125 l 987 0 q 1123 -22 1053 -22 q 1172 33 1172 -22 l 1172 1123 m 987 977 l 1085 977 l 1085 190 l 987 190 l 987 977 z "},"倔":{"ha":1389,"x_min":54,"x_max":1297,"o":"m 326 1123 l 434 1090 q 320 792 385 939 l 320 -125 l 212 -125 l 212 586 q 109 445 163 510 l 54 553 q 326 1123 239 825 m 613 754 l 613 532 q 456 -125 613 163 l 358 -65 q 480 236 445 103 q 515 559 515 369 l 515 1074 l 1280 1074 l 1280 754 l 613 754 m 1177 982 l 613 982 l 613 846 l 1177 846 l 1177 982 m 684 640 l 781 640 l 781 418 l 928 418 l 928 722 l 1031 722 l 1031 418 l 1161 418 l 1161 640 l 1270 640 l 1270 326 l 1031 326 l 1031 27 l 1199 27 l 1199 250 l 1297 250 l 1297 -125 l 1199 -125 l 1199 -65 l 651 -65 l 651 250 l 754 250 l 754 27 l 928 27 l 928 326 l 684 326 l 684 640 z "},"倘":{"ha":1389,"x_min":54,"x_max":1275,"o":"m 830 1123 l 939 1123 l 939 727 l 1275 727 l 1275 11 q 1237 -87 1275 -54 q 1128 -119 1199 -119 q 1015 -103 1080 -119 l 993 0 q 1123 -16 1080 -16 q 1166 38 1166 -16 l 1166 629 l 586 629 l 586 -125 l 477 -125 l 477 727 l 830 727 l 830 1123 m 1156 1058 l 1253 998 q 1096 770 1177 852 l 1015 841 q 1156 1058 1101 944 m 618 1042 q 732 814 689 939 l 635 770 q 521 993 586 895 l 618 1042 m 689 521 l 1069 521 l 1069 136 l 689 136 l 689 521 m 792 228 l 966 228 l 966 429 l 792 429 l 792 228 m 342 1123 l 450 1090 q 353 841 407 966 l 353 -125 l 244 -125 l 244 635 q 109 445 179 532 l 54 553 q 342 1123 255 825 z "},"候":{"ha":1389,"x_min":71,"x_max":1318,"o":"m 315 1134 l 412 1107 q 320 814 374 955 l 320 -125 l 217 -125 l 217 591 q 125 445 174 510 l 71 548 q 315 1134 244 830 m 412 944 l 515 944 l 515 87 l 412 87 l 412 944 m 548 841 l 998 841 q 1042 987 1020 906 l 635 987 l 635 1080 l 1156 1080 l 1156 993 q 1112 841 1156 960 l 1286 841 l 1286 743 l 548 743 l 548 841 m 700 722 l 803 689 l 770 608 l 1242 608 l 1242 510 l 971 510 q 966 347 971 353 l 966 342 l 1297 342 l 1297 244 l 987 244 q 1318 -11 1096 76 l 1264 -125 q 933 157 1042 -33 q 564 -125 857 -27 l 505 -33 q 846 244 808 65 l 543 244 l 543 342 l 868 342 l 868 510 l 722 510 q 640 385 689 445 l 548 450 q 700 722 651 575 z "},"倚":{"ha":1389,"x_min":54,"x_max":1318,"o":"m 342 1123 l 450 1090 q 353 841 407 966 l 353 -125 l 244 -125 l 244 635 q 109 445 179 532 l 54 553 q 342 1123 255 825 m 483 987 l 825 987 q 830 1118 830 1047 l 933 1118 q 928 987 933 1047 l 1264 987 l 1264 890 l 911 890 l 901 852 q 1253 694 1107 781 l 1188 602 q 841 770 1047 694 q 515 602 749 667 l 461 694 q 798 890 727 765 l 483 890 l 483 987 m 412 581 l 1318 581 l 1318 483 l 1199 483 l 1199 11 q 1169 -95 1199 -65 q 1047 -125 1139 -125 q 906 -109 971 -125 l 884 0 q 1047 -22 966 -22 q 1090 27 1090 -22 l 1090 483 l 412 483 l 412 581 m 515 391 l 966 391 l 966 76 l 515 76 l 515 391 m 618 174 l 868 174 l 868 298 l 618 298 l 618 174 z "},"借":{"ha":1389,"x_min":54,"x_max":1313,"o":"m 326 1123 l 434 1090 q 320 792 385 939 l 320 -125 l 212 -125 l 212 586 q 109 445 163 510 l 54 553 q 326 1123 239 825 m 423 960 l 602 960 l 602 1123 l 705 1123 l 705 960 l 993 960 l 993 1123 l 1096 1123 l 1096 960 l 1275 960 l 1275 863 l 1096 863 l 1096 684 l 1313 684 l 1313 586 l 374 586 l 374 684 l 602 684 l 602 863 l 423 863 l 423 960 m 705 684 l 993 684 l 993 863 l 705 863 l 705 684 m 1215 499 l 1215 -125 l 1112 -125 l 1112 -33 l 602 -33 l 602 -125 l 499 -125 l 499 499 l 1215 499 m 602 277 l 1112 277 l 1112 396 l 602 396 l 602 277 m 602 65 l 1112 65 l 1112 184 l 602 184 l 602 65 z "},"倡":{"ha":1389,"x_min":54,"x_max":1264,"o":"m 326 1123 l 434 1090 q 320 792 385 939 l 320 -125 l 212 -125 l 212 586 q 109 445 163 510 l 54 553 q 326 1123 239 825 m 515 1058 l 1210 1058 l 1210 564 l 515 564 l 515 1058 m 624 857 l 1101 857 l 1101 960 l 624 960 l 624 857 m 624 667 l 1101 667 l 1101 770 l 624 770 l 624 667 m 1264 467 l 1264 -125 l 1156 -125 l 1156 -54 l 570 -54 l 570 -125 l 461 -125 l 461 467 l 1264 467 m 570 255 l 1156 255 l 1156 369 l 570 369 l 570 255 m 570 43 l 1156 43 l 1156 163 l 570 163 l 570 43 z "},"倦":{"ha":1389,"x_min":54,"x_max":1329,"o":"m 467 901 l 765 901 q 814 1128 798 1004 l 922 1112 q 879 901 906 1004 l 1248 901 l 1248 808 l 846 808 q 792 673 825 738 l 1286 673 l 1286 581 l 1134 581 q 1329 369 1204 472 l 1248 271 q 1020 581 1107 412 l 743 581 q 618 429 689 499 l 1080 429 q 1047 144 1080 201 q 933 87 1015 87 q 819 98 879 87 l 803 201 q 928 190 868 190 q 958 209 949 190 q 977 336 966 228 l 684 336 l 684 33 q 705 -3 684 5 q 906 -11 727 -11 q 1123 11 1096 -11 q 1156 141 1150 33 l 1270 98 q 1204 -76 1248 -33 q 906 -109 1166 -109 q 613 -87 651 -109 q 575 11 575 -65 l 575 380 q 439 271 510 320 l 369 363 q 597 581 505 467 l 412 581 l 412 673 l 667 673 l 732 808 l 467 808 l 467 901 m 602 1112 q 684 982 651 1053 l 591 939 q 515 1069 564 1004 l 602 1112 m 1058 1101 l 1161 1069 q 1085 928 1128 987 l 993 977 q 1058 1101 1036 1042 m 326 1123 l 434 1090 q 320 792 385 939 l 320 -125 l 212 -125 l 212 586 q 109 445 163 510 l 54 553 q 326 1123 239 825 z "},"债":{"ha":1389,"x_min":54,"x_max":1324,"o":"m 429 656 l 808 656 l 808 732 l 532 732 l 532 830 l 808 830 l 808 906 l 488 906 l 488 1004 l 808 1004 l 808 1123 l 917 1123 l 917 1004 l 1286 1004 l 1286 906 l 917 906 l 917 830 l 1215 830 l 1215 732 l 917 732 l 917 656 l 1324 656 l 1324 559 l 429 559 l 429 656 m 1204 483 l 1204 109 l 1101 109 l 1101 385 l 635 385 l 635 98 l 526 98 l 526 483 l 1204 483 m 819 315 l 928 315 q 461 -125 917 -87 l 407 -33 q 819 315 814 -16 m 987 114 q 1275 -60 1145 38 l 1199 -146 q 922 33 1074 -43 l 987 114 m 385 1123 l 494 1090 q 353 781 434 933 l 353 -125 l 244 -125 l 244 608 q 109 445 179 521 l 54 553 q 385 1123 288 825 z "},"值":{"ha":1389,"x_min":54,"x_max":1313,"o":"m 342 1123 l 450 1090 q 353 841 407 966 l 353 -125 l 244 -125 l 244 635 q 109 445 179 532 l 54 553 q 342 1123 255 825 m 488 993 l 825 993 l 825 1118 l 933 1118 l 933 993 l 1275 993 l 1275 895 l 933 895 l 933 770 l 1210 770 l 1210 16 l 1313 16 l 1313 -76 l 418 -76 l 418 16 l 570 16 l 570 770 l 825 770 l 825 895 l 488 895 l 488 993 m 678 575 l 1101 575 l 1101 678 l 678 678 l 678 575 m 678 385 l 1101 385 l 1101 494 l 678 494 l 678 385 m 678 201 l 1101 201 l 1101 304 l 678 304 l 678 201 m 678 16 l 1101 16 l 1101 119 l 678 119 l 678 16 z "},"倾":{"ha":1389,"x_min":54,"x_max":1318,"o":"m 521 651 l 521 146 q 651 239 591 190 l 694 157 q 488 16 602 87 l 423 87 l 423 1053 l 521 1053 l 521 749 l 711 749 l 711 651 l 521 651 m 1259 873 l 1259 168 l 1156 168 l 1156 776 l 857 776 l 857 163 l 749 163 l 749 873 l 922 873 l 939 982 l 705 982 l 705 1080 l 1297 1080 l 1297 982 l 1047 982 q 1031 873 1042 928 l 1259 873 m 955 662 l 1058 662 q 1031 212 1058 315 q 928 22 1004 109 q 716 -125 852 -65 l 646 -33 q 838 95 770 22 q 930 260 906 168 q 955 662 955 353 m 1101 179 q 1318 -38 1210 87 l 1237 -125 q 1015 119 1139 0 l 1101 179 m 288 1123 l 396 1090 q 315 846 363 966 l 315 -125 l 212 -125 l 212 618 q 109 445 163 521 l 54 553 q 288 1123 217 825 z "},"假":{"ha":1389,"x_min":54,"x_max":1335,"o":"m 282 1123 l 385 1090 q 288 792 347 939 l 288 -125 l 184 -125 l 184 570 l 109 445 l 54 553 q 282 1123 212 825 m 836 1063 l 836 635 l 548 635 l 548 483 l 825 483 l 825 385 l 548 385 l 548 233 l 825 233 l 825 136 l 548 136 l 548 -125 l 445 -125 l 445 1063 l 836 1063 m 548 732 l 732 732 l 732 966 l 548 966 l 548 732 m 895 1063 l 1275 1063 l 1275 646 l 895 646 l 895 743 l 1161 743 l 1161 966 l 895 966 l 895 1063 m 895 553 l 1302 553 q 1156 103 1280 298 q 1335 -33 1226 33 l 1264 -125 q 1090 22 1166 -60 q 890 -125 1009 -65 l 825 -27 q 1020 103 939 27 q 884 358 939 212 l 966 418 q 1080 190 1015 282 q 1183 456 1156 309 l 895 456 l 895 553 z "},"偎":{"ha":1389,"x_min":54,"x_max":1318,"o":"m 342 1123 l 450 1090 q 353 841 407 966 l 353 -125 l 244 -125 l 244 635 q 109 445 179 532 l 54 553 q 342 1123 255 825 m 543 1074 l 1221 1074 l 1221 537 l 543 537 l 543 1074 m 646 846 l 830 846 l 830 982 l 646 982 l 646 846 m 933 982 l 933 846 l 1118 846 l 1118 982 l 933 982 m 646 629 l 830 629 l 830 760 l 646 760 l 646 629 m 933 760 l 933 629 l 1118 629 l 1118 760 l 933 760 m 472 461 l 1297 461 l 1297 363 l 933 363 q 1031 190 971 266 q 1194 320 1134 250 l 1291 260 q 1101 114 1210 174 q 1318 -11 1188 33 l 1264 -119 q 830 363 949 11 l 684 363 l 684 -5 q 928 87 814 38 l 955 -5 q 629 -130 781 -81 l 581 -76 l 581 363 l 472 363 l 472 461 z "},"偏":{"ha":1389,"x_min":54,"x_max":1291,"o":"m 326 1123 l 434 1090 q 320 792 385 939 l 320 -125 l 212 -125 l 212 586 q 109 445 163 510 l 54 553 q 326 1123 239 825 m 819 982 q 760 1096 792 1042 l 863 1128 q 933 982 906 1063 l 1275 982 l 1275 646 l 581 646 l 581 456 q 461 -125 581 152 l 369 -54 q 472 456 472 174 l 472 982 l 819 982 m 581 743 l 1166 743 l 1166 884 l 581 884 l 581 743 m 1291 537 l 1291 -11 q 1259 -95 1291 -65 q 1161 -125 1226 -125 q 1080 -114 1128 -125 l 1058 -22 q 1156 -33 1123 -33 q 1188 16 1188 -33 l 1188 195 l 1101 195 l 1101 5 l 1004 5 l 1004 195 l 917 195 l 917 5 l 819 5 l 819 195 l 727 195 l 727 -130 l 629 -130 l 629 537 l 1291 537 m 727 288 l 819 288 l 819 439 l 727 439 l 727 288 m 917 439 l 917 288 l 1004 288 l 1004 439 l 917 439 m 1101 439 l 1101 288 l 1188 288 l 1188 439 l 1101 439 z "},"做":{"ha":1389,"x_min":54,"x_max":1324,"o":"m 326 1123 l 434 1090 q 320 792 385 939 l 320 -125 l 212 -125 l 212 586 q 109 445 163 510 l 54 553 q 326 1123 239 825 m 564 1112 l 667 1112 l 667 868 l 841 868 l 841 770 l 667 770 l 667 521 l 819 521 l 819 49 l 711 49 l 711 109 l 526 109 l 526 -5 l 418 -5 l 418 521 l 564 521 l 564 770 l 391 770 l 391 868 l 564 868 l 564 1112 m 711 201 l 711 423 l 526 423 l 526 201 l 711 201 m 977 1118 l 1074 1085 q 1036 895 1058 987 l 1318 895 l 1318 792 l 1259 792 q 1215 450 1242 602 l 1156 233 q 1324 -22 1221 92 l 1248 -119 q 1101 114 1166 -22 q 928 -119 1031 -27 l 857 -27 q 1042 239 971 71 q 939 564 987 380 l 906 483 l 825 543 q 977 1118 933 814 m 998 738 q 1090 380 1036 532 q 1156 792 1139 548 l 1009 792 q 998 738 1009 787 z "},"停":{"ha":1389,"x_min":54,"x_max":1297,"o":"m 282 1123 l 385 1090 q 288 792 347 939 l 288 -125 l 184 -125 l 184 570 l 109 445 l 54 553 q 282 1123 212 825 m 418 1025 l 765 1025 q 727 1101 749 1069 l 830 1134 q 884 1025 868 1085 l 1253 1025 l 1253 928 l 418 928 l 418 1025 m 483 868 l 1204 868 l 1204 591 l 483 591 l 483 868 m 586 678 l 1101 678 l 1101 776 l 586 776 l 586 678 m 1297 526 l 1297 260 l 1194 260 l 1194 429 l 488 429 l 488 271 l 385 271 l 385 526 l 1297 526 m 526 336 l 1156 336 l 1156 244 l 906 244 l 906 11 q 882 -95 906 -65 q 776 -125 857 -125 q 608 -109 689 -125 l 586 0 q 776 -22 684 -22 q 808 27 808 -22 l 808 244 l 526 244 l 526 336 z "},"健":{"ha":1389,"x_min":54,"x_max":1318,"o":"m 732 1020 l 901 1020 l 901 1118 l 998 1118 l 998 1020 l 1226 1020 l 1226 836 l 1318 836 l 1318 743 l 1226 743 l 1226 559 l 998 559 l 998 461 l 1242 461 l 1242 369 l 998 369 l 998 271 l 1280 271 l 1280 179 l 998 179 l 998 38 l 901 38 l 901 179 l 678 179 l 678 271 l 901 271 l 901 369 l 711 369 l 711 461 l 901 461 l 901 559 l 732 559 l 732 646 l 901 646 l 901 743 l 667 743 l 667 836 l 901 836 l 901 933 l 732 933 l 732 1020 m 998 933 l 998 836 l 1128 836 l 1128 933 l 998 933 m 998 743 l 998 646 l 1128 646 l 1128 743 l 998 743 m 260 1123 l 369 1090 q 288 830 336 960 l 288 -125 l 184 -125 l 184 581 l 109 445 l 54 553 q 260 1123 195 825 m 391 1069 l 667 1069 l 667 987 q 510 673 586 808 l 662 673 q 559 146 651 320 q 993 0 646 5 l 1318 0 l 1280 -103 l 993 -103 q 510 49 635 -103 q 369 -125 450 -49 l 315 -43 q 450 141 396 38 q 347 467 385 266 l 434 499 q 499 260 461 358 q 570 586 543 380 l 407 586 l 401 673 l 564 982 l 391 982 l 391 1069 z "},"偶":{"ha":1389,"x_min":54,"x_max":1286,"o":"m 282 1123 l 385 1090 q 288 792 347 939 l 288 -125 l 184 -125 l 184 570 l 109 445 l 54 553 q 282 1123 212 825 m 467 1090 l 1221 1090 l 1221 581 l 895 581 l 895 477 l 1286 477 l 1286 22 q 1242 -79 1286 -43 q 1112 -114 1199 -114 q 966 -98 1053 -114 l 944 11 q 1112 -5 1053 -5 q 1183 49 1183 -5 l 1183 380 l 895 380 l 895 206 l 993 217 l 949 298 l 1031 331 q 1150 87 1101 217 l 1058 49 q 1031 136 1047 92 q 597 76 830 98 l 581 174 l 792 195 l 792 380 l 515 380 l 515 -114 l 412 -114 l 412 477 l 792 477 l 792 581 l 467 581 l 467 1090 m 570 884 l 792 884 l 792 993 l 570 993 l 570 884 m 895 993 l 895 884 l 1118 884 l 1118 993 l 895 993 m 570 678 l 792 678 l 792 792 l 570 792 l 570 678 m 895 792 l 895 678 l 1118 678 l 1118 792 l 895 792 z "},"偷":{"ha":1389,"x_min":54,"x_max":1329,"o":"m 288 1123 l 396 1090 q 315 846 363 966 l 315 -125 l 212 -125 l 212 618 q 109 445 163 521 l 54 553 q 288 1123 217 825 m 803 1123 l 906 1090 q 879 1058 895 1074 q 1329 792 1085 890 l 1270 689 q 1090 787 1177 732 l 1090 711 l 591 711 l 591 776 q 412 656 510 711 l 353 743 q 803 1123 667 928 m 635 808 l 1058 808 q 825 987 966 863 q 635 808 732 884 m 1118 635 l 1221 635 l 1221 11 q 1196 -92 1221 -65 q 1096 -119 1172 -119 q 960 -109 1025 -119 l 944 -11 q 1080 -22 1009 -22 q 1118 38 1118 -22 l 1118 635 m 841 629 l 841 0 q 806 -90 841 -60 q 700 -119 770 -119 q 635 -114 673 -119 l 613 -22 q 694 -27 667 -27 q 738 22 738 -27 l 738 141 l 553 141 l 553 -125 l 450 -125 l 450 629 l 841 629 m 553 429 l 738 429 l 738 532 l 553 532 l 553 429 m 553 233 l 738 233 l 738 336 l 553 336 l 553 233 m 933 581 l 1025 581 l 1025 81 l 933 81 l 933 581 z "},"偿":{"ha":1389,"x_min":54,"x_max":1286,"o":"m 342 1123 l 450 1090 q 353 841 407 966 l 353 -125 l 244 -125 l 244 635 q 109 445 179 532 l 54 553 q 342 1123 255 825 m 825 1123 l 928 1123 l 928 846 l 982 846 q 1107 1085 1058 944 l 1221 1047 q 1107 846 1177 933 l 1286 846 l 1286 543 l 1183 543 l 1183 749 l 559 749 l 559 537 l 461 537 l 461 846 l 825 846 l 825 1123 m 618 1080 q 727 906 684 998 l 629 857 q 526 1031 591 949 l 618 1080 m 618 618 l 1128 618 l 1128 521 l 618 521 l 618 618 m 483 385 l 1270 385 l 1270 288 l 483 288 l 483 385 m 722 266 l 830 233 q 684 22 765 103 q 1047 71 863 33 q 966 190 1009 130 l 1058 244 q 1259 -65 1177 98 l 1156 -125 q 1101 -16 1134 -71 q 537 -87 836 -71 l 505 5 q 722 266 635 92 z "},"傀":{"ha":1389,"x_min":54,"x_max":1308,"o":"m 342 1123 l 450 1090 q 353 841 407 966 l 353 -125 l 244 -125 l 244 635 q 109 445 179 532 l 54 553 q 342 1123 255 825 m 743 1134 l 857 1112 q 787 1009 830 1053 l 1166 1009 l 1166 445 l 977 445 l 977 16 q 990 -14 977 -5 q 1058 -22 1004 -22 q 1177 -8 1161 -22 q 1204 87 1194 5 l 1302 49 q 1261 -84 1297 -54 q 1058 -114 1226 -114 q 903 -92 939 -114 q 868 -16 868 -71 l 868 445 l 852 445 q 456 -125 798 71 l 396 -27 q 743 445 678 130 l 494 445 l 494 1009 l 678 1009 q 743 1134 722 1069 m 597 776 l 776 776 l 776 911 l 597 911 l 597 776 m 879 776 l 1063 776 l 1063 911 l 879 911 l 879 776 m 597 543 l 760 543 l 770 678 l 597 678 l 597 543 m 863 543 l 1063 543 l 1063 678 l 873 678 l 863 543 m 1090 401 l 1172 380 q 1096 206 1139 282 q 1194 239 1145 217 l 1172 298 l 1242 320 q 1308 141 1286 239 l 1226 119 q 1215 163 1226 141 q 1020 125 1123 136 l 998 195 q 1090 401 1053 266 z "},"傅":{"ha":1389,"x_min":54,"x_max":1335,"o":"m 326 1123 l 434 1090 q 320 792 385 939 l 320 -125 l 212 -125 l 212 586 q 109 445 163 510 l 54 553 q 326 1123 239 825 m 439 1015 l 803 1015 l 803 1123 l 906 1123 l 906 1015 l 1047 1015 q 993 1074 1020 1047 l 1058 1123 q 1161 1015 1118 1074 l 1291 1015 l 1291 922 l 906 922 l 906 841 l 1232 841 l 1232 342 l 1128 342 l 1128 434 l 906 434 l 906 342 l 803 342 l 803 434 l 581 434 l 581 342 l 477 342 l 477 841 l 803 841 l 803 922 l 439 922 l 439 1015 m 581 673 l 803 673 l 803 754 l 581 754 l 581 673 m 906 754 l 906 673 l 1128 673 l 1128 754 l 906 754 m 581 510 l 803 510 l 803 597 l 581 597 l 581 510 m 906 597 l 906 510 l 1128 510 l 1128 597 l 906 597 m 412 255 l 1042 255 l 1042 315 l 1145 315 l 1145 255 l 1335 255 l 1335 163 l 1145 163 l 1145 16 q 1115 -90 1145 -60 q 993 -119 1085 -119 q 873 -103 928 -119 l 857 5 q 993 -16 922 -16 q 1042 33 1042 -16 l 1042 163 l 412 163 l 412 255 m 608 125 q 776 0 700 71 l 711 -81 q 548 54 635 0 l 608 125 z "},"傍":{"ha":1389,"x_min":54,"x_max":1297,"o":"m 282 1123 l 385 1090 q 288 792 347 939 l 288 -125 l 184 -125 l 184 570 l 109 445 l 54 553 q 282 1123 212 825 m 841 1134 q 911 1020 884 1085 l 1286 1020 l 1286 922 l 423 922 l 423 1020 l 792 1020 q 738 1101 770 1063 l 841 1134 m 640 901 q 754 749 711 830 l 960 749 q 1047 895 1009 819 l 1161 863 q 1090 749 1128 798 l 1297 749 l 1297 564 l 1188 564 l 1188 656 l 505 656 l 505 564 l 396 564 l 396 749 l 629 749 q 553 846 597 798 l 640 901 m 857 618 q 922 505 895 564 l 1291 505 l 1291 407 l 765 407 l 754 293 l 1237 293 q 1183 -52 1232 22 q 1020 -125 1134 -125 q 836 -103 960 -125 l 814 5 q 1020 -16 949 -16 q 1085 22 1063 -16 q 1112 201 1107 60 l 732 201 q 445 -125 678 5 l 363 -38 q 578 141 515 43 q 656 407 640 239 l 407 407 l 407 505 l 803 505 q 754 591 781 548 l 857 618 z "},"储":{"ha":1389,"x_min":54,"x_max":1318,"o":"m 326 1123 l 434 1090 q 320 792 385 939 l 320 -125 l 212 -125 l 212 586 q 109 445 163 510 l 54 553 q 326 1123 239 825 m 537 1096 q 651 895 608 1004 l 548 836 q 439 1036 510 944 l 537 1096 m 385 722 l 613 722 l 613 125 l 694 244 l 765 184 q 591 -54 700 60 l 515 11 l 515 624 l 385 624 l 385 722 m 749 982 l 917 982 l 917 1123 l 1020 1123 l 1020 982 l 1177 982 l 1221 1063 l 1308 1015 q 1128 738 1237 879 l 1318 738 l 1318 640 l 1047 640 l 917 510 l 1275 510 l 1275 -125 l 1172 -125 l 1172 -38 l 895 -38 l 895 -125 l 792 -125 l 792 401 q 722 353 749 374 l 662 429 q 901 640 781 515 l 705 640 l 705 738 l 917 738 l 917 884 l 749 884 l 749 982 m 1020 770 q 1107 884 1069 825 l 1020 884 l 1020 770 m 895 282 l 1172 282 l 1172 412 l 895 412 l 895 282 m 895 60 l 1172 60 l 1172 190 l 895 190 l 895 60 z "},"催":{"ha":1389,"x_min":54,"x_max":1313,"o":"m 260 1123 l 369 1090 q 288 830 336 960 l 288 -125 l 184 -125 l 184 581 l 109 445 l 54 553 q 260 1123 195 825 m 434 1058 l 537 1058 l 537 911 l 792 911 l 792 1123 l 895 1123 l 895 911 l 1150 911 l 1150 1058 l 1253 1058 l 1253 814 l 434 814 l 434 1058 m 532 787 l 635 754 l 591 651 l 852 651 q 781 738 819 700 l 868 798 q 977 651 928 732 l 1291 651 l 1291 553 l 966 553 l 966 450 l 1248 450 l 1248 358 l 966 358 l 966 250 l 1248 250 l 1248 152 l 966 152 l 966 49 l 1313 49 l 1313 -54 l 581 -54 l 581 -125 l 472 -125 l 472 423 l 407 336 l 320 407 q 532 787 461 581 m 857 553 l 581 553 l 581 450 l 857 450 l 857 553 m 857 250 l 857 358 l 581 358 l 581 250 l 857 250 m 581 49 l 857 49 l 857 152 l 581 152 l 581 49 z "},"傲":{"ha":1389,"x_min":54,"x_max":1324,"o":"m 467 494 l 353 494 l 353 591 l 537 591 l 537 705 l 391 705 l 391 803 l 537 803 l 537 911 l 369 911 l 369 1015 l 537 1015 l 537 1123 l 640 1123 l 640 1015 l 814 1015 l 814 911 l 640 911 l 640 803 l 781 803 l 781 705 l 640 705 l 640 591 l 803 591 l 803 494 l 564 494 q 559 380 564 434 l 792 380 q 762 -33 792 33 q 640 -98 732 -98 q 548 -81 602 -98 l 532 16 q 629 0 586 0 q 670 33 656 0 q 689 288 684 65 l 553 288 q 407 -119 521 38 l 309 -60 q 467 494 456 136 m 977 1118 l 1074 1085 q 1036 895 1058 987 l 1318 895 l 1318 792 l 1259 792 q 1215 450 1242 602 l 1156 233 q 1324 -22 1221 92 l 1248 -119 q 1101 114 1166 -22 q 928 -119 1031 -27 l 857 -27 q 1042 239 971 71 q 939 564 987 380 l 906 483 l 825 543 q 977 1118 933 814 m 998 738 q 1090 380 1036 532 q 1156 792 1139 548 l 1009 792 q 998 738 1009 787 m 260 1123 l 369 1090 q 288 830 336 960 l 288 -125 l 184 -125 l 184 581 l 109 445 l 54 553 q 260 1123 195 825 z "},"傻":{"ha":1389,"x_min":54,"x_max":1329,"o":"m 342 1123 l 450 1090 q 353 841 407 966 l 353 -125 l 244 -125 l 244 635 q 109 445 179 532 l 54 553 q 342 1123 255 825 m 499 1009 l 743 1009 q 787 1128 770 1069 l 906 1101 q 857 1009 884 1053 l 1237 1009 l 1237 515 l 1090 515 q 1329 331 1221 434 l 1253 250 q 987 472 1134 380 l 1020 515 l 716 515 l 760 494 q 483 260 651 374 l 412 331 q 646 515 553 423 l 499 515 l 499 1009 m 602 613 l 1134 613 l 1134 911 l 602 911 l 602 613 m 998 901 l 1063 846 l 971 776 q 1090 700 1036 738 l 1031 624 q 890 722 960 678 q 694 624 781 656 l 651 700 q 803 770 722 722 q 662 841 732 808 l 722 901 q 890 819 808 863 q 998 901 949 857 m 776 429 l 873 407 q 825 331 852 369 l 1139 331 l 1139 244 q 987 60 1080 130 q 1308 -33 1134 0 l 1259 -136 q 879 -11 1047 -92 q 510 -136 722 -98 l 467 -38 q 781 43 651 -11 q 651 157 705 92 l 526 81 l 461 152 q 776 429 667 260 m 890 98 q 1031 244 982 157 l 749 244 q 722 222 743 239 q 890 98 798 152 z "},"像":{"ha":1389,"x_min":54,"x_max":1324,"o":"m 342 1123 l 450 1090 q 353 841 407 966 l 353 -125 l 244 -125 l 244 635 q 109 445 179 532 l 54 553 q 342 1123 255 825 m 711 1128 l 808 1101 q 760 1036 787 1069 l 1080 1036 l 1080 955 q 1004 863 1042 906 l 1242 863 l 1242 548 l 836 548 l 808 510 q 933 363 890 445 q 1183 532 1080 434 l 1270 461 q 1139 369 1215 412 q 1324 27 1194 125 l 1242 -65 q 1047 315 1107 43 l 966 277 q 987 103 987 195 q 944 -68 987 -11 q 819 -125 901 -125 q 689 -114 770 -125 l 662 -5 q 819 -22 749 -22 q 868 11 852 -22 q 884 103 884 43 q 879 168 884 141 q 439 -54 694 22 l 396 38 q 863 266 678 119 l 836 326 q 467 130 678 206 l 412 222 q 787 396 618 288 q 732 445 765 423 q 467 309 629 363 l 401 401 q 689 548 581 456 l 477 548 l 477 798 l 445 776 l 385 868 q 711 1128 613 993 m 581 863 l 873 863 q 960 949 928 911 l 678 949 q 581 863 640 911 m 581 646 l 770 646 q 819 765 808 705 l 581 765 l 581 646 m 928 765 q 890 646 917 705 l 1139 646 l 1139 765 l 928 765 z "},"僚":{"ha":1389,"x_min":54,"x_max":1324,"o":"m 282 1123 l 385 1090 q 288 792 347 939 l 288 -125 l 184 -125 l 184 570 l 109 445 l 54 553 q 282 1123 212 825 m 423 993 l 694 993 q 754 1123 727 1058 l 857 1101 q 814 993 841 1047 l 1226 993 l 1226 901 l 1004 901 q 1112 749 1053 808 q 1172 830 1145 787 l 1264 781 q 1183 684 1226 722 q 1324 602 1253 629 l 1264 505 q 1134 586 1194 537 l 1134 266 l 873 266 l 873 5 q 849 -95 873 -65 q 732 -125 825 -125 q 635 -109 684 -125 l 613 -11 q 732 -27 673 -27 q 765 22 765 -27 l 765 266 l 510 266 l 510 575 q 418 499 467 532 l 342 570 q 477 700 418 629 q 396 765 439 732 l 456 836 q 543 770 499 808 q 640 901 597 830 l 423 901 l 423 993 m 770 901 q 624 694 694 770 l 1020 694 q 890 901 944 781 l 770 901 m 613 521 l 1036 521 l 1036 602 l 613 602 l 613 521 m 613 358 l 1036 358 l 1036 439 l 613 439 l 613 358 m 586 217 l 667 152 q 412 -71 559 22 l 342 27 q 586 217 477 98 m 1074 206 q 1286 -11 1183 114 l 1194 -81 q 987 146 1107 38 l 1074 206 z "},"僧":{"ha":1389,"x_min":54,"x_max":1280,"o":"m 342 1123 l 450 1090 q 353 841 407 966 l 353 -125 l 244 -125 l 244 635 q 109 445 179 532 l 54 553 q 342 1123 255 825 m 700 1134 q 792 971 754 1058 l 971 971 q 1058 1134 1031 1058 l 1177 1096 q 1096 971 1161 1053 l 1280 971 l 1280 499 l 461 499 l 461 971 l 673 971 q 597 1085 640 1031 l 700 1134 m 570 591 l 825 591 l 825 879 l 570 879 l 570 591 m 700 841 q 792 673 754 765 l 684 624 q 597 792 651 722 l 700 841 m 922 879 l 922 591 l 1177 591 l 1177 879 l 922 879 m 1042 846 l 1145 825 q 1058 618 1123 705 l 960 673 q 1042 846 1020 754 m 1237 423 l 1237 -119 l 1134 -119 l 1134 -43 l 608 -43 l 608 -119 l 510 -119 l 510 423 l 1237 423 m 608 233 l 1134 233 l 1134 331 l 608 331 l 608 233 m 608 43 l 1134 43 l 1134 146 l 608 146 l 608 43 z "},"僵":{"ha":1389,"x_min":54,"x_max":1329,"o":"m 461 1090 l 1270 1090 l 1270 1009 l 461 1009 l 461 1090 m 488 949 l 1242 949 l 1242 602 l 488 602 l 488 949 m 586 808 l 814 808 l 814 873 l 586 873 l 586 808 m 917 873 l 917 808 l 1145 808 l 1145 873 l 917 873 m 586 678 l 814 678 l 814 738 l 586 738 l 586 678 m 917 738 l 917 678 l 1145 678 l 1145 738 l 917 738 m 418 543 l 1313 543 l 1313 456 l 418 456 l 418 543 m 483 396 l 1253 396 l 1253 49 l 483 49 l 483 396 m 586 255 l 819 255 l 819 320 l 586 320 l 586 255 m 922 320 l 922 255 l 1156 255 l 1156 320 l 922 320 m 586 125 l 819 125 l 819 190 l 586 190 l 586 125 m 922 190 l 922 125 l 1156 125 l 1156 190 l 922 190 m 385 -11 l 1329 -11 l 1329 -98 l 385 -98 l 385 -11 m 326 1123 l 434 1090 q 320 792 385 939 l 320 -125 l 212 -125 l 212 586 q 109 445 163 510 l 54 553 q 326 1123 239 825 z "},"僻":{"ha":1389,"x_min":54,"x_max":1318,"o":"m 282 1123 l 385 1090 q 288 792 347 939 l 288 -125 l 184 -125 l 184 570 l 109 445 l 54 553 q 282 1123 212 825 m 1074 1123 q 1128 949 1112 1036 l 1313 949 l 1313 852 l 830 852 l 830 949 l 1020 949 q 977 1096 1009 1025 l 1074 1123 m 521 635 l 521 597 q 515 477 521 537 l 787 477 l 787 -119 l 684 -119 l 684 -11 l 591 -11 l 591 -119 l 483 -119 l 483 293 q 458 206 483 282 q 380 38 434 130 l 282 98 q 388 361 358 250 q 418 640 418 472 l 418 1074 l 787 1074 l 787 635 l 521 635 m 689 977 l 521 977 l 521 732 l 689 732 l 689 977 m 591 92 l 684 92 l 684 374 l 591 374 l 591 92 m 955 825 q 1031 629 1004 738 l 933 597 q 868 798 911 711 l 955 825 m 1172 825 l 1275 798 q 1194 575 1237 673 l 1318 575 l 1318 477 l 1123 477 l 1123 298 l 1297 298 l 1297 201 l 1123 201 l 1123 -119 l 1015 -119 l 1015 201 l 836 201 l 836 298 l 1015 298 l 1015 477 l 814 477 l 814 575 l 1090 575 q 1172 825 1134 694 z "},"儒":{"ha":1389,"x_min":54,"x_max":1308,"o":"m 260 1123 l 369 1090 q 288 830 336 960 l 288 -125 l 184 -125 l 184 581 l 109 445 l 54 553 q 260 1123 195 825 m 423 1096 l 1253 1096 l 1253 998 l 879 998 l 879 928 l 1291 928 l 1291 711 l 1188 711 l 1188 830 l 879 830 l 879 515 l 776 515 l 776 830 l 477 830 l 477 711 l 374 711 l 374 928 l 776 928 l 776 998 l 423 998 l 423 1096 m 515 770 l 738 770 l 738 689 l 515 689 l 515 770 m 928 770 l 1156 770 l 1156 689 l 928 689 l 928 770 m 467 629 l 738 629 l 738 548 l 467 548 l 467 629 m 928 629 l 1210 629 l 1210 548 l 928 548 l 928 629 m 374 477 l 1308 477 l 1308 380 l 863 380 q 836 304 852 336 l 1270 304 l 1270 -16 q 1234 -98 1270 -71 q 1128 -125 1199 -125 q 1053 -114 1101 -125 l 1036 -27 q 1128 -38 1096 -38 q 1166 11 1166 -38 l 1166 206 l 1009 206 l 1009 -98 l 911 -98 l 911 206 l 765 206 l 765 -98 l 667 -98 l 667 206 l 521 206 l 521 -125 l 418 -125 l 418 304 l 727 304 q 754 380 743 342 l 374 380 l 374 477 z "},"儡":{"ha":1389,"x_min":54,"x_max":1313,"o":"m 288 1123 l 396 1090 q 315 846 363 966 l 315 -125 l 212 -125 l 212 618 q 109 445 163 521 l 54 553 q 288 1123 217 825 m 505 1074 l 1226 1074 l 1226 618 l 505 618 l 505 1074 m 602 890 l 814 890 l 814 993 l 602 993 l 602 890 m 917 993 l 917 890 l 1128 890 l 1128 993 l 917 993 m 602 700 l 814 700 l 814 803 l 602 803 l 602 700 m 917 803 l 917 700 l 1128 700 l 1128 803 l 917 803 m 1313 532 l 1313 -119 l 1226 -119 l 1226 -43 l 982 -43 l 982 -119 l 890 -119 l 890 532 l 1313 532 m 982 288 l 1063 288 l 1063 450 l 982 450 l 982 288 m 1139 450 l 1139 288 l 1226 288 l 1226 450 l 1139 450 m 982 38 l 1063 38 l 1063 206 l 982 206 l 982 38 m 1139 38 l 1226 38 l 1226 206 l 1139 206 l 1139 38 m 819 532 l 819 -125 l 727 -125 l 727 -43 l 483 -43 l 483 -125 l 396 -125 l 396 532 l 819 532 m 483 288 l 570 288 l 570 445 l 483 445 l 483 288 m 646 445 l 646 288 l 727 288 l 727 445 l 646 445 m 483 38 l 570 38 l 570 201 l 483 201 l 483 38 m 646 38 l 727 38 l 727 201 l 646 201 l 646 38 z "},"儿":{"ha":1389,"x_min":98,"x_max":1318,"o":"m 792 1074 l 901 1074 l 901 43 q 922 14 901 22 q 1069 5 944 5 q 1177 38 1150 5 q 1215 217 1204 71 l 1318 174 q 1248 -54 1291 -11 q 1069 -98 1204 -98 q 841 -68 890 -98 q 792 27 792 -38 l 792 1074 m 423 1069 l 532 1069 q 515 483 532 591 q 404 119 488 266 q 174 -114 320 -27 l 98 -22 q 298 165 222 49 q 399 431 374 282 q 423 1069 423 581 z "},"允":{"ha":1389,"x_min":76,"x_max":1318,"o":"m 553 1123 l 662 1090 q 353 656 510 792 q 1009 722 667 673 q 846 906 933 814 l 939 966 q 1270 591 1107 808 l 1183 499 l 1085 629 l 895 602 l 895 65 q 914 27 895 38 q 1009 16 933 16 q 1166 43 1145 16 q 1199 244 1194 81 l 1318 206 q 1259 -49 1308 0 q 1009 -98 1215 -98 q 819 -71 863 -98 q 776 22 776 -43 l 776 591 q 564 570 673 575 q 488 141 559 277 q 174 -125 407 -11 l 76 -38 q 366 176 288 54 q 450 559 445 298 q 190 543 320 548 l 157 646 q 553 1123 391 808 z "},"元":{"ha":1389,"x_min":65,"x_max":1324,"o":"m 195 1036 l 1194 1036 l 1194 933 l 195 933 l 195 1036 m 109 673 l 1280 673 l 1280 570 l 906 570 l 906 43 q 917 8 906 16 q 960 0 928 0 q 1142 11 1112 0 q 1188 57 1172 22 q 1210 233 1204 92 l 1324 201 q 1289 -19 1313 33 q 1210 -90 1264 -71 q 960 -109 1156 -109 q 830 -84 863 -109 q 798 5 798 -60 l 798 570 l 559 570 q 472 125 559 266 q 125 -125 369 -33 l 65 -22 q 366 182 282 54 q 450 570 450 309 l 109 570 l 109 673 z "},"兄":{"ha":1389,"x_min":71,"x_max":1318,"o":"m 439 494 l 212 494 l 212 1063 l 1156 1063 l 1156 494 l 879 494 l 879 49 q 898 16 879 27 q 998 5 917 5 q 1142 14 1112 5 q 1185 54 1172 22 q 1204 222 1199 87 l 1318 190 q 1259 -60 1308 -11 q 998 -103 1210 -103 q 811 -79 857 -103 q 765 11 765 -54 l 765 494 l 553 494 q 453 119 543 260 q 157 -125 363 -22 l 71 -33 q 345 176 266 60 q 439 494 423 293 m 320 597 l 1042 597 l 1042 960 l 320 960 l 320 597 z "},"充":{"ha":1389,"x_min":76,"x_max":1313,"o":"m 711 1128 q 776 987 754 1063 l 1313 987 l 1313 884 l 76 884 l 76 987 l 640 987 q 597 1090 624 1047 l 711 1128 m 570 933 l 678 901 q 374 548 526 656 q 987 608 667 559 q 836 765 917 689 l 928 825 q 1248 445 1123 646 l 1145 385 q 1053 526 1101 456 q 879 499 966 510 l 879 49 q 898 19 879 27 q 1009 11 917 11 q 1172 33 1150 11 q 1204 212 1199 60 l 1313 174 q 1264 -49 1308 -5 q 1009 -92 1221 -92 q 814 -71 857 -92 q 770 16 770 -49 l 770 488 q 570 472 667 477 q 157 -125 515 43 l 87 -27 q 461 461 407 114 l 206 450 l 179 537 q 570 933 407 667 z "},"兆":{"ha":1389,"x_min":71,"x_max":1324,"o":"m 776 1123 l 890 1123 l 890 765 q 1139 998 1047 873 l 1226 933 q 890 646 1096 765 l 890 548 q 1286 353 1118 445 l 1215 255 q 890 429 1053 353 l 890 54 q 909 22 890 33 q 1004 11 928 11 q 1183 35 1156 11 q 1215 179 1210 60 l 1324 141 q 1267 -60 1313 -22 q 1004 -98 1221 -98 q 819 -71 863 -98 q 776 16 776 -43 l 776 1123 m 477 1118 l 586 1118 l 586 445 q 152 -130 586 92 l 92 -33 q 477 445 477 163 l 477 450 q 114 244 309 336 l 71 369 q 477 559 293 456 l 477 1118 m 174 971 q 439 711 304 857 l 353 624 q 81 906 233 765 l 174 971 z "},"先":{"ha":1389,"x_min":98,"x_max":1313,"o":"m 363 1107 l 472 1074 q 407 895 445 982 l 651 895 l 651 1123 l 760 1123 l 760 895 l 1204 895 l 1204 792 l 760 792 l 760 559 l 1291 559 l 1291 456 l 895 456 l 895 49 q 914 16 895 27 q 1009 5 933 5 q 1147 16 1123 5 q 1183 62 1172 27 q 1199 239 1194 98 l 1313 206 q 1259 -54 1302 -5 q 1009 -103 1215 -103 q 827 -81 873 -103 q 781 11 781 -60 l 781 456 l 570 456 q 168 -119 548 -11 l 98 -16 q 456 456 429 76 l 103 456 l 103 559 l 651 559 l 651 792 l 358 792 q 239 597 304 678 l 141 673 q 363 1107 298 873 z "},"光":{"ha":1389,"x_min":71,"x_max":1308,"o":"m 635 1123 l 749 1123 l 749 618 l 1275 618 l 1275 515 l 879 515 l 879 38 q 906 5 879 16 q 1058 -5 933 -5 q 1169 14 1150 -5 q 1194 163 1188 33 l 1308 125 q 1261 -73 1297 -38 q 1058 -109 1226 -109 q 819 -84 873 -109 q 765 0 765 -60 l 765 515 l 586 515 q 146 -125 526 54 l 71 -33 q 472 515 418 125 l 114 515 l 114 618 l 635 618 l 635 1123 m 1096 1025 l 1199 966 q 982 689 1096 792 l 906 760 q 1096 1025 1025 884 m 309 1015 q 505 754 407 906 l 407 678 q 206 944 320 814 l 309 1015 z "},"克":{"ha":1389,"x_min":71,"x_max":1329,"o":"m 92 998 l 635 998 l 635 1123 l 743 1123 l 743 998 l 1297 998 l 1297 895 l 743 895 l 743 743 l 1156 743 l 1156 336 l 863 336 l 863 54 q 879 14 863 22 q 977 5 895 5 l 1096 5 q 1204 22 1194 11 q 1226 152 1215 43 l 1329 98 q 1280 -76 1313 -38 q 977 -98 1253 -98 q 784 -76 814 -98 q 754 22 754 -54 l 754 336 l 581 336 q 437 19 543 125 q 114 -125 331 -87 l 71 -27 q 358 98 271 16 q 472 336 445 179 l 217 336 l 217 743 l 635 743 l 635 895 l 92 895 l 92 998 m 326 439 l 1047 439 l 1047 646 l 326 646 l 326 439 z "},"免":{"ha":1389,"x_min":76,"x_max":1329,"o":"m 445 1128 l 559 1090 l 499 1009 l 987 1009 l 987 917 q 884 760 939 830 l 1199 760 l 1199 326 l 852 326 l 852 33 q 876 0 852 11 q 998 -11 901 -11 q 1183 14 1156 -11 q 1215 174 1210 38 l 1329 141 q 1270 -76 1318 -33 q 998 -114 1221 -114 q 792 -90 841 -114 q 743 -5 743 -65 l 743 326 l 711 326 q 510 38 662 174 q 184 -125 385 -76 l 114 -22 q 581 326 450 65 l 260 326 l 260 760 l 749 760 q 857 911 814 830 l 412 911 q 174 716 277 781 l 76 787 q 445 1128 326 939 m 369 429 l 624 429 q 662 656 651 526 l 369 656 l 369 429 m 743 429 l 1090 429 l 1090 656 l 770 656 q 743 429 765 532 z "},"兑":{"ha":1389,"x_min":92,"x_max":1318,"o":"m 928 1123 l 1047 1090 q 890 884 971 971 l 1112 884 l 1112 374 l 895 374 l 895 38 q 909 3 895 11 q 982 -5 922 -5 q 1161 22 1123 -5 q 1215 141 1199 49 l 1318 98 q 1237 -68 1291 -27 q 982 -109 1183 -109 q 822 -81 857 -109 q 787 16 787 -54 l 787 374 l 591 374 q 168 -136 532 11 l 92 -38 q 483 374 429 81 l 277 374 l 277 884 l 770 884 q 928 1123 863 998 m 385 477 l 1004 477 l 1004 781 l 385 781 l 385 477 m 467 1123 q 597 955 548 1047 l 499 895 q 369 1063 450 982 l 467 1123 z "},"兔":{"ha":1389,"x_min":92,"x_max":1335,"o":"m 217 781 l 732 781 q 857 928 803 852 l 401 928 l 315 852 q 184 770 266 819 l 98 830 q 445 1134 336 977 l 553 1101 q 494 1025 526 1058 l 1004 1025 l 1004 933 q 879 781 944 846 l 1172 781 l 1172 347 l 803 347 l 803 43 q 827 11 803 22 q 971 0 852 0 q 1150 8 1118 0 q 1199 49 1183 16 q 1221 206 1215 81 l 1335 174 q 1270 -65 1324 -16 q 971 -109 1215 -109 q 746 -84 798 -109 q 694 5 694 -60 l 694 309 q 499 38 640 157 q 163 -130 358 -81 l 92 -27 q 581 347 461 65 l 217 347 l 217 781 m 326 450 l 618 450 q 656 678 646 548 l 326 678 l 326 450 m 765 678 q 738 450 760 553 l 1063 450 l 1063 678 l 765 678 m 944 304 q 1134 152 1047 239 l 1058 60 q 873 233 971 163 l 944 304 z "},"党":{"ha":1389,"x_min":71,"x_max":1313,"o":"m 635 1123 l 743 1123 l 743 863 l 1253 863 l 1253 575 l 1145 575 l 1145 760 l 228 760 l 228 575 l 119 575 l 119 863 l 635 863 l 635 1123 m 1015 1101 l 1118 1047 q 955 884 1042 939 l 873 960 q 1015 1101 960 1020 m 353 1096 q 477 939 434 1020 l 380 879 q 260 1036 336 960 l 353 1096 m 309 646 l 1063 646 l 1063 266 l 863 266 l 863 38 q 890 5 863 16 q 1015 -5 917 -5 q 1177 27 1156 -5 q 1210 195 1199 71 l 1313 163 q 1248 -65 1297 -16 q 1015 -103 1215 -103 q 795 -79 836 -103 q 754 11 754 -54 l 754 266 l 586 266 q 146 -125 526 -11 l 71 -22 q 477 266 418 65 l 309 266 l 309 646 m 418 369 l 955 369 l 955 543 l 418 543 l 418 369 z "},"兜":{"ha":1389,"x_min":87,"x_max":1313,"o":"m 629 1123 l 749 1096 q 722 1015 738 1053 l 716 1004 l 917 1004 l 917 391 l 461 391 l 461 1004 l 597 1004 q 629 1123 618 1058 m 564 743 l 814 743 l 814 901 l 564 901 l 564 743 m 564 494 l 814 494 l 814 651 l 564 651 l 564 494 m 374 1101 l 429 1009 q 239 939 336 960 l 239 429 q 401 499 315 456 l 434 407 q 190 304 336 347 l 136 363 l 136 1020 q 374 1101 260 1036 m 960 1042 l 1248 1042 l 1248 358 l 977 358 l 977 461 l 1139 461 l 1139 939 l 960 939 l 960 1042 m 488 336 l 597 315 q 469 16 570 119 q 157 -130 369 -87 l 87 -38 q 377 87 288 0 q 488 336 467 174 m 770 336 l 879 336 l 879 43 q 906 11 879 22 q 1031 0 933 0 q 1177 24 1150 0 q 1215 179 1204 49 l 1313 146 q 1253 -71 1302 -22 q 1031 -103 1221 -103 q 811 -79 852 -103 q 770 11 770 -54 l 770 336 z "},"兢":{"ha":1389,"x_min":71,"x_max":1329,"o":"m 396 369 l 119 369 l 119 754 l 298 754 l 298 890 l 81 890 l 81 993 l 298 993 l 298 1123 l 407 1123 l 407 993 l 629 993 l 629 890 l 407 890 l 407 754 l 618 754 l 618 369 l 505 369 l 505 87 q 640 168 581 125 l 662 65 q 445 -54 570 0 l 396 0 l 396 369 m 228 472 l 510 472 l 510 651 l 228 651 l 228 472 m 217 336 l 320 315 q 146 -130 277 -5 l 71 -49 q 217 336 190 76 m 689 993 l 939 993 l 939 1123 l 1047 1123 l 1047 993 l 1302 993 l 1302 890 l 1047 890 l 1047 754 l 1242 754 l 1242 369 l 1101 369 l 1101 27 q 1134 -16 1101 -16 q 1207 3 1194 -16 q 1226 157 1221 22 l 1329 130 q 1286 -76 1318 -38 q 1134 -109 1259 -109 q 1017 -87 1042 -109 q 993 -5 993 -65 l 993 369 l 716 369 l 716 754 l 939 754 l 939 890 l 689 890 l 689 993 m 825 472 l 1134 472 l 1134 651 l 825 651 l 825 472 m 819 336 l 922 315 q 732 -130 879 0 l 656 -49 q 819 336 787 76 z "},"入":{"ha":1389,"x_min":71,"x_max":1335,"o":"m 646 846 q 515 1058 586 960 l 618 1123 q 865 637 765 922 q 1074 203 966 353 q 1335 -27 1183 54 l 1248 -119 q 1088 0 1161 -76 q 949 174 1015 76 q 830 412 884 271 l 716 700 q 464 195 602 380 q 130 -125 326 11 l 71 -16 q 407 326 277 136 q 646 846 537 515 z "},"全":{"ha":1389,"x_min":60,"x_max":1335,"o":"m 1112 624 l 1112 570 l 754 570 l 754 353 l 1139 353 l 1139 250 l 754 250 l 754 33 l 1248 33 l 1248 -71 l 136 -71 l 136 33 l 640 33 l 640 250 l 255 250 l 255 353 l 640 353 l 640 570 l 266 570 l 266 618 q 114 532 195 575 l 60 640 q 673 1134 488 873 l 787 1101 l 760 1063 q 1335 646 1031 792 l 1270 532 q 1112 624 1188 575 m 694 982 q 342 673 537 808 l 1047 673 q 694 982 846 819 z "},"八":{"ha":1389,"x_min":65,"x_max":1329,"o":"m 917 1063 q 1329 0 998 315 l 1259 -130 q 971 331 1096 22 q 808 1036 846 640 l 917 1063 m 456 1036 l 564 1025 q 437 331 537 597 q 146 -130 336 65 l 65 -22 q 456 1036 418 326 z "},"公":{"ha":1389,"x_min":98,"x_max":1324,"o":"m 949 1069 q 1324 548 1096 738 l 1253 423 q 836 1036 1009 662 l 949 1069 m 456 1069 l 564 1031 q 195 418 418 640 l 98 494 q 456 1069 342 749 m 922 401 q 1210 -65 1101 184 l 1107 -125 l 1053 0 q 277 -76 662 -65 l 228 38 q 624 694 483 304 l 732 651 q 385 38 553 206 q 998 98 662 49 q 830 347 922 228 l 922 401 z "},"六":{"ha":1389,"x_min":71,"x_max":1313,"o":"m 689 1101 q 803 852 760 993 l 694 819 q 581 1069 656 960 l 689 1101 m 103 765 l 1291 765 l 1291 662 l 103 662 l 103 765 m 488 543 l 586 488 q 157 -92 374 119 l 71 -16 q 488 543 331 244 m 917 543 q 1313 11 1150 288 l 1226 -81 q 830 477 1058 222 l 917 543 z "},"兰":{"ha":1389,"x_min":87,"x_max":1302,"o":"m 955 1123 l 1085 1085 q 922 814 1009 928 l 1259 814 l 1259 711 l 163 711 l 163 814 l 798 814 q 955 1123 890 960 m 423 1112 q 591 890 526 1009 l 494 830 q 331 1058 434 949 l 423 1112 m 239 445 l 1161 445 l 1161 342 l 239 342 l 239 445 m 87 60 l 1302 60 l 1302 -43 l 87 -43 l 87 60 z "},"共":{"ha":1389,"x_min":92,"x_max":1291,"o":"m 146 863 l 391 863 l 391 1118 l 499 1118 l 499 863 l 879 863 l 879 1118 l 987 1118 l 987 863 l 1237 863 l 1237 760 l 987 760 l 987 407 l 1291 407 l 1291 304 l 92 304 l 92 407 l 391 407 l 391 760 l 146 760 l 146 863 m 499 407 l 879 407 l 879 760 l 499 760 l 499 407 m 467 255 l 570 195 q 212 -125 396 -11 l 114 -38 q 467 255 331 98 m 922 255 q 1275 -38 1101 130 l 1166 -125 q 825 190 1020 38 l 922 255 z "},"关":{"ha":1389,"x_min":81,"x_max":1324,"o":"m 705 326 q 163 -130 624 11 l 81 -27 q 602 396 543 103 l 130 396 l 130 499 l 618 499 l 618 537 q 624 749 624 548 l 195 749 l 195 852 l 803 852 q 933 1128 890 987 l 1053 1085 q 928 852 1004 960 l 1210 852 l 1210 749 l 732 749 q 727 499 732 505 l 1259 499 l 1259 396 l 781 396 q 1324 0 922 103 l 1253 -130 q 705 326 873 -5 m 429 1118 q 548 928 505 1025 l 456 873 q 342 1063 412 971 l 429 1118 z "},"兴":{"ha":1389,"x_min":87,"x_max":1302,"o":"m 640 1096 q 776 667 732 906 l 662 629 q 537 1063 618 868 l 640 1096 m 87 505 l 852 505 q 1118 1031 1031 760 l 1237 993 q 982 505 1139 722 l 1302 505 l 1302 401 l 87 401 l 87 505 m 255 977 q 456 656 380 830 l 353 597 q 157 917 282 765 l 255 977 m 461 304 l 559 244 q 190 -136 380 5 l 98 -54 q 461 304 320 114 m 868 298 q 1275 -38 1096 157 l 1194 -136 q 792 217 1004 76 l 868 298 z "},"兵":{"ha":1389,"x_min":81,"x_max":1313,"o":"m 1074 1090 l 1172 993 q 412 901 743 917 l 412 743 l 1221 743 l 1221 640 l 960 640 l 960 336 l 1313 336 l 1313 233 l 81 233 l 81 336 l 293 336 l 293 993 q 1074 1090 738 1020 m 412 336 l 852 336 l 852 640 l 412 640 l 412 336 m 439 195 l 532 125 q 163 -125 380 -22 l 81 -16 q 439 195 282 60 m 928 190 q 1291 -33 1123 98 l 1204 -125 q 857 98 1047 11 l 928 190 z "},"其":{"ha":1389,"x_min":71,"x_max":1313,"o":"m 152 966 l 331 966 l 331 1118 l 439 1118 l 439 966 l 971 966 l 971 1118 l 1080 1118 l 1080 966 l 1253 966 l 1253 857 l 1080 857 l 1080 277 l 1313 277 l 1313 179 l 71 179 l 71 277 l 331 277 l 331 857 l 152 857 l 152 966 m 439 727 l 971 727 l 971 857 l 439 857 l 439 727 m 439 494 l 971 494 l 971 635 l 439 635 l 439 494 m 439 277 l 971 277 l 971 401 l 439 401 l 439 277 m 494 141 l 570 60 q 141 -130 423 -49 l 92 -22 q 494 141 336 33 m 890 141 q 1297 -38 1118 65 l 1221 -130 q 814 60 1031 -16 l 890 141 z "},"具":{"ha":1389,"x_min":65,"x_max":1318,"o":"m 1118 1085 l 1118 239 l 1318 239 l 1318 136 l 65 136 l 65 239 l 271 239 l 271 1085 l 1118 1085 m 380 863 l 1009 863 l 1009 982 l 380 982 l 380 863 m 380 656 l 1009 656 l 1009 770 l 380 770 l 380 656 m 380 445 l 1009 445 l 1009 564 l 380 564 l 380 445 m 380 239 l 1009 239 l 1009 353 l 380 353 l 380 239 m 499 125 l 570 43 q 146 -136 429 -60 l 98 -33 q 499 125 336 22 m 841 119 q 1275 -22 1058 71 l 1210 -130 q 770 33 993 -22 l 841 119 z "},"典":{"ha":1389,"x_min":49,"x_max":1335,"o":"m 1199 977 l 1199 277 l 1335 277 l 1335 174 l 49 174 l 49 277 l 184 277 l 184 977 l 488 977 l 488 1134 l 597 1134 l 597 977 l 787 977 l 787 1134 l 895 1134 l 895 977 l 1199 977 m 293 618 l 488 618 l 488 873 l 293 873 l 293 618 m 597 873 l 597 618 l 787 618 l 787 873 l 597 873 m 895 873 l 895 618 l 1090 618 l 1090 873 l 895 873 m 293 277 l 488 277 l 488 526 l 293 526 l 293 277 m 597 277 l 787 277 l 787 526 l 597 526 l 597 277 m 895 277 l 1090 277 l 1090 526 l 895 526 l 895 277 m 499 146 l 586 81 q 195 -125 423 -43 l 114 -16 q 499 146 326 43 m 857 130 q 1264 -16 1069 71 l 1215 -130 q 803 33 1009 -27 l 857 130 z "},"养":{"ha":1389,"x_min":71,"x_max":1313,"o":"m 483 1134 q 586 966 537 1058 l 836 966 q 939 1134 895 1047 l 1058 1101 q 960 966 1015 1025 l 1237 966 l 1237 868 l 754 868 q 732 776 749 819 l 1172 776 l 1172 684 l 711 684 q 667 591 694 635 l 1280 591 l 1280 494 l 949 494 q 1313 336 1090 385 l 1253 228 q 803 494 966 309 l 608 494 q 119 228 456 298 l 71 331 q 456 494 315 380 l 103 494 l 103 591 l 548 591 q 597 684 575 635 l 228 684 l 228 776 l 629 776 l 651 868 l 168 868 l 168 966 l 461 966 q 391 1069 429 1020 l 483 1134 m 439 331 l 548 331 q 507 38 548 130 q 342 -125 467 -54 l 266 -43 q 401 84 363 11 q 439 331 439 157 m 863 331 l 971 331 l 971 -119 l 863 -119 l 863 331 z "},"兼":{"ha":1389,"x_min":71,"x_max":1318,"o":"m 445 1134 q 586 971 515 1063 l 798 971 q 917 1134 873 1053 l 1036 1096 q 928 971 998 1036 l 1286 971 l 1286 879 l 873 879 l 873 765 l 1194 765 l 1194 564 l 1318 564 l 1318 472 l 1194 472 l 1194 271 l 933 271 q 1318 11 1090 92 l 1264 -98 q 873 201 1036 5 l 873 -125 l 770 -125 l 770 271 l 581 271 l 581 -125 l 477 -125 l 477 195 q 141 -98 347 16 l 71 0 q 423 271 282 98 l 168 271 l 168 363 l 477 363 l 477 472 l 71 472 l 71 564 l 477 564 l 477 673 l 179 673 l 179 765 l 477 765 l 477 879 l 98 879 l 98 971 l 450 971 l 363 1080 l 445 1134 m 770 765 l 770 879 l 581 879 l 581 765 l 770 765 m 581 673 l 581 564 l 770 564 l 770 673 l 581 673 m 873 673 l 873 564 l 1096 564 l 1096 673 l 873 673 m 581 472 l 581 363 l 770 363 l 770 472 l 581 472 m 873 472 l 873 363 l 1096 363 l 1096 472 l 873 472 z "},"兽":{"ha":1389,"x_min":71,"x_max":1313,"o":"m 488 1123 q 591 971 553 1053 l 792 971 q 868 1118 846 1053 l 993 1080 q 944 998 977 1042 l 928 971 l 1166 971 l 1166 494 l 212 494 l 212 971 l 461 971 l 396 1063 l 488 1123 m 315 776 l 640 776 l 640 873 l 315 873 l 315 776 m 743 873 l 743 776 l 1063 776 l 1063 873 l 743 873 m 315 591 l 640 591 l 640 689 l 315 689 l 315 591 m 743 689 l 743 591 l 1063 591 l 1063 689 l 743 689 m 71 423 l 1313 423 l 1313 326 l 71 326 l 71 423 m 363 -54 l 363 -125 l 260 -125 l 260 260 l 1128 260 l 1128 -119 l 1025 -119 l 1025 -54 l 363 -54 m 1025 43 l 1025 157 l 363 157 l 363 43 l 1025 43 z "},"冀":{"ha":1389,"x_min":76,"x_max":1313,"o":"m 754 1128 l 857 1128 l 857 1036 q 1210 1118 1042 1069 l 1264 1042 q 857 949 1074 987 l 857 922 q 879 895 857 901 q 1036 890 901 890 q 1166 906 1139 890 q 1210 977 1194 922 l 1297 944 q 1234 822 1275 852 q 1036 792 1194 792 q 800 819 846 792 q 754 906 754 846 l 754 1128 m 499 1123 l 602 1123 l 602 787 l 499 787 l 499 846 q 136 770 336 803 l 103 863 q 499 933 320 895 l 499 982 l 119 982 l 119 1069 l 499 1069 l 499 1123 m 233 760 l 1156 760 l 1156 380 l 977 380 l 977 320 l 1237 320 l 1237 228 l 977 228 l 977 163 l 1313 163 l 1313 71 l 76 71 l 76 163 l 412 163 l 412 228 l 141 228 l 141 320 l 412 320 l 412 380 l 233 380 l 233 760 m 336 618 l 646 618 l 646 673 l 336 673 l 336 618 m 749 673 l 749 618 l 1053 618 l 1053 673 l 749 673 m 336 467 l 646 467 l 646 537 l 336 537 l 336 467 m 749 537 l 749 467 l 1053 467 l 1053 537 l 749 537 m 868 320 l 868 380 l 521 380 l 521 320 l 868 320 m 521 163 l 868 163 l 868 228 l 521 228 l 521 163 m 890 49 q 1270 -38 1080 22 l 1215 -130 q 825 -27 1020 -65 l 890 49 m 505 49 l 581 -16 q 206 -130 429 -87 l 141 -38 q 505 49 342 -5 z "},"内":{"ha":1389,"x_min":163,"x_max":1232,"o":"m 635 1128 l 743 1128 l 743 884 l 1232 884 l 1232 33 q 1191 -79 1232 -43 q 1074 -114 1150 -114 q 879 -92 993 -114 l 852 22 q 1069 0 998 0 q 1123 60 1123 0 l 1123 781 l 738 781 q 716 646 732 711 q 1085 271 917 483 l 1009 179 q 689 543 857 391 q 369 146 591 309 l 315 250 q 635 781 608 467 l 271 781 l 271 -125 l 163 -125 l 163 884 l 635 884 l 635 1128 z "},"冈":{"ha":1389,"x_min":152,"x_max":1242,"o":"m 1242 1063 l 1242 22 q 1202 -76 1242 -43 q 1080 -109 1161 -109 q 944 -92 1020 -109 l 922 11 q 1074 -5 1020 -5 q 1134 43 1134 -5 l 1134 960 l 260 960 l 260 -125 l 152 -125 l 152 1063 l 1242 1063 m 445 803 q 722 553 591 689 q 906 846 836 700 l 1009 819 q 808 472 928 640 q 1031 212 922 347 l 955 125 q 743 380 852 260 q 423 92 608 222 l 347 174 q 656 472 532 320 q 374 727 521 613 l 445 803 z "},"册":{"ha":1389,"x_min":76,"x_max":1318,"o":"m 629 1107 l 629 591 l 749 591 l 749 1107 l 1188 1107 l 1188 591 l 1318 591 l 1318 488 l 1188 488 l 1188 27 q 1156 -87 1188 -49 q 1058 -125 1123 -125 q 949 -119 1015 -125 l 928 -11 q 1042 -16 993 -16 q 1080 60 1080 -16 l 1080 488 l 863 488 l 863 396 q 765 -130 863 65 l 651 -87 q 749 439 749 103 l 749 488 l 629 488 l 629 38 q 608 -60 629 -22 q 548 -109 586 -98 l 380 -114 l 358 -5 l 477 -5 q 521 71 521 -5 l 521 488 l 315 488 l 315 407 q 195 -119 315 71 l 92 -76 q 212 445 212 109 l 212 488 l 76 488 l 76 591 l 212 591 l 212 1107 l 629 1107 m 315 591 l 521 591 l 521 998 l 315 998 l 315 591 m 863 591 l 1080 591 l 1080 998 l 863 998 l 863 591 z "},"再":{"ha":1389,"x_min":65,"x_max":1324,"o":"m 114 1063 l 1275 1063 l 1275 960 l 749 960 l 749 825 l 1183 825 l 1183 315 l 1324 315 l 1324 212 l 1183 212 l 1183 5 q 1139 -92 1183 -60 q 1015 -125 1096 -125 q 841 -103 939 -125 l 814 0 q 1009 -22 944 -22 q 1074 33 1074 -22 l 1074 212 l 309 212 l 309 -125 l 201 -125 l 201 212 l 65 212 l 65 315 l 201 315 l 201 825 l 635 825 l 635 960 l 114 960 l 114 1063 m 309 564 l 635 564 l 635 722 l 309 722 l 309 564 m 749 722 l 749 564 l 1074 564 l 1074 722 l 749 722 m 309 315 l 635 315 l 635 467 l 309 467 l 309 315 m 749 315 l 1074 315 l 1074 467 l 749 467 l 749 315 z "},"冒":{"ha":1389,"x_min":163,"x_max":1226,"o":"m 1226 1085 l 1226 635 l 1123 635 l 1123 987 l 260 987 l 260 635 l 163 635 l 163 1085 l 1226 1085 m 326 911 l 1063 911 l 1063 819 l 326 819 l 326 911 m 326 738 l 1063 738 l 1063 651 l 326 651 l 326 738 m 1156 570 l 1156 -125 l 1053 -125 l 1053 -76 l 347 -76 l 347 -125 l 244 -125 l 244 570 l 1156 570 m 347 385 l 1053 385 l 1053 472 l 347 472 l 347 385 m 347 206 l 1053 206 l 1053 293 l 347 293 l 347 206 m 347 22 l 1053 22 l 1053 114 l 347 114 l 347 22 z "},"冕":{"ha":1389,"x_min":71,"x_max":1313,"o":"m 1150 1090 l 1150 684 l 1047 684 l 1047 993 l 282 993 l 282 684 l 179 684 l 179 1090 l 1150 1090 m 358 939 l 971 939 l 971 852 l 358 852 l 358 939 m 358 803 l 971 803 l 971 722 l 358 722 l 358 803 m 429 700 l 537 667 q 494 629 521 651 l 922 629 l 922 548 q 841 461 884 499 l 1123 461 l 1123 152 l 803 152 l 803 38 q 830 8 803 16 q 987 0 857 0 q 1185 24 1161 0 q 1210 141 1210 49 l 1313 109 q 1261 -68 1308 -33 q 987 -103 1215 -103 q 749 -76 798 -103 q 700 5 700 -49 l 700 152 l 662 152 q 125 -125 521 -54 l 71 -22 q 526 152 385 22 l 331 152 l 331 125 l 228 125 l 228 461 l 700 461 q 781 543 749 499 l 369 543 q 141 439 260 483 l 71 521 q 429 700 320 608 m 331 250 l 597 250 q 635 363 624 304 l 331 363 l 331 250 m 749 363 q 711 250 732 304 l 1020 250 l 1020 363 l 749 363 z "},"冗":{"ha":1389,"x_min":98,"x_max":1335,"o":"m 1286 1074 l 1286 787 l 1177 787 l 1177 982 l 212 982 l 212 787 l 103 787 l 103 1074 l 1286 1074 m 993 760 l 993 60 q 1006 16 993 27 q 1101 5 1020 5 q 1191 35 1172 5 q 1221 239 1210 65 l 1335 217 q 1283 -43 1324 11 q 1090 -98 1242 -98 q 920 -73 955 -98 q 884 27 884 -49 l 884 656 l 510 656 l 510 374 q 434 90 510 206 q 179 -119 358 -27 l 98 -27 q 328 160 255 49 q 401 439 401 271 l 401 760 l 993 760 z "},"写":{"ha":1389,"x_min":92,"x_max":1286,"o":"m 1286 1074 l 1286 787 l 1177 787 l 1177 982 l 212 982 l 212 787 l 103 787 l 103 1074 l 1286 1074 m 423 656 l 401 499 l 1210 499 q 1128 -22 1183 71 q 933 -114 1074 -114 q 716 -92 846 -114 l 694 16 q 933 -11 852 -11 q 1036 60 1004 -11 q 1080 396 1069 130 l 277 396 l 347 901 l 461 890 l 439 760 l 1139 760 l 1139 656 l 423 656 m 92 277 l 982 277 l 982 174 l 92 174 l 92 277 z "},"军":{"ha":1389,"x_min":103,"x_max":1291,"o":"m 1286 1074 l 1286 787 l 1177 787 l 1177 982 l 212 982 l 212 787 l 103 787 l 103 1074 l 1286 1074 m 613 966 l 727 944 q 640 776 689 852 l 1150 776 l 1150 673 l 581 673 q 401 467 499 553 l 667 467 l 667 629 l 776 629 l 776 467 l 1150 467 l 1150 363 l 776 363 l 776 228 l 1291 228 l 1291 125 l 776 125 l 776 -136 l 667 -136 l 667 125 l 103 125 l 103 228 l 667 228 l 667 363 l 260 363 l 233 467 q 434 673 342 559 l 239 673 l 239 776 l 505 776 q 613 966 564 868 z "},"农":{"ha":1389,"x_min":71,"x_max":1335,"o":"m 1248 955 l 1248 656 l 1139 656 l 1139 852 l 749 852 l 716 770 q 895 412 792 564 q 1090 618 1020 510 l 1183 548 q 949 336 1090 429 q 1335 5 1096 152 l 1248 -103 q 651 651 846 179 q 526 467 586 532 l 526 16 q 749 125 646 71 l 776 33 q 467 -136 613 -71 l 407 -76 l 407 353 q 125 163 277 239 l 71 271 q 624 852 450 445 l 271 852 l 271 646 l 163 646 l 163 955 l 667 955 l 722 1128 l 830 1085 l 787 955 l 1248 955 z "},"冠":{"ha":1389,"x_min":71,"x_max":1313,"o":"m 1286 1085 l 1286 825 l 1177 825 l 1177 987 l 212 987 l 212 825 l 103 825 l 103 1085 l 1286 1085 m 141 781 l 624 781 l 624 684 l 141 684 l 141 781 m 81 543 l 684 543 l 684 445 l 543 445 l 543 49 q 594 14 543 27 q 836 0 646 0 q 1142 27 1096 0 q 1210 184 1188 54 l 1313 152 q 1226 -60 1286 -5 q 836 -103 1172 -103 q 502 -76 564 -103 q 439 16 439 -49 l 439 445 l 320 445 l 320 326 q 146 -130 320 -5 l 71 -49 q 222 342 212 54 l 222 445 l 81 445 l 81 543 m 700 705 l 1020 705 l 1020 873 l 1123 873 l 1123 705 l 1275 705 l 1275 608 l 1123 608 l 1123 217 q 1096 98 1123 130 q 998 65 1069 65 q 868 81 928 65 l 841 201 q 982 179 911 179 q 1020 250 1020 179 l 1020 608 l 700 608 l 700 705 m 830 543 q 939 315 895 439 l 836 266 q 738 499 798 396 l 830 543 z "},"冤":{"ha":1389,"x_min":65,"x_max":1329,"o":"m 483 955 l 591 917 q 537 836 570 879 l 987 836 l 987 743 q 879 629 933 684 l 1161 629 l 1161 244 l 836 244 l 836 38 q 860 5 836 16 q 993 -5 884 -5 q 1188 16 1161 -5 q 1221 141 1215 38 l 1329 109 q 1270 -73 1318 -38 q 993 -109 1221 -109 q 776 -84 825 -109 q 727 0 727 -60 l 727 244 l 678 244 q 141 -130 548 -16 l 65 -33 q 553 244 439 54 l 250 244 l 250 543 l 174 488 l 114 586 q 483 955 374 760 m 353 629 l 738 629 q 846 743 803 684 l 461 743 q 353 629 396 667 m 358 342 l 602 342 q 640 532 629 429 l 358 532 l 358 342 m 716 342 l 1053 342 l 1053 532 l 754 532 q 716 342 743 429 m 1025 212 q 1134 81 1090 152 l 1042 27 q 939 157 1004 98 l 1025 212 m 1259 1074 l 1259 787 l 1145 787 l 1145 982 l 239 982 l 239 787 l 125 787 l 125 1074 l 1259 1074 z "},"冬":{"ha":1389,"x_min":65,"x_max":1324,"o":"m 510 1139 l 613 1107 q 543 987 581 1047 l 1112 987 l 1112 895 q 841 608 998 722 q 1324 450 1053 510 l 1270 342 q 722 543 993 412 q 130 358 472 412 l 65 461 q 602 608 391 510 q 369 781 483 684 q 195 640 288 705 l 103 711 q 510 1139 385 906 m 434 857 q 722 673 559 760 q 966 890 873 765 l 467 890 q 434 857 439 857 m 543 423 q 1004 277 814 363 l 933 174 q 494 326 754 260 l 543 423 m 309 163 q 1096 -22 776 87 l 1025 -125 q 260 65 716 -16 l 309 163 z "},"冯":{"ha":1389,"x_min":71,"x_max":1264,"o":"m 190 1085 q 363 808 293 960 l 260 749 q 92 1025 201 895 l 190 1085 m 271 472 l 363 412 q 179 -98 298 146 l 71 -16 q 271 472 195 217 m 494 1080 l 1161 1080 l 1080 532 l 1264 532 q 1234 125 1253 260 q 1188 -52 1215 -11 q 1118 -114 1161 -92 q 901 -130 1096 -130 l 879 -22 l 1042 -22 q 1104 49 1080 -22 q 1134 429 1128 119 l 559 429 l 618 906 l 727 895 l 678 532 l 977 532 l 1042 977 l 494 977 l 494 1080 m 380 260 l 1025 260 l 1025 157 l 380 157 l 380 260 z "},"冰":{"ha":1389,"x_min":71,"x_max":1335,"o":"m 190 1085 q 363 808 293 960 l 260 749 q 92 1025 201 895 l 190 1085 m 271 472 l 363 412 q 179 -98 298 146 l 71 -16 q 271 472 195 217 m 776 1123 l 884 1123 l 884 879 q 944 684 884 857 q 1204 933 1085 781 l 1275 846 q 982 586 1134 678 q 1335 125 1107 304 l 1259 27 q 884 586 1025 239 l 884 22 q 857 -92 884 -60 q 754 -125 830 -125 q 662 -114 705 -125 l 640 -5 q 738 -16 689 -16 q 776 49 776 -16 l 776 1123 m 407 819 l 716 819 l 716 727 q 608 380 716 635 q 385 22 526 179 l 315 98 q 608 716 543 369 l 407 716 l 407 819 z "},"冲":{"ha":1389,"x_min":71,"x_max":1275,"o":"m 190 1085 q 363 808 293 960 l 260 749 q 92 1025 201 895 l 190 1085 m 271 472 l 363 412 q 179 -98 298 146 l 71 -16 q 271 472 195 217 m 1275 873 l 1275 244 l 1166 244 l 1166 342 l 928 342 l 928 -125 l 819 -125 l 819 342 l 586 342 l 586 244 l 477 244 l 477 873 l 819 873 l 819 1123 l 928 1123 l 928 873 l 1275 873 m 586 445 l 819 445 l 819 770 l 586 770 l 586 445 m 928 770 l 928 445 l 1166 445 l 1166 770 l 928 770 z "},"决":{"ha":1389,"x_min":71,"x_max":1335,"o":"m 190 1085 q 363 808 293 960 l 260 749 q 92 1025 201 895 l 190 1085 m 271 472 l 363 412 q 179 -98 298 146 l 71 -16 q 271 472 195 217 m 418 505 l 760 505 q 765 575 765 543 l 765 798 l 494 798 l 494 901 l 765 901 l 765 1123 l 873 1123 l 873 901 l 1188 901 l 1188 505 l 1313 505 l 1313 401 l 922 401 q 1335 -22 1047 130 l 1253 -125 q 836 342 971 54 q 456 -125 743 60 l 358 -49 q 738 401 662 146 l 418 401 l 418 505 m 1080 505 l 1080 798 l 873 798 l 873 575 q 868 505 873 537 l 1080 505 z "},"况":{"ha":1389,"x_min":71,"x_max":1335,"o":"m 190 1085 q 363 808 293 960 l 260 749 q 92 1025 201 895 l 190 1085 m 271 472 l 363 412 q 179 -98 298 146 l 71 -16 q 271 472 195 217 m 510 1058 l 1183 1058 l 1183 499 l 1015 499 l 1015 38 q 1096 -11 1015 -11 q 1210 16 1194 -11 q 1237 146 1226 43 l 1335 114 q 1280 -76 1324 -33 q 1096 -109 1253 -109 q 941 -84 971 -109 q 911 5 911 -60 l 911 499 l 765 499 q 391 -125 727 54 l 320 -27 q 662 499 629 130 l 510 499 l 510 1058 m 608 597 l 1080 597 l 1080 960 l 608 960 l 608 597 z "},"冶":{"ha":1389,"x_min":71,"x_max":1313,"o":"m 190 1085 q 363 808 293 960 l 260 749 q 92 1025 201 895 l 190 1085 m 271 472 l 363 412 q 179 -98 298 146 l 71 -16 q 271 472 195 217 m 749 1128 l 863 1096 q 575 684 722 803 q 1080 727 814 694 q 933 901 1009 819 l 1036 944 q 1313 570 1204 776 l 1210 521 q 1139 635 1177 581 q 418 570 803 586 l 385 673 q 749 1128 602 825 m 1210 445 l 1210 -125 l 1101 -125 l 1101 -38 l 581 -38 l 581 -125 l 472 -125 l 472 445 l 1210 445 m 581 65 l 1101 65 l 1101 342 l 581 342 l 581 65 z "},"冷":{"ha":1389,"x_min":71,"x_max":1329,"o":"m 190 1085 q 363 808 293 960 l 260 749 q 92 1025 201 895 l 190 1085 m 271 472 l 363 412 q 179 -98 298 146 l 71 -16 q 271 472 195 217 m 825 1123 l 933 1090 l 906 1042 q 1329 662 1112 787 l 1270 553 q 852 944 1058 684 q 467 543 689 689 l 391 618 q 825 1123 673 836 m 841 732 q 982 575 928 662 l 879 521 q 749 673 830 602 l 841 732 m 526 456 l 1194 456 l 1194 363 q 949 49 1090 195 l 1074 -38 l 993 -130 q 581 146 803 33 l 646 228 q 857 109 754 174 q 1058 358 982 233 l 526 358 l 526 456 z "},"冻":{"ha":1389,"x_min":71,"x_max":1318,"o":"m 190 1085 q 363 808 293 960 l 260 749 q 92 1025 201 895 l 190 1085 m 271 472 l 363 412 q 179 -98 298 146 l 71 -16 q 271 472 195 217 m 819 749 l 928 749 l 928 505 l 1264 505 l 1264 401 l 928 401 l 928 16 q 903 -95 928 -65 q 814 -125 879 -125 q 711 -114 760 -125 l 689 -11 q 803 -22 743 -22 q 819 43 819 -22 l 819 401 l 461 401 l 439 505 q 635 841 548 646 l 429 841 l 429 944 l 678 944 l 743 1123 l 846 1101 q 798 944 825 1020 l 1242 944 l 1242 841 l 760 841 q 581 505 678 646 l 819 505 l 819 749 m 1080 326 q 1318 22 1210 195 l 1242 -71 q 1004 250 1128 119 l 1080 326 m 591 320 l 694 266 q 450 -60 608 71 l 374 38 q 591 320 526 168 z "},"净":{"ha":1389,"x_min":81,"x_max":1318,"o":"m 195 1085 q 336 808 282 960 l 233 749 q 103 1025 184 895 l 195 1085 m 244 472 l 336 412 q 190 -98 288 146 l 81 -16 q 244 472 184 217 m 635 933 q 429 727 521 798 l 358 814 q 635 1134 537 955 l 727 1080 l 694 1025 l 1090 1025 l 1090 939 q 1015 803 1058 863 l 1221 803 l 1221 553 l 1318 553 l 1318 450 l 1221 450 l 1221 141 l 1112 141 l 1112 201 l 890 201 l 890 11 q 865 -95 890 -65 q 754 -125 841 -125 q 640 -114 694 -125 l 618 -5 q 754 -22 689 -22 q 781 33 781 -22 l 781 201 l 477 201 l 477 304 l 781 304 l 781 450 l 385 450 l 385 553 l 781 553 l 781 700 l 537 700 l 537 803 l 884 803 q 955 933 928 868 l 635 933 m 890 700 l 890 553 l 1112 553 l 1112 700 l 890 700 m 890 450 l 890 304 l 1112 304 l 1112 450 l 890 450 z "},"凄":{"ha":1389,"x_min":81,"x_max":1329,"o":"m 429 1036 l 770 1036 l 770 1123 l 873 1123 l 873 1036 l 1270 1036 l 1270 944 l 873 944 l 873 857 l 1226 857 l 1226 689 l 1318 689 l 1318 608 l 1226 608 l 1226 434 l 808 434 q 770 347 792 385 l 1329 347 l 1329 250 l 1161 250 q 1031 65 1112 136 q 1318 -33 1183 16 l 1253 -125 q 933 -5 1128 -71 q 445 -125 770 -98 l 396 -27 q 781 38 629 -16 q 515 114 656 76 l 602 250 l 369 250 l 369 347 l 651 347 l 694 434 l 477 434 l 477 521 l 770 521 l 770 608 l 396 608 l 396 689 l 770 689 l 770 770 l 477 770 l 477 857 l 770 857 l 770 944 l 429 944 l 429 1036 m 873 770 l 873 689 l 1123 689 l 1123 770 l 873 770 m 873 608 l 873 521 l 1123 521 l 1123 608 l 873 608 m 722 250 q 656 163 689 201 l 906 98 q 1053 250 998 152 l 722 250 m 195 1085 q 336 808 282 960 l 233 749 q 103 1025 184 895 l 195 1085 m 244 472 l 336 412 q 190 -98 288 146 l 81 -16 q 244 472 184 217 z "},"准":{"ha":1389,"x_min":71,"x_max":1324,"o":"m 190 1085 q 363 808 293 960 l 260 749 q 92 1025 201 895 l 190 1085 m 271 472 l 363 412 q 179 -98 298 146 l 71 -16 q 271 472 195 217 m 624 -33 l 624 -125 l 515 -125 l 515 656 q 396 499 456 570 l 342 608 q 613 1128 532 852 l 722 1090 q 646 901 694 993 l 890 901 q 808 1085 863 1004 l 917 1123 q 1009 901 977 1020 l 1313 901 l 1313 798 l 1015 798 l 1015 618 l 1275 618 l 1275 526 l 1015 526 l 1015 342 l 1275 342 l 1275 244 l 1015 244 l 1015 65 l 1324 65 l 1324 -33 l 624 -33 m 624 798 l 624 618 l 911 618 l 911 798 l 624 798 m 624 526 l 624 342 l 911 342 l 911 526 l 624 526 m 624 244 l 624 65 l 911 65 l 911 244 l 624 244 z "},"凉":{"ha":1389,"x_min":71,"x_max":1324,"o":"m 190 1085 q 363 808 293 960 l 260 749 q 92 1025 201 895 l 190 1085 m 271 472 l 363 412 q 179 -98 298 146 l 71 -16 q 271 472 195 217 m 456 977 l 787 977 q 738 1096 765 1042 l 852 1123 q 906 977 890 1053 l 1291 977 l 1291 873 l 456 873 l 456 977 m 526 765 l 1210 765 l 1210 369 l 917 369 l 917 33 q 887 -81 917 -49 q 776 -114 857 -114 q 651 -103 711 -114 l 629 11 q 760 -5 694 -5 q 798 8 787 -5 q 808 60 808 22 l 808 369 l 526 369 l 526 765 m 635 472 l 1101 472 l 1101 662 l 635 662 l 635 472 m 597 315 l 689 260 q 467 -71 581 49 l 380 11 q 597 315 515 152 m 1123 304 q 1324 5 1248 163 l 1221 -54 q 1031 250 1150 103 l 1123 304 z "},"凌":{"ha":1389,"x_min":81,"x_max":1318,"o":"m 195 1085 q 336 808 282 960 l 233 749 q 103 1025 184 895 l 195 1085 m 244 472 l 336 412 q 190 -98 288 146 l 81 -16 q 244 472 184 217 m 477 1004 l 792 1004 l 792 1123 l 895 1123 l 895 1004 l 1215 1004 l 1215 906 l 895 906 l 895 787 l 1297 787 l 1297 689 l 396 689 l 396 787 l 792 787 l 792 906 l 477 906 l 477 1004 m 608 667 l 700 618 q 461 396 608 499 l 385 472 q 608 667 521 564 m 1009 662 q 1297 472 1166 575 l 1221 385 q 949 581 1096 499 l 1009 662 m 738 559 l 852 532 q 765 407 814 467 l 1118 407 l 1118 315 q 949 98 1053 184 q 1318 -16 1118 27 l 1270 -125 q 846 27 1031 -76 q 396 -130 656 -81 l 347 -22 q 743 92 581 16 q 586 233 656 152 q 445 141 521 184 l 369 222 q 738 559 613 358 m 662 293 q 846 152 743 212 q 998 315 944 217 l 684 315 q 662 293 667 304 z "},"减":{"ha":1389,"x_min":81,"x_max":1329,"o":"m 195 1085 q 336 808 282 960 l 233 749 q 103 1025 184 895 l 195 1085 m 244 472 l 336 412 q 190 -98 288 146 l 81 -16 q 244 472 184 217 m 1166 1128 q 1264 1009 1226 1074 l 1172 960 q 1080 1074 1139 1020 l 1166 1128 m 1291 933 l 1291 836 l 1047 836 q 1080 401 1058 559 l 1080 396 q 1183 716 1139 532 l 1275 684 q 1107 228 1204 407 q 1199 -5 1156 -5 q 1223 38 1215 -5 q 1232 168 1232 81 l 1329 152 q 1283 -71 1313 -16 q 1199 -125 1253 -125 q 1036 109 1101 -125 q 819 -119 949 -16 l 765 -38 q 1004 244 922 92 q 944 836 955 467 l 521 836 l 521 450 q 407 -119 521 130 l 309 -60 q 391 201 369 87 q 412 488 412 315 l 412 933 l 939 933 l 933 1123 l 1036 1123 l 1042 933 l 1291 933 m 575 738 l 890 738 l 890 640 l 575 640 l 575 738 m 586 537 l 890 537 l 890 163 l 586 163 l 586 537 m 678 255 l 798 255 l 798 445 l 678 445 l 678 255 z "},"凑":{"ha":1389,"x_min":60,"x_max":1324,"o":"m 157 1085 q 298 808 244 955 l 201 749 q 65 1025 152 895 l 157 1085 m 201 472 l 293 412 q 163 -98 244 146 l 60 -22 q 201 472 146 212 m 385 1031 l 700 1031 q 716 1123 711 1080 l 825 1107 l 814 1031 l 1232 1031 l 1232 933 l 792 933 q 765 852 781 890 l 1199 852 l 1199 760 l 732 760 l 694 673 l 1286 673 l 1286 575 l 1123 575 q 1324 445 1194 505 l 1237 347 q 1118 445 1172 396 l 1118 380 l 841 380 l 841 326 l 841 282 l 1226 282 l 1226 184 l 808 184 q 396 -119 711 0 l 331 -22 q 689 184 591 65 l 396 184 l 396 282 l 738 282 q 743 326 743 304 l 743 380 l 515 380 l 515 429 q 385 315 456 369 l 320 401 q 499 575 423 488 l 320 575 l 320 673 l 570 673 q 613 760 608 738 l 423 760 l 423 852 l 651 852 q 678 933 667 890 l 385 933 l 385 1031 m 1085 477 q 1004 575 1036 526 l 635 575 q 559 477 602 526 l 1085 477 m 917 157 q 1270 -38 1107 76 l 1188 -125 q 852 76 1036 -5 l 917 157 z "},"凛":{"ha":1389,"x_min":81,"x_max":1324,"o":"m 195 1085 q 336 808 282 960 l 233 749 q 103 1025 184 895 l 195 1085 m 244 472 l 336 412 q 190 -98 288 146 l 81 -16 q 244 472 184 217 m 863 1139 q 906 1047 890 1096 l 1318 1047 l 1318 949 l 363 949 l 363 1047 l 787 1047 q 760 1107 776 1080 l 863 1139 m 439 895 l 1232 895 l 1232 434 l 439 434 l 439 895 m 537 526 l 1134 526 l 1134 803 l 537 803 l 537 526 m 618 765 l 1053 765 l 1053 564 l 618 564 l 618 765 m 716 640 l 955 640 l 955 689 l 716 689 l 716 640 m 483 385 l 1204 385 l 1204 298 l 483 298 l 483 385 m 374 250 l 1308 250 l 1308 157 l 895 157 l 895 5 q 871 -100 895 -71 q 760 -130 846 -130 q 646 -114 700 -130 l 629 -5 q 760 -27 694 -27 q 792 22 792 -27 l 792 157 l 374 157 l 374 250 m 591 136 l 662 76 q 369 -98 537 -38 l 315 -5 q 591 136 467 43 m 1036 130 q 1324 5 1177 92 l 1270 -81 q 977 60 1123 11 l 1036 130 z "},"凝":{"ha":1389,"x_min":81,"x_max":1318,"o":"m 195 1085 q 336 808 282 960 l 233 749 q 103 1025 184 895 l 195 1085 m 244 472 l 336 412 q 190 -98 288 146 l 81 -16 q 244 472 184 217 m 407 1118 l 510 1118 l 510 977 q 716 1096 618 1031 l 781 1009 q 510 884 656 933 l 510 841 q 521 800 510 808 q 597 792 532 792 l 662 792 q 700 808 694 792 q 711 901 705 825 l 803 857 q 757 722 787 738 q 591 705 727 705 l 553 705 q 434 727 461 705 q 407 803 407 749 l 407 1118 m 472 694 l 564 667 l 532 586 l 776 586 l 776 494 l 651 494 l 651 439 q 646 358 651 396 l 792 358 l 792 266 l 635 266 q 618 212 629 239 q 760 81 700 157 l 694 0 q 586 119 640 65 q 429 -103 515 -22 l 347 -22 q 532 266 494 109 l 363 266 l 363 358 l 548 358 q 553 439 553 396 l 553 494 l 494 494 q 423 385 461 439 l 347 445 q 472 694 434 564 m 814 1069 l 1253 1069 l 1253 993 q 1101 787 1188 868 q 1161 732 1134 765 l 1139 705 l 1280 705 l 1280 613 q 1188 456 1242 526 l 1123 505 q 1183 613 1161 559 l 1096 613 l 1096 380 l 1242 380 l 1242 288 l 1096 288 l 1096 5 q 1232 -11 1150 -11 l 1318 -11 l 1280 -114 l 1232 -114 q 1023 -76 1096 -114 q 895 54 949 -38 q 825 -125 868 -49 l 727 -60 q 852 483 846 119 l 944 483 q 922 168 944 304 q 993 60 955 98 l 993 613 l 798 613 l 798 705 l 1053 705 q 884 836 971 781 l 949 901 l 1031 846 q 1128 971 1085 906 l 814 971 l 814 1069 z "},"几":{"ha":1389,"x_min":71,"x_max":1318,"o":"m 971 1053 l 971 49 q 987 11 971 22 q 1069 0 1004 0 q 1175 35 1150 0 q 1204 239 1199 71 l 1318 206 q 1259 -54 1308 11 q 1058 -109 1215 -109 q 892 -84 922 -109 q 863 22 863 -60 l 863 949 l 445 949 l 445 559 q 374 163 445 320 q 146 -119 304 5 l 71 -27 q 269 220 201 71 q 336 613 336 369 l 336 1053 l 971 1053 z "},"凡":{"ha":1389,"x_min":92,"x_max":1335,"o":"m 1004 1063 l 1004 71 q 1020 27 1004 38 q 1118 16 1036 16 q 1196 41 1177 16 q 1221 201 1215 65 l 1335 179 q 1289 -41 1324 5 q 1101 -87 1253 -87 q 925 -62 960 -87 q 890 38 890 -38 l 890 960 l 429 960 l 429 564 q 366 157 429 315 q 168 -125 304 0 l 92 -33 q 320 613 320 168 l 320 1063 l 1004 1063 m 586 716 q 846 353 749 548 l 743 293 q 488 656 651 483 l 586 716 z "},"凤":{"ha":1389,"x_min":54,"x_max":1340,"o":"m 483 608 q 716 412 597 521 q 825 694 803 543 l 407 694 l 407 792 l 944 792 q 787 342 917 532 q 1020 109 906 233 l 939 27 q 727 260 841 146 q 396 22 608 119 l 331 114 q 651 331 537 195 q 401 553 537 445 l 483 608 m 1150 1074 q 1166 271 1150 537 q 1215 5 1183 5 q 1229 57 1221 5 q 1237 212 1237 109 l 1340 190 q 1294 -57 1324 0 q 1215 -114 1264 -114 q 1107 0 1139 -114 q 1047 977 1047 239 l 293 977 l 293 532 q 152 -125 293 157 l 54 -65 q 160 236 130 103 q 190 564 190 369 l 190 1074 l 1150 1074 z "},"凫":{"ha":1389,"x_min":71,"x_max":1297,"o":"m 863 347 l 863 27 q 911 3 863 11 q 1053 -5 960 -5 q 1158 16 1134 -5 q 1194 146 1183 38 l 1297 119 q 1234 -65 1280 -22 q 1058 -109 1188 -109 q 806 -84 857 -109 q 754 -22 754 -60 l 754 255 l 423 255 l 423 212 q 361 -16 423 54 q 130 -125 298 -87 l 71 -33 q 277 54 228 0 q 326 233 326 109 l 326 347 l 863 347 m 570 1139 l 678 1107 q 629 1004 662 1063 l 1090 1004 q 1055 684 1090 738 q 917 629 1020 629 q 830 640 879 629 l 814 732 q 906 722 868 722 q 958 746 944 722 q 982 906 971 770 l 374 906 l 374 570 l 1210 570 q 1177 236 1210 293 q 1053 179 1145 179 q 977 190 1020 179 l 955 288 q 1042 277 1004 277 q 1080 301 1069 277 q 1101 472 1090 326 l 266 472 l 266 1004 l 521 1004 q 570 1139 548 1063 m 559 852 q 770 727 673 798 l 694 646 q 494 770 602 722 l 559 852 z "},"凭":{"ha":1389,"x_min":65,"x_max":1302,"o":"m 353 1128 l 456 1096 q 342 906 396 987 l 342 450 l 233 450 l 233 787 q 146 705 195 743 l 65 770 q 353 1128 260 933 m 977 385 l 977 49 q 990 5 977 16 q 1053 -5 1004 -5 q 1161 22 1139 -5 q 1188 146 1183 49 l 1302 114 q 1242 -68 1291 -22 q 1042 -114 1194 -114 q 890 -87 917 -114 q 863 16 863 -60 l 863 277 l 488 277 q 415 11 477 98 q 195 -136 353 -76 l 114 -49 q 323 90 271 11 q 374 385 374 168 l 977 385 m 1161 1096 l 1215 1004 q 922 960 1080 977 l 922 814 l 1291 814 l 1291 716 l 922 716 l 922 564 l 1259 564 l 1259 467 l 521 467 l 521 564 l 814 564 l 814 716 l 456 716 l 456 814 l 814 814 l 814 955 q 548 939 689 944 l 515 1036 q 1161 1096 841 1036 z "},"凯":{"ha":1389,"x_min":92,"x_max":1329,"o":"m 1139 1058 l 1139 54 q 1150 16 1139 27 q 1194 5 1161 5 q 1215 22 1210 5 q 1221 152 1221 38 l 1329 119 q 1294 -60 1324 -22 q 1183 -98 1264 -98 q 1061 -73 1085 -98 q 1036 27 1036 -49 l 1036 960 l 863 960 l 863 434 q 705 -119 863 141 l 618 -54 q 760 434 760 157 l 760 1058 l 1139 1058 m 326 1123 l 434 1123 l 434 830 l 570 830 l 570 1058 l 667 1058 l 667 727 l 92 727 l 92 1053 l 195 1053 l 195 830 l 326 830 l 326 1123 m 103 618 l 624 618 l 624 255 l 250 255 l 250 27 q 602 130 450 76 l 624 27 q 190 -92 439 -38 l 136 -43 l 136 358 l 510 358 l 510 515 l 103 515 l 103 618 z "},"凰":{"ha":1389,"x_min":54,"x_max":1340,"o":"m 1150 1074 q 1166 271 1150 537 q 1215 5 1183 5 q 1229 57 1221 5 q 1237 212 1237 109 l 1340 190 q 1294 -57 1324 0 q 1215 -114 1264 -114 q 1107 0 1139 -114 q 1047 977 1047 239 l 293 977 l 293 532 q 152 -125 293 157 l 54 -65 q 160 236 130 103 q 190 564 190 369 l 190 1074 l 1150 1074 m 635 944 l 738 911 l 684 830 l 987 830 l 987 418 l 369 418 l 369 830 l 575 830 q 635 944 608 884 m 467 667 l 890 667 l 890 743 l 467 743 l 467 667 m 467 499 l 890 499 l 890 581 l 467 581 l 467 499 m 336 342 l 1025 342 l 1025 255 l 732 255 l 732 174 l 993 174 l 993 87 l 732 87 l 732 5 l 1069 5 l 1069 -81 l 298 -81 l 298 5 l 629 5 l 629 87 l 374 87 l 374 174 l 629 174 l 629 255 l 336 255 l 336 342 z "},"凳":{"ha":1389,"x_min":65,"x_max":1329,"o":"m 146 1096 l 646 1096 l 646 1004 q 532 879 602 939 l 890 879 q 722 1101 792 977 l 814 1128 q 879 1042 846 1080 q 1036 1123 960 1074 l 1107 1063 q 933 971 1031 1009 q 987 922 960 944 q 1188 1031 1101 966 l 1270 971 q 1069 857 1183 906 q 1329 738 1172 792 l 1248 646 q 906 863 1047 738 l 906 792 l 488 792 l 488 846 q 125 662 336 732 l 65 743 q 298 836 201 787 l 163 928 l 239 982 q 385 890 315 939 q 437 925 391 890 q 521 1004 483 960 l 146 1004 l 146 1096 m 326 727 l 1063 727 l 1063 456 l 966 456 q 917 358 949 418 l 1291 358 l 1291 260 l 114 260 l 114 358 l 472 358 q 418 456 445 412 l 326 456 l 326 727 m 429 548 l 960 548 l 960 635 l 429 635 l 429 548 m 586 358 l 798 358 q 846 456 830 412 l 537 456 q 586 358 564 407 m 966 201 l 966 27 q 982 -11 966 0 q 1053 -22 998 -22 q 1142 0 1123 -22 q 1166 114 1161 22 l 1270 87 q 1223 -79 1264 -38 q 1047 -119 1183 -119 q 895 -95 922 -119 q 868 0 868 -71 l 868 103 l 499 103 q 431 -35 488 11 q 206 -125 374 -81 l 136 -43 q 353 38 304 -11 q 407 201 401 87 l 966 201 z "},"凶":{"ha":1389,"x_min":141,"x_max":1242,"o":"m 391 1031 q 749 656 581 846 q 949 1085 868 841 l 1058 1063 q 825 564 960 776 q 1080 233 960 401 l 993 146 q 760 472 884 315 q 412 125 608 260 l 331 201 q 689 559 548 363 q 309 966 510 776 l 391 1031 m 1134 917 l 1242 917 l 1242 -125 l 1134 -125 l 1134 -71 l 141 -71 l 141 922 l 250 922 l 250 33 l 1134 33 l 1134 917 z "},"凸":{"ha":1389,"x_min":152,"x_max":1242,"o":"m 1134 -27 l 260 -27 l 260 -125 l 152 -125 l 152 629 l 418 629 l 418 1074 l 977 1074 l 977 629 l 1242 629 l 1242 -125 l 1134 -125 l 1134 -27 m 868 966 l 521 966 l 521 526 l 260 526 l 260 76 l 1134 76 l 1134 526 l 868 526 l 868 966 z "},"凹":{"ha":1389,"x_min":152,"x_max":1242,"o":"m 586 1069 l 586 597 l 814 597 l 814 1069 l 1242 1069 l 1242 -87 l 1134 -87 l 1134 0 l 260 0 l 260 -87 l 152 -87 l 152 1069 l 586 1069 m 260 103 l 1134 103 l 1134 966 l 922 966 l 922 494 l 477 494 l 477 966 l 260 966 l 260 103 z "},"出":{"ha":1389,"x_min":146,"x_max":1232,"o":"m 146 450 l 255 450 l 255 38 l 635 38 l 635 575 l 201 575 l 201 1015 l 309 1015 l 309 678 l 635 678 l 635 1123 l 743 1123 l 743 678 l 1063 678 l 1063 1015 l 1172 1015 l 1172 537 l 1063 537 l 1063 575 l 743 575 l 743 38 l 1123 38 l 1123 450 l 1232 450 l 1232 -125 l 1123 -125 l 1123 -65 l 146 -65 l 146 450 z "},"击":{"ha":1389,"x_min":87,"x_max":1302,"o":"m 87 602 l 646 602 l 646 819 l 201 819 l 201 922 l 646 922 l 646 1123 l 754 1123 l 754 922 l 1221 922 l 1221 819 l 754 819 l 754 602 l 1302 602 l 1302 499 l 754 499 l 754 60 l 1085 60 l 1085 401 l 1194 401 l 1194 -119 l 1085 -119 l 1085 -43 l 228 -43 l 228 401 l 336 401 l 336 60 l 646 60 l 646 499 l 87 499 l 87 602 z "},"函":{"ha":1389,"x_min":103,"x_max":1286,"o":"m 271 1069 l 1123 1069 l 1123 955 q 770 760 966 852 l 770 570 q 1025 765 928 667 l 1096 678 q 836 499 993 586 q 1123 304 998 401 l 1047 201 q 770 429 917 331 l 770 195 q 735 119 770 146 q 629 92 700 92 q 526 114 575 92 l 510 217 q 602 195 548 195 q 662 217 662 195 l 662 423 q 320 201 472 277 l 266 309 q 662 548 510 423 l 662 819 q 944 966 814 895 l 271 966 l 271 1069 m 369 760 q 586 586 488 684 l 515 499 q 293 684 412 608 l 369 760 m 1177 770 l 1286 770 l 1286 -119 l 1177 -119 l 1177 -43 l 103 -43 l 103 776 l 212 776 l 212 60 l 1177 60 l 1177 770 z "},"凿":{"ha":1389,"x_min":76,"x_max":1324,"o":"m 1112 624 l 1221 624 l 1221 -125 l 1112 -125 l 1112 -71 l 163 -71 l 163 629 l 271 629 l 271 27 l 1112 27 l 1112 624 m 76 836 l 510 836 l 510 1123 l 608 1123 l 608 836 l 770 836 l 770 1123 l 873 1123 l 873 836 l 1324 836 l 1324 738 l 76 738 l 76 836 m 288 1096 q 434 917 380 1015 l 336 857 q 195 1042 288 955 l 288 1096 m 1069 1096 l 1166 1042 q 1015 863 1107 949 l 944 933 q 1069 1096 1020 1009 m 846 705 l 949 667 q 879 543 922 597 l 1020 543 l 1020 445 l 749 445 l 749 326 l 1047 326 l 1047 233 l 749 233 l 749 103 l 646 103 l 646 233 l 342 233 l 342 326 l 646 326 l 646 445 l 374 445 l 374 543 l 526 543 q 439 651 488 597 l 532 705 q 656 543 608 624 l 754 543 q 846 705 814 613 z "},"刀":{"ha":1389,"x_min":119,"x_max":1242,"o":"m 212 1058 l 1242 1058 q 1226 193 1242 407 q 1161 -76 1210 -22 q 1053 -114 1123 -114 q 873 -103 960 -114 l 846 0 q 1053 -16 949 -16 q 1112 71 1101 -16 q 1139 955 1139 239 l 618 955 q 510 288 613 526 q 195 -125 407 49 l 119 -43 q 407 334 320 125 q 510 955 494 543 l 212 955 l 212 1058 z "},"刁":{"ha":1389,"x_min":136,"x_max":1253,"o":"m 136 1058 l 1253 1058 q 1232 206 1253 412 q 1158 -60 1210 0 q 993 -119 1107 -119 q 884 -114 939 -119 l 857 -5 q 993 -11 928 -11 q 1107 81 1090 -11 q 1150 955 1150 266 l 136 955 l 136 1058 m 841 781 l 873 678 q 260 98 608 353 l 212 212 q 841 781 581 483 z "},"刃":{"ha":1389,"x_min":136,"x_max":1232,"o":"m 212 1053 l 1232 1053 q 1180 33 1232 174 q 1004 -109 1128 -109 q 776 -87 911 -109 l 760 16 q 987 -5 895 -5 q 1082 92 1058 -5 q 1123 949 1107 190 l 765 949 q 627 206 760 401 q 212 -136 494 11 l 136 -49 q 543 288 434 87 q 656 949 651 488 l 212 949 l 212 1053 m 331 738 l 429 716 q 277 288 401 472 l 184 342 q 331 738 298 521 z "},"分":{"ha":1389,"x_min":76,"x_max":1324,"o":"m 895 1118 q 1324 640 1096 803 l 1253 521 q 814 1031 1025 694 l 895 1118 m 499 1112 l 581 1047 q 152 510 401 727 l 76 613 q 499 1112 309 792 m 293 586 l 1096 586 q 1058 -16 1096 81 q 901 -114 1020 -114 q 749 -103 836 -114 l 727 11 q 884 0 819 0 q 947 54 928 0 q 977 483 966 109 l 640 483 q 526 119 624 255 q 195 -125 429 -16 l 109 -33 q 412 179 326 65 q 526 483 499 293 l 293 483 l 293 586 z "},"切":{"ha":1389,"x_min":71,"x_max":1275,"o":"m 613 852 l 624 754 l 336 678 l 336 141 q 618 271 494 201 l 635 174 q 288 16 488 87 l 239 65 l 239 656 l 87 613 l 71 711 l 239 754 l 239 1123 l 336 1123 l 336 781 l 613 852 m 673 1058 l 1275 1058 q 1226 0 1270 157 q 1090 -119 1194 -119 q 928 -98 1020 -119 l 917 5 q 1085 -16 1015 -16 q 1134 76 1123 -16 q 1172 955 1172 304 l 922 955 q 865 231 922 434 q 662 -136 808 27 l 586 -49 q 746 225 678 49 q 814 955 814 401 l 673 955 l 673 1058 z "},"刊":{"ha":1389,"x_min":71,"x_max":1248,"o":"m 114 1063 l 732 1063 l 732 960 l 472 960 l 472 564 l 776 564 l 776 461 l 472 461 l 472 -125 l 363 -125 l 363 461 l 71 461 l 71 564 l 363 564 l 363 960 l 114 960 l 114 1063 m 1139 1123 l 1248 1123 l 1248 16 q 1215 -95 1248 -65 q 1085 -125 1183 -125 q 922 -98 998 -125 l 901 16 q 1085 -16 993 -16 q 1139 38 1139 -16 l 1139 1123 m 846 977 l 955 977 l 955 190 l 846 190 l 846 977 z "},"刑":{"ha":1389,"x_min":76,"x_max":1248,"o":"m 125 1069 l 792 1069 l 792 966 l 662 966 l 662 553 l 808 553 l 808 450 l 662 450 l 662 -125 l 553 -125 l 553 450 l 358 450 l 358 439 q 168 -130 358 92 l 76 -60 q 250 439 250 141 l 250 450 l 92 450 l 92 553 l 250 553 l 250 966 l 125 966 l 125 1069 m 553 553 l 553 966 l 358 966 l 358 553 l 553 553 m 1139 1123 l 1248 1123 l 1248 16 q 1215 -95 1248 -65 q 1085 -125 1183 -125 q 922 -98 998 -125 l 901 16 q 1085 -16 993 -16 q 1139 38 1139 -16 l 1139 1123 m 846 977 l 955 977 l 955 190 l 846 190 l 846 977 z "},"划":{"ha":1389,"x_min":87,"x_max":1275,"o":"m 787 798 l 798 689 l 407 629 q 488 315 434 472 q 651 575 581 429 l 743 532 q 532 201 646 331 q 694 -22 624 -22 q 743 141 722 -22 l 836 109 q 781 -81 814 -38 q 694 -125 749 -125 q 450 125 570 -125 q 146 -60 315 16 l 98 38 q 407 233 288 125 q 304 613 331 439 l 103 581 l 87 689 l 288 722 q 266 1107 266 901 l 380 1107 q 396 738 380 906 l 787 798 m 575 1069 q 711 917 646 1004 l 635 857 q 494 1015 575 939 l 575 1069 m 1166 1118 l 1275 1118 l 1275 16 q 1245 -95 1275 -65 q 1145 -125 1215 -125 q 960 -103 1047 -125 l 939 5 q 1128 -22 1036 -22 q 1166 43 1166 -22 l 1166 1118 m 928 977 l 1036 977 l 1036 190 l 928 190 l 928 977 z "},"列":{"ha":1389,"x_min":81,"x_max":1248,"o":"m 103 1058 l 798 1058 l 798 955 l 450 955 q 391 754 429 852 l 711 754 q 168 -125 656 125 l 103 -33 q 597 651 515 152 l 353 651 q 288 521 331 597 q 456 363 380 450 l 380 271 q 233 429 309 363 q 152 315 195 369 l 81 401 q 347 955 266 640 l 103 955 l 103 1058 m 1139 1123 l 1248 1123 l 1248 16 q 1215 -95 1248 -65 q 1085 -125 1183 -125 q 922 -98 998 -125 l 901 16 q 1085 -16 993 -16 q 1139 38 1139 -16 l 1139 1123 m 846 977 l 955 977 l 955 190 l 846 190 l 846 977 z "},"刘":{"ha":1389,"x_min":87,"x_max":1248,"o":"m 1139 1123 l 1248 1123 l 1248 16 q 1215 -95 1248 -65 q 1085 -125 1183 -125 q 922 -98 998 -125 l 901 16 q 1085 -16 993 -16 q 1139 38 1139 -16 l 1139 1123 m 846 977 l 955 977 l 955 190 l 846 190 l 846 977 m 467 1123 q 537 884 515 1004 l 781 884 l 781 781 l 689 781 q 559 326 656 510 q 749 38 662 184 l 662 -49 q 494 222 581 92 q 163 -92 369 43 l 87 5 q 423 326 293 136 q 152 651 293 494 l 239 716 q 483 429 369 575 q 575 781 548 570 l 109 781 l 109 884 l 429 884 q 369 1096 412 998 l 467 1123 z "},"则":{"ha":1389,"x_min":65,"x_max":1248,"o":"m 1139 1123 l 1248 1123 l 1248 16 q 1215 -95 1248 -65 q 1085 -125 1183 -125 q 922 -98 998 -125 l 901 16 q 1085 -16 993 -16 q 1139 38 1139 -16 l 1139 1123 m 846 977 l 955 977 l 955 190 l 846 190 l 846 977 m 732 1053 l 732 298 l 624 298 l 624 949 l 260 949 l 260 271 l 152 271 l 152 1053 l 732 1053 m 396 863 l 499 863 q 488 380 499 467 q 377 79 467 206 q 130 -130 288 -49 l 65 -43 q 269 117 195 22 q 369 334 342 212 q 396 863 396 456 m 564 206 q 781 -38 689 92 l 705 -119 q 483 146 613 27 l 564 206 z "},"刚":{"ha":1389,"x_min":119,"x_max":1275,"o":"m 798 1063 l 798 11 q 762 -87 798 -54 q 662 -119 727 -119 q 586 -109 629 -119 l 559 -5 q 656 -16 624 -16 q 689 38 689 -16 l 689 960 l 228 960 l 228 -125 l 119 -125 l 119 1063 l 798 1063 m 543 852 l 640 819 q 532 499 591 646 q 656 228 602 369 l 559 184 q 483 380 526 288 q 358 152 423 255 l 266 212 q 418 505 353 347 q 260 765 347 640 l 347 803 q 467 618 412 716 q 543 852 510 732 m 1166 1118 l 1275 1118 l 1275 16 q 1245 -95 1275 -65 q 1145 -125 1215 -125 q 960 -103 1047 -125 l 939 5 q 1128 -22 1036 -22 q 1166 43 1166 -22 l 1166 1118 m 928 977 l 1036 977 l 1036 190 l 928 190 l 928 977 z "},"创":{"ha":1389,"x_min":49,"x_max":1275,"o":"m 429 1128 l 532 1074 l 510 1031 q 857 732 711 884 l 776 646 q 456 944 635 808 q 119 586 309 727 l 49 678 q 429 1128 304 884 m 618 543 l 326 543 l 326 43 q 339 14 326 22 q 456 5 353 5 q 694 35 667 5 q 727 179 722 65 l 836 141 q 765 -60 814 -11 q 456 -98 727 -98 q 247 -76 277 -98 q 217 27 217 -54 l 217 646 l 727 646 q 689 274 722 347 q 575 201 656 201 q 456 217 521 201 l 434 331 q 570 315 505 315 q 600 342 591 315 q 618 543 608 369 m 1166 1118 l 1275 1118 l 1275 16 q 1245 -95 1275 -65 q 1145 -125 1215 -125 q 960 -103 1047 -125 l 939 5 q 1128 -22 1036 -22 q 1166 43 1166 -22 l 1166 1118 m 928 977 l 1036 977 l 1036 190 l 928 190 l 928 977 z "},"初":{"ha":1389,"x_min":49,"x_max":1259,"o":"m 548 651 l 640 597 q 521 439 581 499 q 640 309 586 374 l 570 212 q 396 434 483 336 l 396 -130 l 293 -130 l 293 472 q 114 331 201 380 l 49 429 q 445 852 293 564 l 114 852 l 114 949 l 315 949 q 228 1074 277 1015 l 326 1118 q 429 949 385 1042 l 559 949 l 559 852 q 396 586 477 700 l 396 553 l 456 505 q 548 651 510 575 m 613 1058 l 1259 1058 q 1240 233 1259 467 q 1166 -54 1221 0 q 1004 -109 1112 -109 q 911 -98 955 -109 l 884 22 q 1004 11 944 11 q 1090 43 1063 11 q 1131 293 1118 76 q 1145 955 1145 510 l 857 955 l 857 613 q 532 -125 857 157 l 439 -49 q 749 613 749 222 l 749 955 l 613 955 l 613 1058 z "},"删":{"ha":1389,"x_min":87,"x_max":1280,"o":"m 1177 1123 l 1280 1123 l 1280 22 q 1256 -92 1280 -60 q 1161 -125 1232 -125 q 1004 -103 1074 -125 l 982 11 q 1145 -16 1058 -16 q 1177 49 1177 -16 l 1177 1123 m 960 982 l 1063 982 l 1063 190 l 960 190 l 960 982 m 87 624 l 179 624 l 179 1101 l 488 1101 l 488 624 l 559 624 l 559 1101 l 868 1101 l 868 624 l 933 624 l 933 526 l 868 526 l 868 22 q 830 -81 868 -49 q 689 -109 808 -103 l 662 -16 l 732 -16 q 770 49 770 -16 l 770 526 l 662 526 l 662 401 q 591 -130 662 54 l 488 -92 q 559 434 559 92 l 559 526 l 488 526 l 488 22 q 472 -57 488 -33 q 423 -103 456 -81 l 304 -109 l 282 -16 l 353 -16 q 391 49 391 -16 l 391 526 l 282 526 l 282 401 q 212 -130 282 65 l 109 -92 q 179 434 179 87 l 179 526 l 87 526 l 87 624 m 391 624 l 391 1009 l 282 1009 l 282 624 l 391 624 m 770 624 l 770 1009 l 662 1009 l 662 624 l 770 624 z "},"判":{"ha":1389,"x_min":98,"x_max":1275,"o":"m 396 1123 l 505 1123 l 505 705 l 798 705 l 798 602 l 505 602 l 505 374 l 825 374 l 825 271 l 494 271 q 271 -130 461 27 l 179 -60 q 385 271 353 87 l 98 271 l 98 374 l 396 374 l 396 602 l 125 602 l 125 705 l 396 705 l 396 1123 m 684 1063 l 787 1025 q 689 749 743 863 l 591 803 q 684 1063 651 933 m 212 1053 q 331 808 282 939 l 228 760 q 119 1009 184 901 l 212 1053 m 1166 1118 l 1275 1118 l 1275 16 q 1245 -95 1275 -65 q 1145 -125 1215 -125 q 960 -103 1047 -125 l 939 5 q 1128 -22 1036 -22 q 1166 43 1166 -22 l 1166 1118 m 928 977 l 1036 977 l 1036 190 l 928 190 l 928 977 z "},"刨":{"ha":1389,"x_min":60,"x_max":1275,"o":"m 282 1134 l 391 1112 l 358 977 l 803 977 l 803 298 q 770 193 803 228 q 667 157 738 157 q 564 168 629 157 l 537 271 q 646 260 602 260 q 689 331 689 260 l 689 884 l 326 884 q 239 705 282 770 l 570 705 l 570 309 l 320 309 l 320 43 q 334 11 320 16 q 445 5 347 5 q 697 22 673 5 q 732 109 722 38 l 841 71 q 776 -71 819 -43 q 445 -98 732 -98 q 241 -76 271 -98 q 212 22 212 -54 l 212 651 l 146 559 l 60 640 q 282 1134 206 830 m 461 613 l 320 613 l 320 396 l 461 396 l 461 613 m 1166 1118 l 1275 1118 l 1275 16 q 1245 -95 1275 -65 q 1145 -125 1215 -125 q 960 -103 1047 -125 l 939 5 q 1128 -22 1036 -22 q 1166 43 1166 -22 l 1166 1118 m 928 977 l 1036 977 l 1036 190 l 928 190 l 928 977 z "},"利":{"ha":1389,"x_min":65,"x_max":1248,"o":"m 716 1128 l 765 1031 l 505 966 l 505 749 l 765 749 l 765 646 l 505 646 l 505 564 q 792 233 651 423 l 716 152 q 505 418 618 288 l 505 -125 l 396 -125 l 396 434 q 141 98 293 250 l 65 195 q 385 646 282 391 l 114 646 l 114 749 l 396 749 l 396 949 l 141 906 l 98 1015 q 716 1128 434 1053 m 1139 1123 l 1248 1123 l 1248 16 q 1215 -95 1248 -65 q 1085 -125 1183 -125 q 922 -98 998 -125 l 901 16 q 1085 -16 993 -16 q 1139 38 1139 -16 l 1139 1123 m 846 977 l 955 977 l 955 190 l 846 190 l 846 977 z "},"别":{"ha":1389,"x_min":92,"x_max":1275,"o":"m 179 1085 l 743 1085 l 743 656 l 179 656 l 179 1085 m 288 760 l 635 760 l 635 982 l 288 982 l 288 760 m 114 483 l 342 483 l 342 608 l 450 608 q 445 483 450 543 l 765 483 q 727 -38 765 38 q 559 -114 689 -114 q 450 -98 505 -114 l 423 11 q 559 -5 494 -5 q 629 38 618 -5 q 651 385 651 119 l 439 385 q 369 81 429 195 q 168 -130 309 -33 l 92 -49 q 336 385 320 92 l 114 385 l 114 483 m 1166 1118 l 1275 1118 l 1275 16 q 1245 -95 1275 -65 q 1145 -125 1215 -125 q 960 -103 1047 -125 l 939 5 q 1128 -22 1036 -22 q 1166 43 1166 -22 l 1166 1118 m 928 977 l 1036 977 l 1036 190 l 928 190 l 928 977 z "},"刮":{"ha":1389,"x_min":92,"x_max":1275,"o":"m 1166 1118 l 1275 1118 l 1275 16 q 1245 -95 1275 -65 q 1145 -125 1215 -125 q 960 -103 1047 -125 l 939 5 q 1128 -22 1036 -22 q 1166 43 1166 -22 l 1166 1118 m 928 977 l 1036 977 l 1036 190 l 928 190 l 928 977 m 781 1101 l 825 1015 l 515 971 l 515 765 l 836 765 l 836 662 l 515 662 l 515 439 l 760 439 l 760 -125 l 651 -125 l 651 -33 l 266 -33 l 266 -125 l 157 -125 l 157 439 l 407 439 l 407 662 l 92 662 l 92 765 l 407 765 l 407 960 q 136 933 277 944 l 98 1031 q 781 1101 472 1053 m 266 65 l 651 65 l 651 336 l 266 336 l 266 65 z "},"到":{"ha":1389,"x_min":65,"x_max":1248,"o":"m 98 1063 l 787 1063 l 787 960 l 461 960 q 277 640 369 738 q 591 694 429 656 q 510 846 553 776 l 613 890 q 781 537 711 727 l 673 488 q 635 597 651 543 q 146 526 401 543 l 114 629 q 331 960 239 743 l 98 960 l 98 1063 m 765 109 l 787 11 q 109 -98 483 -49 l 65 16 l 374 54 l 374 228 l 119 228 l 119 326 l 374 326 l 374 499 l 483 499 l 483 326 l 749 326 l 749 228 l 483 228 l 483 65 q 765 109 635 87 m 1139 1123 l 1248 1123 l 1248 16 q 1215 -95 1248 -65 q 1085 -125 1183 -125 q 922 -98 998 -125 l 901 16 q 1085 -16 993 -16 q 1139 38 1139 -16 l 1139 1123 m 846 977 l 955 977 l 955 190 l 846 190 l 846 977 z "},"制":{"ha":1389,"x_min":71,"x_max":1275,"o":"m 222 1096 l 315 1069 q 288 982 304 1025 l 401 982 l 401 1123 l 510 1123 l 510 982 l 770 982 l 770 879 l 510 879 l 510 732 l 825 732 l 825 629 l 510 629 l 510 488 l 792 488 l 792 103 q 757 8 792 38 q 656 -22 722 -22 q 564 -16 618 -22 l 543 81 q 651 76 613 76 q 684 125 684 76 l 684 385 l 510 385 l 510 -125 l 401 -125 l 401 385 l 239 385 l 239 -16 l 130 -16 l 130 488 l 401 488 l 401 629 l 71 629 l 71 732 l 130 732 l 71 781 q 222 1096 174 917 m 401 732 l 401 879 l 250 879 q 174 732 217 798 l 401 732 m 1166 1118 l 1275 1118 l 1275 16 q 1245 -95 1275 -65 q 1145 -125 1215 -125 q 960 -103 1047 -125 l 939 5 q 1128 -22 1036 -22 q 1166 43 1166 -22 l 1166 1118 m 928 977 l 1036 977 l 1036 190 l 928 190 l 928 977 z "},"刷":{"ha":1389,"x_min":38,"x_max":1275,"o":"m 293 711 l 293 591 q 136 -54 293 255 l 38 16 q 184 591 184 266 l 184 1074 l 819 1074 l 819 711 l 293 711 m 293 971 l 293 814 l 711 814 l 711 971 l 293 971 m 841 553 l 841 125 q 806 27 841 60 q 705 -5 770 -5 q 667 0 689 -5 l 640 103 q 700 98 684 98 q 732 152 732 98 l 732 450 l 635 450 l 635 -125 l 526 -125 l 526 450 l 429 450 l 429 -16 l 320 -16 l 320 553 l 526 553 l 526 673 l 635 673 l 635 553 l 841 553 m 1166 1118 l 1275 1118 l 1275 16 q 1245 -95 1275 -65 q 1145 -125 1215 -125 q 960 -103 1047 -125 l 939 5 q 1128 -22 1036 -22 q 1166 43 1166 -22 l 1166 1118 m 928 977 l 1036 977 l 1036 190 l 928 190 l 928 977 z "},"券":{"ha":1389,"x_min":71,"x_max":1313,"o":"m 298 396 l 1069 396 q 1028 -43 1069 27 q 868 -114 987 -114 q 700 -109 798 -114 l 678 -5 q 857 -16 781 -16 q 928 33 911 -16 q 955 293 944 81 l 646 293 q 222 -125 591 -5 l 141 -22 q 532 293 483 76 l 298 293 l 298 396 m 1004 1123 l 1107 1069 q 1009 917 1063 982 l 1253 917 l 1253 819 l 667 819 l 586 684 l 1297 684 l 1297 586 l 1004 586 q 1313 445 1123 494 l 1253 336 q 868 586 1020 418 l 494 586 q 136 326 353 434 l 71 418 q 331 586 217 494 l 81 586 l 81 684 l 439 684 q 543 819 494 738 l 130 819 l 130 917 l 597 917 q 662 1134 635 1015 l 770 1118 q 711 917 749 1015 l 873 917 q 1004 1123 955 1009 m 369 1118 q 483 982 439 1053 l 391 928 q 282 1063 347 998 l 369 1118 z "},"刹":{"ha":1389,"x_min":98,"x_max":1275,"o":"m 705 1118 l 776 1036 q 602 873 694 949 q 830 722 722 798 l 749 635 q 510 808 635 727 q 184 646 418 738 l 125 738 q 401 879 277 803 q 136 1020 277 955 l 217 1085 q 494 939 363 1015 q 705 1118 613 1020 m 130 526 l 434 526 l 434 689 l 537 689 l 537 526 l 825 526 l 825 429 l 537 429 l 537 5 q 513 -100 537 -71 q 412 -130 488 -130 q 288 -109 347 -130 l 266 -11 q 396 -33 331 -33 q 434 27 434 -33 l 434 429 l 130 429 l 130 526 m 700 342 q 863 33 803 195 l 765 -27 q 613 288 705 141 l 700 342 m 250 342 l 342 309 q 184 -16 282 130 l 98 33 q 250 342 184 168 m 1166 1118 l 1275 1118 l 1275 16 q 1245 -95 1275 -65 q 1145 -125 1215 -125 q 960 -103 1047 -125 l 939 5 q 1128 -22 1036 -22 q 1166 43 1166 -22 l 1166 1118 m 928 977 l 1036 977 l 1036 190 l 928 190 l 928 977 z "},"刺":{"ha":1389,"x_min":65,"x_max":1275,"o":"m 98 1004 l 407 1004 l 407 1123 l 521 1123 l 521 1004 l 830 1004 l 830 901 l 521 901 l 521 776 l 798 776 l 798 456 q 770 369 798 396 q 689 342 743 342 q 608 353 656 342 l 586 445 q 656 439 640 439 q 689 472 689 439 l 689 673 l 521 673 l 521 -125 l 407 -125 l 407 298 q 141 -5 304 130 l 65 87 q 407 483 293 255 l 407 673 l 239 673 l 239 331 l 130 331 l 130 776 l 407 776 l 407 901 l 98 901 l 98 1004 m 591 293 q 819 119 716 217 l 749 33 q 526 222 646 146 l 591 293 m 1166 1118 l 1275 1118 l 1275 16 q 1245 -95 1275 -65 q 1145 -125 1215 -125 q 960 -103 1047 -125 l 939 5 q 1128 -22 1036 -22 q 1166 43 1166 -22 l 1166 1118 m 928 977 l 1036 977 l 1036 190 l 928 190 l 928 977 z "}}}
